<svg xmlns="http://www.w3.org/2000/svg" xmlns:xlink="http://www.w3.org/1999/xlink" width="775.001" height="775" viewBox="0 0 775.001 775">
    <defs>
      <clipPath id="clip-path">
        <path id="Subtraction_1" data-name="Subtraction 1" d="M387.5,775a390.3,390.3,0,0,1-78.093-7.872,385.328,385.328,0,0,1-138.563-58.306A388.628,388.628,0,0,1,30.451,538.334,385.562,385.562,0,0,1,7.869,465.6a391.455,391.455,0,0,1,0-156.191A385.457,385.457,0,0,1,66.177,170.844,388.644,388.644,0,0,1,236.666,30.451a385.606,385.606,0,0,1,72.74-22.576,391.195,391.195,0,0,1,156.187,0,385.261,385.261,0,0,1,138.561,58.3A388.58,388.58,0,0,1,744.546,236.667a385.569,385.569,0,0,1,22.583,72.738,391.373,391.373,0,0,1,0,156.191,385.512,385.512,0,0,1-58.308,138.559A388.668,388.668,0,0,1,538.333,744.549a385.626,385.626,0,0,1-72.74,22.578A390.312,390.312,0,0,1,387.5,775Zm0-662.459c-151.614,0-274.959,123.346-274.959,274.96S235.884,662.459,387.5,662.459,662.46,539.113,662.46,387.5,539.114,112.541,387.5,112.541Z" transform="translate(0 0)" fill="#fff"/>
      </clipPath>
    </defs>
    <g id="Circle" transform="translate(-33.707 -48.708)">
      <g id="Mask_Group_3" data-name="Mask Group 3" transform="translate(33.708 48.708)" clip-path="url(#clip-path)">
        <g id="Group_8526" data-name="Group 8526" transform="translate(0 1.14)" opacity="0.38">
            <g id="Group_8526-2" data-name="Group 8526" transform="translate(0 7.407)">
            <path id="Path_1" data-name="Path 1" d="M1022.456,445.439h-15.181l7.591-11.6Zm-9.7-2.963h4.222l-2.111-3.227Z" transform="translate(-509.916 -227.031)" fill="#1d2b4c"/>
            <path id="Path_2" data-name="Path 2" d="M754.458,435.4h15.181L762.049,447Zm9.7,2.963h-4.222l2.111,3.227Z" transform="translate(-381.932 -227.821)" fill="#1d2b4c"/>
            <path id="Path_3" data-name="Path 3" d="M800,435.4h15.181l-7.59,11.6Zm9.7,2.963H805.48l2.111,3.227Z" transform="translate(-404.987 -227.821)" fill="#1d2b4c"/>
            <path id="Path_4" data-name="Path 4" d="M853.325,94.817H838.144l7.591-11.6Zm-9.7-2.963h4.222l-2.111-3.227Z" transform="translate(-424.297 -49.535)" fill="#1d2b4c"/>
            <path id="Path_5" data-name="Path 5" d="M807.783,94.817H792.6l7.591-11.6Zm-9.7-2.963H802.3l-2.111-3.227Z" transform="translate(-401.242 -49.535)" fill="#1d2b4c"/>
            <path id="Path_6" data-name="Path 6" d="M571.07,293.922l-7.591-11.6H578.66Zm-2.112-8.638,2.112,3.227,2.111-3.227Z" transform="translate(-285.252 -150.328)" fill="#1d2b4c"/>
            <path id="Path_7" data-name="Path 7" d="M611.07,293.922l-7.591-11.6H618.66Zm-2.112-8.638,2.112,3.227,2.111-3.227Z" transform="translate(-305.501 -150.328)" fill="#1d2b4c"/>
            <path id="Path_8" data-name="Path 8" d="M651.07,293.922l-7.591-11.6H658.66Zm-2.111-8.638,2.111,3.227,2.111-3.227Z" transform="translate(-325.751 -150.328)" fill="#1d2b4c"/>
            <path id="Path_9" data-name="Path 9" d="M615.569,260.008H552.88a1.481,1.481,0,0,1-1.481-1.481h0a1.482,1.482,0,0,1,1.481-1.481h62.689a1.482,1.482,0,0,1,1.481,1.481h0A1.482,1.482,0,0,1,615.569,260.008Z" transform="translate(-279.137 -137.532)" fill="#1d2b4c"/>
            <path id="Path_10" data-name="Path 10" d="M517.18,260.008h-14.3a1.481,1.481,0,0,1-1.481-1.481h0a1.482,1.482,0,0,1,1.481-1.481h14.3a1.482,1.482,0,0,1,1.481,1.481h0A1.482,1.482,0,0,1,517.18,260.008Z" transform="translate(-253.825 -137.532)" fill="#1d2b4c"/>
            <path id="Path_11" data-name="Path 11" d="M175.656,395.928l7.591,11.6H168.065Zm2.111,8.637-2.111-3.227-2.111,3.227Z" transform="translate(-85.08 -207.839)" fill="#1d2b4c"/>
            <path id="Path_12" data-name="Path 12" d="M135.656,395.928l7.591,11.6H128.065Zm2.111,8.637-2.111-3.227-2.111,3.227Z" transform="translate(-64.831 -207.839)" fill="#1d2b4c"/>
            <path id="Path_13" data-name="Path 13" d="M95.656,395.928l7.591,11.6H88.065Zm2.111,8.637-2.111-3.227-2.111,3.227Z" transform="translate(-44.581 -207.839)" fill="#1d2b4c"/>
            <path id="Path_14" data-name="Path 14" d="M79.41,436.7H142.1a1.482,1.482,0,0,1,1.481,1.481h0a1.482,1.482,0,0,1-1.481,1.481H79.41a1.482,1.482,0,0,1-1.481-1.481h0A1.481,1.481,0,0,1,79.41,436.7Z" transform="translate(-39.45 -228.478)" fill="#1d2b4c"/>
            <path id="Path_15" data-name="Path 15" d="M36.9,456.8H86.461a1.481,1.481,0,0,1,1.481,1.481h0a1.481,1.481,0,0,1-1.481,1.481H36.9a1.481,1.481,0,0,1-1.481-1.481h0A1.481,1.481,0,0,1,36.9,456.8Z" transform="translate(-17.932 -238.653)" fill="#1d2b4c"/>
            <path id="Path_16" data-name="Path 16" d="M1402.228,813.363l-7.591-11.6h15.182Zm-2.111-8.638,2.111,3.227,2.111-3.227Z" transform="translate(-706.012 -413.286)" fill="#1d2b4c"/>
            <path id="Path_17" data-name="Path 17" d="M1442.228,813.363l-7.591-11.6h15.181Zm-2.111-8.638,2.111,3.227,2.111-3.227Z" transform="translate(-726.261 -413.286)" fill="#1d2b4c"/>
            <path id="Path_18" data-name="Path 18" d="M1482.228,813.363l-7.591-11.6h15.182Zm-2.111-8.638,2.111,3.227,2.111-3.227Z" transform="translate(-746.51 -413.286)" fill="#1d2b4c"/>
            <path id="Path_19" data-name="Path 19" d="M1426.855,467.93l-7.591-11.6h15.181Zm-2.111-8.638,2.111,3.227,2.111-3.227Z" transform="translate(-718.479 -238.416)" fill="#1d2b4c"/>
            <path id="Path_20" data-name="Path 20" d="M1482.228,467.93l-7.591-11.6h15.182Zm-2.111-8.638,2.111,3.227,2.111-3.227Z" transform="translate(-746.51 -238.416)" fill="#1d2b4c"/>
            <path id="Path_21" data-name="Path 21" d="M1231.889,663.251l-7.591-11.6h15.182Zm-2.111-8.638,2.111,3.227,2.111-3.227Z" transform="translate(-619.781 -337.294)" fill="#1d2b4c"/>
            <path id="Path_22" data-name="Path 22" d="M780.251,1064.386l-7.591-11.6h15.181Zm-2.111-8.638,2.111,3.227,2.111-3.227Z" transform="translate(-391.146 -540.363)" fill="#1d2b4c"/>
            <path id="Path_23" data-name="Path 23" d="M445.353,1212.114l-7.591-11.6h15.181Zm-2.111-8.637,2.111,3.226,2.111-3.226Z" transform="translate(-221.61 -615.148)" fill="#1d2b4c"/>
            <path id="Path_24" data-name="Path 24" d="M735.507,850.849,716.044,821.1H754.97Zm-13.984-26.781,13.984,21.371,13.984-21.371Z" transform="translate(-362.485 -423.078)" fill="#1d2b4c"/>
            <path id="Path_25" data-name="Path 25" d="M1339.643,67.566,1320.18,37.822h38.926Zm-13.984-26.781,13.984,21.371,13.984-21.371Z" transform="translate(-668.319 -26.554)" fill="#1d2b4c"/>
            <path id="Path_26" data-name="Path 26" d="M687.534,120.4,707,150.141H668.071Zm13.984,26.781-13.984-21.371L673.55,147.178Z" transform="translate(-338.2 -68.356)" fill="#1d2b4c"/>
            <path id="Path_27" data-name="Path 27" d="M140.772,566.122l-19.463-29.744h38.926Zm-13.984-26.781,13.984,21.371,13.985-21.371Z" transform="translate(-61.411 -278.94)" fill="#1d2b4c"/>
            <path id="Path_28" data-name="Path 28" d="M942.532,1540.793l-19.463-29.744H962Zm-13.985-26.781,13.985,21.371,13.984-21.371Z" transform="translate(-467.288 -772.351)" fill="#1d2b4c"/>
            <path id="Path_29" data-name="Path 29" d="M647.042,391.13H608.116l19.463-29.744Zm-33.447-2.963h27.968L627.579,366.8Z" transform="translate(-307.849 -190.353)" fill="#1d2b4c"/>
            <path id="Path_30" data-name="Path 30" d="M304.955,1548.839H266.029l19.463-29.744Zm-33.447-2.963h27.968l-13.984-21.371Z" transform="translate(-134.673 -776.424)" fill="#1d2b4c"/>
            <path id="Path_31" data-name="Path 31" d="M68.248,828.646H29.322L48.785,798.9ZM34.8,825.683H62.769L48.785,804.312Z" transform="translate(-14.844 -411.838)" fill="#1d2b4c"/>
            <path id="Path_32" data-name="Path 32" d="M1351.815,1366.037l-7.591-11.6h15.181Zm-2.111-8.638,2.111,3.227,2.111-3.227Z" transform="translate(-680.491 -693.069)" fill="#1d2b4c"/>
            <path id="Path_33" data-name="Path 33" d="M1396.149,1366.037l-7.59-11.6h15.181Zm-2.111-8.638,2.111,3.227,2.111-3.227Z" transform="translate(-702.935 -693.069)" fill="#1d2b4c"/>
            <path id="Path_34" data-name="Path 34" d="M1018,866.031l-7.591-11.6h15.181Zm-2.111-8.638L1018,860.62l2.111-3.227Z" transform="translate(-511.501 -439.949)" fill="#1d2b4c"/>
            <path id="Path_35" data-name="Path 35" d="M1062.328,866.031l-7.59-11.6h15.182Zm-2.111-8.638,2.111,3.227,2.111-3.227Z" transform="translate(-533.944 -439.949)" fill="#1d2b4c"/>
            <path id="Path_36" data-name="Path 36" d="M1029.894,56.048l-7.591-11.6h15.182Zm-2.111-8.637,2.111,3.227,2.111-3.227Z" transform="translate(-517.524 -29.909)" fill="#1d2b4c"/>
            <path id="Path_37" data-name="Path 37" d="M1074.228,56.048l-7.591-11.6h15.181Zm-2.111-8.637,2.111,3.227,2.111-3.227Z" transform="translate(-539.967 -29.909)" fill="#1d2b4c"/>
            <path id="Path_38" data-name="Path 38" d="M970.077,949.92l7.591,11.6H962.486Zm2.111,8.638-2.111-3.227-2.111,3.227Z" transform="translate(-487.243 -488.289)" fill="#1d2b4c"/>
            <path id="Path_39" data-name="Path 39" d="M1283.263,651.651l7.59,11.6h-15.181Zm2.111,8.637-2.111-3.227-2.111,3.227Z" transform="translate(-645.788 -337.295)" fill="#1d2b4c"/>
            <path id="Path_40" data-name="Path 40" d="M925.744,949.92l7.591,11.6H918.153Zm2.111,8.638-2.111-3.227-2.111,3.227Z" transform="translate(-464.8 -488.289)" fill="#1d2b4c"/>
            <path id="Path_41" data-name="Path 41" d="M1446.728,789.45H1384.04a1.481,1.481,0,0,1-1.481-1.481h0a1.481,1.481,0,0,1,1.481-1.481h62.688a1.481,1.481,0,0,1,1.481,1.481h0A1.481,1.481,0,0,1,1446.728,789.45Z" transform="translate(-699.897 -405.554)" fill="#1d2b4c"/>
            <path id="Path_42" data-name="Path 42" d="M615.888,240.008h-37.5a1.481,1.481,0,0,1-1.481-1.481h0a1.482,1.482,0,0,1,1.481-1.481h37.5a1.482,1.482,0,0,1,1.481,1.481h0A1.481,1.481,0,0,1,615.888,240.008Z" transform="translate(-292.05 -127.408)" fill="#1d2b4c"/>
            <path id="Path_43" data-name="Path 43" d="M252.636,768.941l-7.591-11.6h15.181Zm-2.111-8.638,2.111,3.227,2.111-3.227Z" transform="translate(-124.05 -390.798)" fill="#1d2b4c"/>
            <path id="Path_44" data-name="Path 44" d="M298.636,768.941l-7.591-11.6h15.181Zm-2.111-8.638,2.111,3.227,2.111-3.227Z" transform="translate(-147.337 -390.798)" fill="#1d2b4c"/>
            <path id="Path_45" data-name="Path 45" d="M344.636,768.941l-7.591-11.6h15.181Zm-2.111-8.638,2.111,3.227,2.111-3.227Z" transform="translate(-170.624 -390.798)" fill="#1d2b4c"/>
            <path id="Path_46" data-name="Path 46" d="M810.991,1448.44l-7.59-11.6h15.181Zm-2.111-8.638,2.111,3.227,2.111-3.227Z" transform="translate(-406.708 -734.784)" fill="#1d2b4c"/>
            <path id="Path_47" data-name="Path 47" d="M856.991,1448.44l-7.59-11.6h15.181Zm-2.111-8.638,2.111,3.227,2.111-3.227Z" transform="translate(-429.995 -734.784)" fill="#1d2b4c"/>
            <path id="Path_48" data-name="Path 48" d="M902.991,1448.44l-7.591-11.6h15.181Zm-2.111-8.638,2.111,3.227,2.111-3.227Z" transform="translate(-453.282 -734.784)" fill="#1d2b4c"/>
            <path id="Path_49" data-name="Path 49" d="M303.056,737.028H233.974a1.482,1.482,0,0,1-1.481-1.481h0a1.481,1.481,0,0,1,1.481-1.481h69.082a1.481,1.481,0,0,1,1.481,1.481h0A1.482,1.482,0,0,1,303.056,737.028Z" transform="translate(-117.696 -379.016)" fill="#1d2b4c"/>
            <path id="Path_50" data-name="Path 50" d="M303.222,1238.622l7.591,11.6H295.631Zm2.111,8.638-2.111-3.227-2.111,3.227Z" transform="translate(-149.658 -634.439)" fill="#1d2b4c"/>
            <path id="Path_51" data-name="Path 51" d="M257.222,1238.622l7.591,11.6H249.631Zm2.111,8.638-2.111-3.227-2.111,3.227Z" transform="translate(-126.371 -634.439)" fill="#1d2b4c"/>
            <path id="Path_52" data-name="Path 52" d="M211.222,1238.622l7.591,11.6H203.631Zm2.111,8.638-2.111-3.227-2.111,3.227Z" transform="translate(-103.085 -634.439)" fill="#1d2b4c"/>
            <path id="Path_53" data-name="Path 53" d="M93.624,1238.622l7.591,11.6H86.033Zm2.111,8.638-2.111-3.227-2.111,3.227Z" transform="translate(-43.553 -634.439)" fill="#1d2b4c"/>
            <path id="Path_54" data-name="Path 54" d="M194.5,1279.391h69.082a1.481,1.481,0,0,1,1.481,1.481h0a1.481,1.481,0,0,1-1.481,1.481H194.5a1.481,1.481,0,0,1-1.481-1.481h0A1.481,1.481,0,0,1,194.5,1279.391Z" transform="translate(-97.714 -655.078)" fill="#1d2b4c"/>
            <path id="Path_55" data-name="Path 55" d="M1331.48,1261.86H1316.3l7.591-11.6Zm-9.7-2.963H1326l-2.111-3.227Z" transform="translate(-666.354 -640.331)" fill="#1d2b4c"/>
            <path id="Path_56" data-name="Path 56" d="M1285.48,1261.86H1270.3l7.591-11.6Zm-9.7-2.963H1280l-2.111-3.227Z" transform="translate(-643.067 -640.331)" fill="#1d2b4c"/>
            <path id="Path_57" data-name="Path 57" d="M1239.48,1261.86H1224.3l7.591-11.6Zm-9.7-2.963H1234l-2.111-3.227Z" transform="translate(-619.781 -640.331)" fill="#1d2b4c"/>
            <path id="Path_58" data-name="Path 58" d="M1284.252,1285.991H1215.17a1.481,1.481,0,0,1-1.481-1.481h0a1.481,1.481,0,0,1,1.481-1.481h69.082a1.481,1.481,0,0,1,1.481,1.481h0A1.481,1.481,0,0,1,1284.252,1285.991Z" transform="translate(-614.41 -656.919)" fill="#1d2b4c"/>
            <path id="Path_59" data-name="Path 59" d="M801.009,1415.964H731.927a1.481,1.481,0,0,1-1.481-1.481h0a1.481,1.481,0,0,1,1.481-1.482h69.082a1.481,1.481,0,0,1,1.481,1.482h0A1.481,1.481,0,0,1,801.009,1415.964Z" transform="translate(-369.776 -722.716)" fill="#1d2b4c"/>
            <path id="Path_60" data-name="Path 60" d="M298.919,708.721h-37.5a1.481,1.481,0,0,1-1.481-1.481h0a1.481,1.481,0,0,1,1.481-1.481h37.5a1.481,1.481,0,0,1,1.481,1.481h0A1.481,1.481,0,0,1,298.919,708.721Z" transform="translate(-131.59 -364.686)" fill="#1d2b4c"/>
            <path id="Path_61" data-name="Path 61" d="M1520.957,1552.769l-7.591-11.6h15.182Zm-2.111-8.638,2.111,3.227,2.112-3.227Z" transform="translate(-766.117 -787.598)" fill="#1d2b4c"/>
            <path id="Path_62" data-name="Path 62" d="M1566.957,1552.769l-7.591-11.6h15.182Zm-2.111-8.638,2.111,3.227,2.111-3.227Z" transform="translate(-789.403 -787.598)" fill="#1d2b4c"/>
            <path id="Path_63" data-name="Path 63" d="M1500.813,1519.374a1.481,1.481,0,0,0,1.481,1.481h47.494v-2.963h-47.494A1.481,1.481,0,0,0,1500.813,1519.374Z" transform="translate(-759.762 -775.816)" fill="#1d2b4c"/>
            <path id="Path_64" data-name="Path 64" d="M1528.26,1491.068a1.481,1.481,0,0,0,1.481,1.481h33.941v-2.963h-33.941A1.481,1.481,0,0,0,1528.26,1491.068Z" transform="translate(-773.656 -761.486)" fill="#1d2b4c"/>
            <path id="Path_65" data-name="Path 65" d="M12.957,1552.769l-7.591-11.6H20.547Zm-2.111-8.638,2.111,3.227,2.111-3.227Z" transform="translate(-2.716 -787.598)" fill="#1d2b4c"/>
            <rect id="Rectangle_2274" data-name="Rectangle 2274" height="2.963" transform="translate(0 742.077)" fill="#1d2b4c"/>
            <path id="Path_66" data-name="Path 66" d="M23.069,1519.374a1.481,1.481,0,0,0-1.481-1.481H0v2.963H21.588A1.481,1.481,0,0,0,23.069,1519.374Z" transform="translate(0 -775.816)" fill="#1d2b4c"/>
            <rect id="Rectangle_2275" data-name="Rectangle 2275" height="2.963" transform="translate(0 728.101)" fill="#1d2b4c"/>
            <path id="Path_67" data-name="Path 67" d="M5.038,1491.068a1.481,1.481,0,0,0-1.481-1.481H0v2.963H3.557A1.481,1.481,0,0,0,5.038,1491.068Z" transform="translate(0 -761.486)" fill="#1d2b4c"/>
            <rect id="Rectangle_2276" data-name="Rectangle 2276" width="15.946" height="2.963" rx="1.481" transform="translate(145.814 328.203)" fill="#1d2b4c"/>
            <path id="Path_68" data-name="Path 68" d="M1286.146,198.482h-12.984a1.482,1.482,0,0,1-1.481-1.481h0a1.481,1.481,0,0,1,1.481-1.481h12.984a1.481,1.481,0,0,1,1.481,1.481h0A1.481,1.481,0,0,1,1286.146,198.482Z" transform="translate(-643.768 -106.386)" fill="#1d2b4c"/>
            <path id="Path_69" data-name="Path 69" d="M667.358,695.228H642.652a1.481,1.481,0,0,1-1.482-1.481h0a1.481,1.481,0,0,1,1.482-1.481h24.705a1.481,1.481,0,0,1,1.481,1.481h0A1.481,1.481,0,0,1,667.358,695.228Z" transform="translate(-324.582 -357.855)" fill="#1d2b4c"/>
            <path id="Path_70" data-name="Path 70" d="M53.812,932.386H29.106a1.482,1.482,0,0,1-1.481-1.481h0a1.481,1.481,0,0,1,1.481-1.481H53.812a1.481,1.481,0,0,1,1.481,1.481h0A1.482,1.482,0,0,1,53.812,932.386Z" transform="translate(-13.985 -477.913)" fill="#1d2b4c"/>
            <path id="Path_71" data-name="Path 71" d="M706.152,717.494H688.913a1.481,1.481,0,0,1-1.481-1.481h0a1.481,1.481,0,0,1,1.481-1.481h17.238a1.481,1.481,0,0,1,1.481,1.481h0A1.481,1.481,0,0,1,706.152,717.494Z" transform="translate(-348.001 -369.127)" fill="#1d2b4c"/>
            <path id="Path_72" data-name="Path 72" d="M1224.9,1319.215h-29.3a1.481,1.481,0,0,1-1.481-1.482h0a1.481,1.481,0,0,1,1.481-1.481h29.3a1.481,1.481,0,0,1,1.481,1.481h0A1.481,1.481,0,0,1,1224.9,1319.215Z" transform="translate(-604.503 -673.738)" fill="#1d2b4c"/>
            <path id="Path_73" data-name="Path 73" d="M1504.6,1422.521h-29.3a1.481,1.481,0,0,1-1.482-1.481h0a1.482,1.482,0,0,1,1.482-1.481h29.3a1.482,1.482,0,0,1,1.481,1.481h0A1.481,1.481,0,0,1,1504.6,1422.521Z" transform="translate(-746.098 -726.036)" fill="#1d2b4c"/>
            <path id="Path_74" data-name="Path 74" d="M1433.691,1422.521h-19.422a1.482,1.482,0,0,1-1.481-1.481h0a1.482,1.482,0,0,1,1.481-1.481h19.422a1.482,1.482,0,0,1,1.481,1.481h0A1.481,1.481,0,0,1,1433.691,1422.521Z" transform="translate(-715.2 -726.036)" fill="#1d2b4c"/>
            <path id="Path_75" data-name="Path 75" d="M1190.512,1110.179h-29.3a1.481,1.481,0,0,1-1.481-1.481h0a1.481,1.481,0,0,1,1.481-1.481h29.3a1.481,1.481,0,0,1,1.481,1.481h0A1.481,1.481,0,0,1,1190.512,1110.179Z" transform="translate(-587.096 -567.918)" fill="#1d2b4c"/>
            <path id="Path_76" data-name="Path 76" d="M1410.9,901.351h-29.3a1.482,1.482,0,0,1-1.481-1.482h0a1.481,1.481,0,0,1,1.481-1.481h29.3a1.481,1.481,0,0,1,1.481,1.481h0A1.482,1.482,0,0,1,1410.9,901.351Z" transform="translate(-698.664 -462.201)" fill="#1d2b4c"/>
            <path id="Path_77" data-name="Path 77" d="M173.433,67.795H158.252l7.591-11.6Zm-9.7-2.963h4.222l-2.111-3.227Z" transform="translate(-80.112 -35.855)" fill="#1d2b4c"/>
            <path id="Path_78" data-name="Path 78" d="M127.433,67.795H112.252l7.591-11.6Zm-9.7-2.963h4.222l-2.111-3.227Z" transform="translate(-56.826 -35.855)" fill="#1d2b4c"/>
            <path id="Path_79" data-name="Path 79" d="M81.433,67.795H66.252l7.591-11.6Zm-9.7-2.963h4.222l-2.111-3.227Z" transform="translate(-33.539 -35.855)" fill="#1d2b4c"/>
            <path id="Path_80" data-name="Path 80" d="M126.206,91.926H57.124a1.481,1.481,0,0,1-1.481-1.481h0a1.481,1.481,0,0,1,1.481-1.481h69.082a1.481,1.481,0,0,1,1.481,1.481h0A1.481,1.481,0,0,1,126.206,91.926Z" transform="translate(-28.168 -52.444)" fill="#1d2b4c"/>
            <path id="Path_81" data-name="Path 81" d="M66.85,125.15h-29.3a1.481,1.481,0,0,1-1.481-1.481h0a1.481,1.481,0,0,1,1.481-1.481h29.3a1.481,1.481,0,0,1,1.481,1.481h0A1.481,1.481,0,0,1,66.85,125.15Z" transform="translate(-18.261 -69.263)" fill="#1d2b4c"/>
            <path id="Path_82" data-name="Path 82" d="M1259.992,1353.849h-11.058a1.481,1.481,0,0,1-1.481-1.481h0a1.481,1.481,0,0,1,1.481-1.481h11.058a1.481,1.481,0,0,1,1.481,1.481h0A1.481,1.481,0,0,1,1259.992,1353.849Z" transform="translate(-631.503 -691.271)" fill="#1d2b4c"/>
            <path id="Path_83" data-name="Path 83" d="M1088.954,621.932h-17.268a1.482,1.482,0,0,1-1.481-1.481h0a1.482,1.482,0,0,1,1.481-1.481h17.268a1.481,1.481,0,0,1,1.481,1.481h0A1.481,1.481,0,0,1,1088.954,621.932Z" transform="translate(-541.773 -320.751)" fill="#1d2b4c"/>
            <path id="Path_84" data-name="Path 84" d="M728.709,20.965H711.441a1.481,1.481,0,0,1-1.481-1.481h0A1.481,1.481,0,0,1,711.441,18h17.268a1.481,1.481,0,0,1,1.481,1.481h0A1.481,1.481,0,0,1,728.709,20.965Z" transform="translate(-359.405 -16.521)" fill="#1d2b4c"/>
            <path id="Path_85" data-name="Path 85" d="M1057.981,655.845h-27.266a1.481,1.481,0,0,1-1.481-1.481h0a1.481,1.481,0,0,1,1.481-1.481h27.266a1.481,1.481,0,0,1,1.481,1.481h0A1.482,1.482,0,0,1,1057.981,655.845Z" transform="translate(-521.033 -337.918)" fill="#1d2b4c"/>
            <path id="Path_86" data-name="Path 86" d="M1113.091,195.482h-27.266a1.481,1.481,0,0,1-1.481-1.481h0a1.481,1.481,0,0,1,1.481-1.481h27.266a1.481,1.481,0,0,1,1.481,1.481h0A1.481,1.481,0,0,1,1113.091,195.482Z" transform="translate(-548.931 -104.867)" fill="#1d2b4c"/>
            <path id="Path_87" data-name="Path 87" d="M1010.108,17.965H982.842a1.481,1.481,0,0,1-1.481-1.481h0A1.481,1.481,0,0,1,982.842,15h27.265a1.481,1.481,0,0,1,1.481,1.481h0A1.481,1.481,0,0,1,1010.108,17.965Z" transform="translate(-496.798 -15.002)" fill="#1d2b4c"/>
            <path id="Path_88" data-name="Path 88" d="M1127.16,651.384h-14.5a1.481,1.481,0,0,1-1.481-1.481h0a1.481,1.481,0,0,1,1.481-1.481h14.5a1.481,1.481,0,0,1,1.481,1.481h0A1.481,1.481,0,0,1,1127.16,651.384Z" transform="translate(-562.515 -335.66)" fill="#1d2b4c"/>
            <path id="Path_89" data-name="Path 89" d="M1062.662,716.43h-13.236a1.481,1.481,0,0,1-1.481-1.481h0a1.481,1.481,0,0,1,1.481-1.482h13.236a1.481,1.481,0,0,1,1.481,1.482h0A1.481,1.481,0,0,1,1062.662,716.43Z" transform="translate(-530.505 -368.588)" fill="#1d2b4c"/>
            <path id="Path_90" data-name="Path 90" d="M938.24,495.832H866.254a1.481,1.481,0,0,1-1.481-1.481h0a1.481,1.481,0,0,1,1.481-1.481H938.24a1.481,1.481,0,0,1,1.481,1.481h0A1.482,1.482,0,0,1,938.24,495.832Z" transform="translate(-437.777 -256.914)" fill="#1d2b4c"/>
            <rect id="Rectangle_2277" data-name="Rectangle 2277" width="32.938" height="2.963" rx="1.481" transform="translate(448.145 247.947)" fill="#1d2b4c"/>
            <path id="Path_91" data-name="Path 91" d="M1492.146,433.8h-29.975a1.481,1.481,0,0,1-1.481-1.481h0a1.481,1.481,0,0,1,1.481-1.481h29.975a1.481,1.481,0,0,1,1.481,1.481h0A1.481,1.481,0,0,1,1492.146,433.8Z" transform="translate(-739.45 -225.512)" fill="#1d2b4c"/>
            <path id="Path_92" data-name="Path 92" d="M1204.236,227.354h-59.6a1.482,1.482,0,0,1-1.481-1.481h0a1.481,1.481,0,0,1,1.481-1.481h59.6a1.482,1.482,0,0,1,1.481,1.481h0A1.482,1.482,0,0,1,1204.236,227.354Z" transform="translate(-578.702 -121.002)" fill="#1d2b4c"/>
            <path id="Path_93" data-name="Path 93" d="M836.988,1113.179H794.869a1.481,1.481,0,0,1-1.481-1.481h0a1.481,1.481,0,0,1,1.481-1.481h42.119a1.481,1.481,0,0,1,1.481,1.481h0A1.481,1.481,0,0,1,836.988,1113.179Z" transform="translate(-401.639 -569.436)" fill="#1d2b4c"/>
            <path id="Path_94" data-name="Path 94" d="M487.765,1399.862H445.646a1.481,1.481,0,0,1-1.481-1.481h0a1.482,1.482,0,0,1,1.481-1.481h42.118a1.482,1.482,0,0,1,1.481,1.481h0A1.481,1.481,0,0,1,487.765,1399.862Z" transform="translate(-224.851 -714.565)" fill="#1d2b4c"/>
            <path id="Path_95" data-name="Path 95" d="M952.089,1001.36H909.97a1.481,1.481,0,0,1-1.481-1.481h0a1.481,1.481,0,0,1,1.481-1.481h42.119a1.482,1.482,0,0,1,1.481,1.481h0A1.482,1.482,0,0,1,952.089,1001.36Z" transform="translate(-459.907 -512.83)" fill="#1d2b4c"/>
            <path id="Path_96" data-name="Path 96" d="M752.213,1001.36H739.869a1.481,1.481,0,0,1-1.481-1.481h0a1.481,1.481,0,0,1,1.481-1.481h12.344a1.481,1.481,0,0,1,1.481,1.481h0A1.481,1.481,0,0,1,752.213,1001.36Z" transform="translate(-373.797 -512.83)" fill="#1d2b4c"/>
            <path id="Path_97" data-name="Path 97" d="M802.527,1001.36H789.514a1.481,1.481,0,0,1-1.481-1.481h0a1.481,1.481,0,0,1,1.481-1.481h13.013a1.481,1.481,0,0,1,1.481,1.481h0A1.481,1.481,0,0,1,802.527,1001.36Z" transform="translate(-398.929 -512.83)" fill="#1d2b4c"/>
            <path id="Path_98" data-name="Path 98" d="M976.176,1049.814H963.162a1.481,1.481,0,0,1-1.481-1.481h0a1.481,1.481,0,0,1,1.481-1.481h13.014a1.481,1.481,0,0,1,1.481,1.481h0A1.481,1.481,0,0,1,976.176,1049.814Z" transform="translate(-486.835 -537.358)" fill="#1d2b4c"/>
            <path id="Path_99" data-name="Path 99" d="M578.145,1073.3H565.8a1.481,1.481,0,0,1-1.481-1.481h0a1.481,1.481,0,0,1,1.481-1.481h12.344a1.481,1.481,0,0,1,1.482,1.481h0A1.481,1.481,0,0,1,578.145,1073.3Z" transform="translate(-285.678 -549.249)" fill="#1d2b4c"/>
            <path id="Path_100" data-name="Path 100" d="M628.459,1073.3H615.445a1.481,1.481,0,0,1-1.481-1.481h0a1.481,1.481,0,0,1,1.481-1.481h13.014a1.481,1.481,0,0,1,1.481,1.481h0A1.481,1.481,0,0,1,628.459,1073.3Z" transform="translate(-310.809 -549.249)" fill="#1d2b4c"/>
            <path id="Path_101" data-name="Path 101" d="M788.7,960.167H755.369a1.481,1.481,0,0,1-1.481-1.481h0a1.481,1.481,0,0,1,1.481-1.481H788.7a1.481,1.481,0,0,1,1.481,1.481h0A1.481,1.481,0,0,1,788.7,960.167Z" transform="translate(-381.643 -491.976)" fill="#1d2b4c"/>
            <path id="Path_102" data-name="Path 102" d="M1375.276,1179.347H1339.1a1.481,1.481,0,0,1-1.481-1.481h0a1.482,1.482,0,0,1,1.481-1.481h36.173a1.482,1.482,0,0,1,1.481,1.481h0A1.481,1.481,0,0,1,1375.276,1179.347Z" transform="translate(-677.149 -602.932)" fill="#1d2b4c"/>
            <rect id="Rectangle_2278" data-name="Rectangle 2278" width="20.921" height="2.963" rx="1.481" transform="translate(335.836 373.617)" fill="#1d2b4c"/>
            <path id="Path_103" data-name="Path 103" d="M556.007,1046.814H538.048a1.481,1.481,0,0,1-1.481-1.481h0a1.481,1.481,0,0,1,1.481-1.481h17.959a1.481,1.481,0,0,1,1.481,1.481h0A1.481,1.481,0,0,1,556.007,1046.814Z" transform="translate(-271.628 -535.84)" fill="#1d2b4c"/>
            <path id="Path_104" data-name="Path 104" d="M753.786,1530.38H741.442a1.481,1.481,0,0,1-1.481-1.481h0a1.481,1.481,0,0,1,1.481-1.481h12.344a1.481,1.481,0,0,1,1.481,1.481h0A1.481,1.481,0,0,1,753.786,1530.38Z" transform="translate(-374.593 -780.637)" fill="#1d2b4c"/>
            <path id="Path_105" data-name="Path 105" d="M804.1,1530.38H791.086a1.481,1.481,0,0,1-1.481-1.481h0a1.481,1.481,0,0,1,1.481-1.481H804.1a1.481,1.481,0,0,1,1.481,1.481h0A1.481,1.481,0,0,1,804.1,1530.38Z" transform="translate(-399.724 -780.637)" fill="#1d2b4c"/>
            <path id="Path_106" data-name="Path 106" d="M731.648,1503.891H713.689a1.481,1.481,0,0,1-1.481-1.481h0a1.481,1.481,0,0,1,1.481-1.481h17.959a1.481,1.481,0,0,1,1.481,1.481h0A1.481,1.481,0,0,1,731.648,1503.891Z" transform="translate(-360.543 -767.228)" fill="#1d2b4c"/>
            <path id="Path_107" data-name="Path 107" d="M297.607,27H279.648a1.481,1.481,0,0,1-1.481-1.481h0a1.481,1.481,0,0,1,1.481-1.481h17.959a1.482,1.482,0,0,1,1.481,1.481h0A1.482,1.482,0,0,1,297.607,27Z" transform="translate(-140.817 -19.576)" fill="#1d2b4c"/>
            <path id="Path_108" data-name="Path 108" d="M1492.407,871.97h-9.328a1.481,1.481,0,0,1-1.481-1.481h0a1.482,1.482,0,0,1,1.481-1.481h9.328a1.482,1.482,0,0,1,1.481,1.481h0A1.481,1.481,0,0,1,1492.407,871.97Z" transform="translate(-750.034 -447.328)" fill="#1d2b4c"/>
            <rect id="Rectangle_2279" data-name="Rectangle 2279" width="47.642" height="3.267" transform="translate(261.057 651.044)" fill="#1d2b4c"/>
            <rect id="Rectangle_2280" data-name="Rectangle 2280" width="63.055" height="3.267" transform="translate(339.526 651.044)" fill="#1d2b4c"/>
            <rect id="Rectangle_2281" data-name="Rectangle 2281" width="8.407" height="3.267" transform="translate(315.705 651.044)" fill="#1d2b4c"/>
            <rect id="Rectangle_2282" data-name="Rectangle 2282" width="58.852" height="3.267" transform="translate(319.908 660.946)" fill="#1d2b4c"/>
            <path id="Path_109" data-name="Path 109" d="M1584.883,724.92a1.754,1.754,0,0,0,1.752,1.752h5.712v-3.5h-5.712A1.754,1.754,0,0,0,1584.883,724.92Z" transform="translate(-802.321 -373.5)" fill="#1d2b4c"/>
            <path id="Path_110" data-name="Path 110" d="M1596.01,706.325a1.754,1.754,0,0,0,1.752,1.752h.218v-3.5h-.218A1.754,1.754,0,0,0,1596.01,706.325Z" transform="translate(-807.953 -364.086)" fill="#1d2b4c"/>
            <path id="Path_111" data-name="Path 111" d="M1534.516,704.574h-34.144a1.752,1.752,0,1,0,0,3.5h34.144a1.752,1.752,0,1,0,0-3.5Z" transform="translate(-758.651 -364.086)" fill="#1d2b4c"/>
            <rect id="Rectangle_2283" data-name="Rectangle 2283" height="9.616" transform="translate(0 261.987)" fill="#1d2b4c"/>
            <rect id="Rectangle_2284" data-name="Rectangle 2284" height="7.356" transform="translate(0 325.356)" fill="#1d2b4c"/>
            <path id="Path_112" data-name="Path 112" d="M85.472,704.574H36.821a1.752,1.752,0,1,0,0,3.5h48.65a1.752,1.752,0,1,0,0-3.5Z" transform="translate(-17.753 -364.086)" fill="#1d2b4c"/>
            <rect id="Rectangle_2285" data-name="Rectangle 2285" height="3.504" transform="translate(0 349.669)" fill="#1d2b4c"/>
            <path id="Path_113" data-name="Path 113" d="M39.535,724.92a1.754,1.754,0,0,0-1.751-1.751H0v3.5H37.784A1.754,1.754,0,0,0,39.535,724.92Z" transform="translate(0 -373.5)" fill="#1d2b4c"/>
            <rect id="Rectangle_2286" data-name="Rectangle 2286" height="3.504" transform="translate(0 340.487)" fill="#1d2b4c"/>
            <path id="Path_114" data-name="Path 114" d="M11.4,706.325a1.754,1.754,0,0,0-1.752-1.751H0v3.5H9.652A1.754,1.754,0,0,0,11.4,706.325Z" transform="translate(0 -364.086)" fill="#1d2b4c"/>
            <path id="Path_115" data-name="Path 115" d="M373.827,1147.742h-9.221a1.649,1.649,0,1,0,0,3.3h9.221a1.649,1.649,0,1,0,0-3.3Z" transform="translate(-183.741 -588.433)" fill="#1d2b4c"/>
            <path id="Path_116" data-name="Path 116" d="M350.19,1164.873H334.625a1.649,1.649,0,0,0,0,3.3H350.19a1.649,1.649,0,1,0,0-3.3Z" transform="translate(-168.564 -597.105)" fill="#1d2b4c"/>
            <path id="Path_117" data-name="Path 117" d="M308.689,1149.391a1.651,1.651,0,0,0-1.649-1.649H266.1a1.649,1.649,0,1,0,0,3.3H307.04A1.651,1.651,0,0,0,308.689,1149.391Z" transform="translate(-133.873 -588.433)" fill="#1d2b4c"/>
          </g>
          <g id="Group_8538" data-name="Group 8538">
            <path id="Path_118" data-name="Path 118" d="M672.757,1235.16H574.8a2.84,2.84,0,0,1-2.074-.906l-22.154-23.87-22.153,23.87a2.84,2.84,0,0,1-2.074.906H492.3a2.493,2.493,0,0,1-1.816-4.192l48.663-52.226a3.081,3.081,0,0,1,2.248-.98h.015a3.079,3.079,0,0,1,2.253,1l38.7,42.325-2.412,2.2-38.558-42.17-47.305,50.769h32.064l22.168-23.886a3.174,3.174,0,0,1,4.5,0l22.168,23.886h95.981L600.8,1156.281l-36.975,40.26-2.406-2.21,37.118-40.415a3.079,3.079,0,0,1,2.254-1h.008a3.08,3.08,0,0,1,2.253.984l71.526,77.066a2.492,2.492,0,0,1-1.818,4.189Z" transform="translate(-247.961 -583.646)" fill="#1d2b4c"/>
            <path id="Path_119" data-name="Path 119" d="M863.553,661.94,855.289,648.5V643.78l-30.868-65.39a3.708,3.708,0,0,0-4.223-2.017,273.6,273.6,0,0,0-34.757,11.2,168.647,168.647,0,0,0-36.448,20.172,3.372,3.372,0,0,0-.443,5.018l59,62.765c1.2,4.461-.968,13.679-17.351,32.46-11.9,13.643-11.754,27.592-11.742,28.179l.033,1.6H837.4l-7.11-20.231.053-1.464,12.047-27.63H854.99a5.746,5.746,0,0,0,5.745-5.859l-.295-14.777,2.891-3.284A2.165,2.165,0,0,0,863.553,661.94ZM816.4,640.927a8.744,8.744,0,0,1-2.549,11.271L799.7,662.407,775.07,636.2a210.222,210.222,0,0,1,59.256-29.179l8.2,17.372-27.208,14.553Zm13.239-35.841-2.621-5.555c1.086-.362,2.177-.71,3.27-1.056l2.627,5.566Q831.275,604.552,829.641,605.086Zm-5.729-4.487,2.611,5.534c-2.1.727-4.18,1.494-6.252,2.285l-2.563-5.537Q820.79,601.694,823.911,600.6Zm-9.253,3.473,2.561,5.533c-.662.265-1.323.535-1.983.806l-2.665-5.476C813.267,604.647,813.96,604.353,814.659,604.072Zm-5.1,2.133,2.663,5.474q-3.546,1.522-7.036,3.168l-2.746-5.421Q805.968,607.75,809.557,606.205ZM799.5,610.857l2.739,5.407c-.706.347-1.407.706-2.109,1.061l-3.057-5.253Q798.284,611.456,799.5,610.857Zm-5.336,2.713,3.055,5.249q-3.088,1.621-6.124,3.345L787.943,617C790,615.823,792.072,614.674,794.165,613.57Zm-9.05,5.063,3.153,5.169c-.622.366-1.249.725-1.868,1.1l-3.519-4.935Q783.993,619.29,785.115,618.632Zm-5.019,3.054,3.515,4.929q-2.783,1.732-5.519,3.552l-3.651-4.829C776.307,624.087,778.2,622.876,780.1,621.686Zm-8.356,5.5,3.638,4.812c-.862.592-1.715,1.2-2.569,1.8l-4.167-4.433Q770.183,628.261,771.739,627.182Zm-22-15.539,1.2-1.277a165.217,165.217,0,0,1,35.714-19.761,269.962,269.962,0,0,1,34.323-11.059.428.428,0,0,1,.489.237l7.417,15.712a222.608,222.608,0,0,0-62.5,31.468L750.93,610.525ZM857.147,666.6l.32,16.047a2.479,2.479,0,0,1-2.478,2.528H840.255l-13.149,30.158-.1,2.7,5.788,16.465H781.812a43.772,43.772,0,0,1,10.854-24.364c14.3-16.39,20.318-28.484,17.9-35.949l-.113-.348-8.489-9.031,13.8-9.961a12.02,12.02,0,0,0,3.964-14.552l24.193-12.942,8.1,17.16v4.915l8.326,13.538Z" transform="translate(-378.477 -291.726)" fill="#1d2b4c"/>
            <path id="Path_120" data-name="Path 120" d="M1504.463,1004.678l-2.15-1.418a15.545,15.545,0,0,1,2.435-27.266,6.05,6.05,0,0,0,3.672-5.569v-2.457h-52.492v2.457a6.051,6.051,0,0,0,3.673,5.569,15.546,15.546,0,0,1,2.434,27.266l-2.149,1.418a24.193,24.193,0,0,0-10.552,23.933l17.588,110.977h30.5l17.588-110.977A24.193,24.193,0,0,0,1504.463,1004.678Zm-33.229-8.19h21.882a18.754,18.754,0,0,0,1,2.341h-23.879A18.827,18.827,0,0,0,1471.234,996.488Zm-10.345-23.5a2.785,2.785,0,0,1-1.573-1.755h45.718a2.787,2.787,0,0,1-1.572,1.755,18.755,18.755,0,0,0-11.165,20.23h-20.245a18.749,18.749,0,0,0-11.163-20.23Zm7.235,29.106h28.1a18.783,18.783,0,0,0,2.272,2.352h-32.646A18.733,18.733,0,0,0,1468.124,1002.1Zm-6.873,5.619H1503.1a20.912,20.912,0,0,1,8.91,18.087h-59.668A20.911,20.911,0,0,1,1461.251,1007.715Zm30.619,107.1.893-9.833h2.723l-1.488,9.833Zm-3.281,0h-2.147l.3-9.833h2.742Zm-5.415,0h-2.153l-.3-9.833h2.749Zm-5.719-9.833.3,9.833h-2.146l-.893-9.833Zm-6.023,0,.894,9.833H1470.2l-1.489-9.833Zm-6.028,0,1.489,9.833h-.588l-1.558-9.833Zm1.419,13.1h30.7l-.371,2.341h-29.963Zm30.479-3.267,1.489-9.833h.813l-1.558,9.833Zm-33.074-13.1-.371-2.342h36.635l-.371,2.342Zm-.888-5.609-2.991-18.871H1504l-2.991,18.871Zm-3.509-22.138-.5-3.163h45.69l-.5,3.163Zm-1.019-6.429-2.905-18.331,1.5-4.775,6,19.139a2.316,2.316,0,0,0,4.42,0l6-19.14,6,19.138a2.315,2.315,0,0,0,4.418,0l6-19.136,5.989,19.133a2.306,2.306,0,0,0,2.208,1.626h0a2.308,2.308,0,0,0,2.21-1.622l6.007-19.143,1.7,5.416-2.8,17.695Zm50.043-26.984a2.316,2.316,0,0,0-4.42,0l-6.005,19.141-5.99-19.135a2.3,2.3,0,0,0-2.208-1.625h0a2.307,2.307,0,0,0-2.21,1.622l-6,19.137-6-19.138a2.316,2.316,0,0,0-4.419,0l-6,19.14-6-19.139a2.316,2.316,0,0,0-4.42,0l-.436,1.392-1.022-6.45h56.881l-1.123,7.087Zm-55.638-8.323-.5-3.161h58.919l-.5,3.161Zm16.5,104.089-2-12.632h28.927l-2,12.632Z" transform="translate(-733.552 -490.018)" fill="#1d2b4c"/>
            <g id="Group_8527" data-name="Group 8527" transform="translate(445.718 563.76)">
              <path id="Path_121" data-name="Path 121" d="M1028.145,1168.334a1.6,1.6,0,0,0-.846-1.414,88.57,88.57,0,0,0-124.126.432c-.013.012-.016.03-.029.043a1.594,1.594,0,0,0-.312.444c-.005.012-.007.025-.012.037s-.01.031-.016.047a1.629,1.629,0,0,0,.832,2.082c22.892,10.521,34,28.213,43.142,45.692h0l.636,1.218c.039.075.079.15.117.225.228.437.458.893.7,1.363.664,1.315,1.4,2.757,2.244,4.135h0l.014.022c.266.43.546.849.836,1.26l.1.152.007.01c.01.015.019.031.031.046s.017.016.024.026a15.329,15.329,0,0,0,7.835,5.939,1.628,1.628,0,0,0-.062.5l3.163,65.33a1.634,1.634,0,0,0,1.63,1.554l.08,0c.374-.018,1.572-.018,1.946,0l.08,0a1.634,1.634,0,0,0,1.631-1.554l3.162-65.33a1.648,1.648,0,0,0-.025-.36,15.242,15.242,0,0,0,8.372-6.194c.007-.01.017-.018.024-.028s.02-.03.03-.045l0-.007.012-.019a44.911,44.911,0,0,0,3.771-6.774l.527-1.173c9.118-17.493,20.128-35.29,43.138-45.978a1.545,1.545,0,0,0,1.346-1.685Zm-40.538,33.892c-1.382,2.267-2.694,4.557-3.955,6.853-.206-6.464-2.464-13.769-5.248-21.871l9.644-10.769Zm-22.136,15.868a26.655,26.655,0,0,0-12.163,2.929c-.792-1.272-1.489-2.649-2.168-3.991l0-.01a32.243,32.243,0,0,1,14.335-3.187,31.269,31.269,0,0,1,14.033,3.375c-.646,1.31-1.362,2.6-2.067,3.721A26.529,26.529,0,0,0,965.471,1218.094Zm14.63-4.384a1.505,1.505,0,0,0-.012.163,34.476,34.476,0,0,0-14.618-3.305,35.821,35.821,0,0,0-14.847,3.1c-1.349-7.787,2.138-17.795,6.175-29.381,3.117-8.944,6.551-18.824,8.566-29.706,2.015,10.881,5.449,20.761,8.566,29.7C977.977,1195.892,981.471,1205.917,980.1,1213.71Zm-37.629-37.272,9.8,10.942c-2.792,8.135-5.041,15.464-5.2,21.942-1.325-2.416-2.7-4.823-4.162-7.206Zm-35.3-8.365a84.809,84.809,0,0,1,56.247-23c-1.364,14.193-5.792,26.911-9.7,38.138l-.223.641-14.436-16.122.5,29.183C931.93,1185.71,922.062,1175.426,907.172,1168.073ZM965.1,1283.8l-2.563-52.945a19.081,19.081,0,0,0,2.712.214h.223a19.572,19.572,0,0,0,2.187-.122Zm.372-56h-.223a13.287,13.287,0,0,1-9.992-4.1,23.84,23.84,0,0,1,20.263-.074A13.189,13.189,0,0,1,965.471,1227.8Zm25.494-30.8.5-29.27-14.284,15.951-.164-.471c-3.913-11.228-8.342-23.947-9.7-38.141a84.769,84.769,0,0,1,56.286,22.859C1008.518,1175.357,998.6,1185.73,990.965,1197Z" transform="translate(-902.689 -1141.754)" fill="#1d2b4c"/>
              <path id="Path_122" data-name="Path 122" d="M935.692,1182.768l15.509,10.5-2.773-18.524Zm5.973.1,4.273-2.691.931,6.214Z" transform="translate(-919.396 -1158.455)" fill="#1d2b4c"/>
              <path id="Path_123" data-name="Path 123" d="M987.894,1160.562l-14.5,4.029,11.843,14.511Zm-4.836,10.707-3.973-4.868,4.865-1.352Z" transform="translate(-938.481 -1151.276)" fill="#1d2b4c"/>
              <path id="Path_124" data-name="Path 124" d="M1011.97,1247.232l2.721-.4a46.244,46.244,0,0,1,5.7-.458,57.506,57.506,0,0,1,6.08.462l2.677.353-8.581-23.393Zm8.423-4.128c-1.183,0-2.431.082-3.495.179l3.67-10.005,3.679,10.028C1023.056,1243.2,1021.64,1243.1,1020.393,1243.1Z" transform="translate(-958.011 -1183.284)" fill="#1d2b4c"/>
              <path id="Path_125" data-name="Path 125" d="M1094.489,1174.745l-2.775,18.524,15.51-10.5Zm2.49,5.43,4.272,2.691-5.2,3.523Z" transform="translate(-998.38 -1158.455)" fill="#1d2b4c"/>
              <path id="Path_126" data-name="Path 126" d="M1058.717,1179.1l11.843-14.511-14.5-4.029Zm6.149-12.7-3.973,4.868-.892-6.22Z" transform="translate(-980.329 -1151.276)" fill="#1d2b4c"/>
            </g>
            <g id="Group_8528" data-name="Group 8528" transform="translate(548.121 156.319)">
              <path id="Path_127" data-name="Path 127" d="M1217.008,400.764l6.5,8.085,6.445-8-6.517-8.1Zm8.75.082-2.248,2.792-2.312-2.877,2.242-2.8Z" transform="translate(-1164.211 -355.139)" fill="#1d2b4c"/>
              <path id="Path_128" data-name="Path 128" d="M1257.6,321.459l-21.482-4.573a11.045,11.045,0,0,0-4.167-.185c-4.323-.237-7.035.908-8.127,2.069-.918.974-.93,2.211-.04,3.686a11.347,11.347,0,0,0-1.222,4.176l-1.154,12.854-.006.146a9.374,9.374,0,0,1-3.079,7.375c-2.751,2.426-7.244,3.449-12.32,2.81a15.8,15.8,0,0,1-11.312-7.691v-16.9c0-2.452-1.359-4.035-3.463-4.035a3.379,3.379,0,0,0-3.417,3.284h-.046a5.685,5.685,0,0,1-5.818,6.058h-25.5c-3.388,0-5.664-2.434-5.664-6.058h-.046a3.379,3.379,0,0,0-3.418-3.284c-2.1,0-3.462,1.583-3.462,4.035v8.927a76.039,76.039,0,0,1-8.353,4.767,43.62,43.62,0,0,0-7.52,4.44c-3.082,2.666-7.452,6.781-10.053,11.893-3.343,3.239-10.182,12.536-7.057,32.422a2.849,2.849,0,0,0,1.562,2.109,2.809,2.809,0,0,0,2.587-.056l.274-.151.488-.592c.192,2.446.4,4.648.591,6.674.306,3.242.549,5.8.591,7.953a17.157,17.157,0,0,1-1.083,5.493c-.705,2.244-1.435,4.562-.765,6.938l7.124,36.433c.182.916,1.079,3.294,3.017,3.294h10.7c2.261,0,2.4-3.643,2.4-3.68,0-4.116-3.2-8.868-7.427-9.311l-3.45-22.844a5.267,5.267,0,0,1,2.3-4.9c5.138-3.6,11.1-10.727,15.678-18.629l4.464,8.292,6.484-9.454,6.341,9.2,6.362-9.209,6.361,9.2,6.372-9.2,6.516,9.407,3.543-6.276c.076.331.155.657.231.971a13.577,13.577,0,0,1,.468,2.5l-1.03,10.476a10.039,10.039,0,0,0-1.254,3.8v0a10.574,10.574,0,0,0,.675,5.148l-.36,31.473c.018.643.457,3.045,2.289,3.045h10.485c1.818,0,2.728-2.276,2.728-3.551a9.265,9.265,0,0,0-5.359-8.411l1.264-22.506a9.756,9.756,0,0,0,1.225-3.736,9.434,9.434,0,0,0-.331-3.795l2.041-16.225.013-.2c0-5.631,10.553-11.089,14.526-13.144.55-.285,1.443-.658,2.3-1.019.963-.4,1.873-.783,2.542-1.129,8.484-4.388,19.043-9.85,20.327-29.809V341.264c0-1.089,2.135-2.588,3.685-2.588h13.355a3.88,3.88,0,0,0,3.955-3.341A13.229,13.229,0,0,0,1257.6,321.459Zm-66.176,67.616h-44.3v-7.711h44.3Zm0-27.285-6.1-7.6-6.444,8.018,6.5,8.087,6.039-7.5v3.28l-6.038,7.871-7.974-9.923-8.018,9.961-8-9.961-7.994,9.937-6.277-8.059v-3.347l6.237,7.739,6.444-8-6.516-8.1-6.165,7.672v-3.387l6.179-7.933,7.987,9.919,7.989-9.943,8,9.943,7.989-9.939,6.154,7.692Zm-3.788.5-2.249,2.793-2.311-2.875,2.25-2.8Zm-3.106,15.808h-14.253l7.132-8.861Zm-16.022,0h-14.245l7.13-8.861Zm-17.468-15.892,2.25-2.8,2.32,2.885-2.25,2.794Zm-3.917,9.012,5.358,6.88h-5.358Zm39.2,6.88,5.106-6.655V378.1Zm5.106-25.111-6.148-7.685-8,9.948-8-9.944-7.989,9.944-8.027-9.969-6.137,7.878v-9.605h44.3Zm-44.3-27.764a3.278,3.278,0,0,1,.093-.758.366.366,0,0,1,.1-.01l.052-.025a1.546,1.546,0,0,1,.145.794h.024a8.766,8.766,0,0,0,8.907,8.574h25.5a8.851,8.851,0,0,0,9.061-8.574h.025a3.329,3.329,0,0,1,.092-.758l.154-.036a1.535,1.535,0,0,1,.145.794v15.065h-44.3V325.223Zm-3.266,67.364c-4.473,8.368-10.7,16.1-15.941,19.763a8.532,8.532,0,0,0-3.654,8.119l3.857,25.54h2.174c2.541,0,4.8,3.4,4.8,6.048a3.112,3.112,0,0,1-.078.443h-9.306a2.6,2.6,0,0,1-.264-.659l-7.137-36.5-.036-.149c-.427-1.448.106-3.146.725-5.111a20.013,20.013,0,0,0,1.234-6.539c-.046-2.271-.3-5.016-.605-8.194-.291-3.073-.619-6.555-.868-10.666l-.251-4.143-4.569,5.544c-2.545-18.02,3.623-26.022,6.439-28.654l.217-.2.132-.267c2.322-4.7,6.472-8.605,9.394-11.131a43.466,43.466,0,0,1,6.883-4.008c2.239-1.157,4.685-2.422,6.853-3.758v54.525Zm3.266,0v-.241h7.314l-4.17,6.08Zm11.266-.241h8.749l-4.38,6.339Zm12.706,0h8.778l-4.391,6.343Zm16.99,6.143-4.254-6.143h7.593v.227Zm74.368-63.564a.659.659,0,0,1-.713.488h-13.355c-3.13,0-6.952,2.7-6.952,5.855l0,10.87c-1.161,18.012-10.407,22.793-18.564,27.012-.552.285-1.441.657-2.3,1.017-.965.4-1.876.785-2.546,1.131-7.545,3.9-16.2,9.235-16.291,15.937l-2.118,16.847.116.351a6.376,6.376,0,0,1-.649,5.463l-.244.368-1.467,26.112,1.443.242c2.128.357,4.066,3.027,4.066,5.582a1.317,1.317,0,0,1-.077.3h-8.891l.367-31.968-.173-.351a7.15,7.15,0,0,1-.534-3.688,6.548,6.548,0,0,1,.964-2.758l.221-.336,1.115-11.343.007-.159a14.732,14.732,0,0,0-.561-3.346,16.538,16.538,0,0,1-.625-3.8V347.5a19.129,19.129,0,0,0,10.9,5.557c6.01.756,11.436-.555,14.89-3.6a12.654,12.654,0,0,0,4.184-9.75l1.146-12.764a7.761,7.761,0,0,1,1.266-3.638l.681-1-.759-.943a6.376,6.376,0,0,1-.437-.6,9.95,9.95,0,0,1,5.012-.806l.52.032.176-.029a7.9,7.9,0,0,1,3.128.116l21.124,4.476A9.929,9.929,0,0,1,1262.457,334.921Z" transform="translate(-1110.081 -316.585)" fill="#1d2b4c"/>
            </g>
            <g id="Group_8529" data-name="Group 8529" transform="translate(537.164 359.626)">
              <path id="Path_129" data-name="Path 129" d="M1217.022,867.933l-19.238-56.882a11.532,11.532,0,0,0-5.369-6.7l-2.748-1.563L1200.1,778.8a8.275,8.275,0,0,0-.466-7.494l-23.377-39.481-23.292-3.412-.011-.075-.252.037-.251-.037-.011.075-23.293,3.412-23.339,39.419a8.261,8.261,0,0,0-.409,7.624l10.716,23.529-3.427,1.953a11.6,11.6,0,0,0-5.369,6.66l-19.2,56.931a4.4,4.4,0,0,0,4.168,5.8h9.5l-1.046,4.968a4.425,4.425,0,0,0,4.329,5.337h30.391a4.425,4.425,0,0,0,4.33-5.337l-1.046-4.968h29.3L1167,878.709a4.425,4.425,0,0,0,4.329,5.336h30.392a4.425,4.425,0,0,0,4.33-5.337L1205,873.74h7.85a4.4,4.4,0,0,0,4.167-5.807Zm-20.2-94.966a4.977,4.977,0,0,1,.686,2.641h-12.987a1.634,1.634,0,1,0,0,3.267h11.983l-9.694,22.285-12.78-7.274-5.388-9.693,5.861-16.118a24.672,24.672,0,0,0,1.487-8.448V737.78Zm-57.278,9.417-6.065-15.169a21.356,21.356,0,0,1-1.534-7.966V734.713l14.419-2.112,2.151,15.781h8.595l2.5-15.7,13.108,1.92v25.021a21.378,21.378,0,0,1-1.291,7.332l-5.608,15.425h-26.279Zm10.053-50.256,3.105-.455,3.679.539-2.057,12.9h-2.957Zm-40.6,46.747h11.155a1.634,1.634,0,1,0,0-3.267h-12.214a4.969,4.969,0,0,1,.687-2.7l20.058-33.879v20.223a24.6,24.6,0,0,0,1.768,9.179l6.018,15.052-5.446,10.419-12.053,6.871Zm27.365,101.474a1.143,1.143,0,0,1-.9.429h-5.207v-5.284a1.634,1.634,0,0,0-3.267,0v5.284h-5.2v-5.284a1.633,1.633,0,1,0-3.267,0v5.284h-5.2v-5.284a1.633,1.633,0,1,0-3.267,0v5.284h-4.977a1.159,1.159,0,0,1-1.133-1.4l1.64-7.79a6.367,6.367,0,0,1,6.2-5.032h16.974a6.369,6.369,0,0,1,6.2,5.032l1.64,7.789A1.141,1.141,0,0,1,1136.359,880.349Zm17.671-9.876h-8.778l3.053-29.767h6.67l3.053,29.767Zm48.59,9.877a1.14,1.14,0,0,1-.9.428h-5.4v-5.284a1.633,1.633,0,1,0-3.267,0v5.284h-5.2v-5.284a1.633,1.633,0,1,0-3.267,0v5.284h-5.2v-5.284a1.634,1.634,0,0,0-3.267,0v5.284h-4.784a1.157,1.157,0,0,1-1.132-1.4l1.64-7.79a6.366,6.366,0,0,1,6.2-5.032h16.973a6.367,6.367,0,0,1,6.2,5.032l1.64,7.789A1.141,1.141,0,0,1,1202.62,880.35ZM1213.775,870a1.121,1.121,0,0,1-.92.472H1204.3a9.644,9.644,0,0,0-9.284-7.18h-16.973a9.645,9.645,0,0,0-9.285,7.18h-7.44l-3.388-33.033h-12.571l-3.388,33.033h-3.932a9.647,9.647,0,0,0-9.284-7.18h-16.974a9.646,9.646,0,0,0-9.284,7.18h-10.206a1.132,1.132,0,0,1-1.072-1.493l6.393-18.957h34.4a1.634,1.634,0,0,0,0-3.267h-33.3l1.755-5.2h24.767a1.634,1.634,0,0,0,0-3.267h-23.666l8.86-26.271a8.375,8.375,0,0,1,3.875-4.828l19.169-10.928,5.546-10.609h26.7l5.9,10.621,19.185,10.919a8.314,8.314,0,0,1,3.87,4.86l8.873,26.235H1179.44a1.634,1.634,0,1,0,0,3.267h25.212l1.759,5.2h-33.748a1.634,1.634,0,0,0,0,3.267h34.853l6.411,18.956A1.119,1.119,0,0,1,1213.775,870Z" transform="translate(-1087.89 -728.333)" fill="#1d2b4c"/>
              <path id="Path_130" data-name="Path 130" d="M1196.063,782.906h-6.775a1.633,1.633,0,1,0,0,3.267h6.775a1.633,1.633,0,1,0,0-3.267Z" transform="translate(-1138.394 -755.96)" fill="#1d2b4c"/>
              <path id="Path_131" data-name="Path 131" d="M1230.456,786.173h6.777a1.633,1.633,0,1,0,0-3.267h-6.777a1.633,1.633,0,0,0,0,3.267Z" transform="translate(-1159.235 -755.96)" fill="#1d2b4c"/>
            </g>
            <g id="Group_8530" data-name="Group 8530" transform="translate(588.768)">
              <path id="Path_132" data-name="Path 132" d="M1220.172,158.953h-12.215a2.54,2.54,0,0,1-2.5-2.054c-.364-1.875-3.253-18.934-4.574-26.847l-1.075-6.437,5.787,7.52,4.182-5.43,4.182,5.431,4.182-5.431,4.182,5.43,6.036-7.847-1.073,6.438c-1.5,9.015-4.23,25.11-4.624,27.172A2.542,2.542,0,0,1,1220.172,158.953Zm-11.5-2.675v0Zm-.109-.592h11.008c.5-2.764,2.08-12.086,3.419-20.051l-.659.857-4.182-5.432-4.182,5.431-4.182-5.431-4.182,5.431-.408-.53C1206.474,143.563,1208.074,152.98,1208.561,155.687Z" transform="translate(-1196.153 -62.412)" fill="#1d2b4c"/>
              <path id="Path_133" data-name="Path 133" d="M1222.648,115.03l-4.182-5.431-4.182,5.431L1210.1,109.6l-4.181,5.431-5.477-7.112,1.484-3.427,3.992,5.185,4.181-5.431,4.183,5.431,4.182-5.431,4.182,5.431,3.827-4.971,1.649,3.213Z" transform="translate(-1196.472 -52.772)" fill="#1d2b4c"/>
              <path id="Path_134" data-name="Path 134" d="M1192.493,15.681c.427,8.253,1.394,18.02,2.875,29.028l.522,3.878,1.775-2.3,4.183,5.433,4.182-5.431,4.182,5.431,4.182-5.431,4.182,5.431,4.181-5.431,2.006,2.607.537-3.859c1.341-9.655,2.347-20.08,2.832-29.354h0A49.356,49.356,0,0,0,1226.733,0h-3.422a44.577,44.577,0,0,1,1.558,15.511c-.425,8.127-1.254,17.148-2.359,25.745l-3.933,5.108-4.182-5.431-4.182,5.431-4.182-5.431-4.182,5.431-3.58-4.649c-1.279-9.877-2.123-18.682-2.512-26.2A44.492,44.492,0,0,1,1197.313,0h-3.423A49.28,49.28,0,0,0,1192.493,15.681Z" transform="translate(-1192.401)" fill="#1d2b4c"/>
            </g>
            <path id="Path_135" data-name="Path 135" d="M885.754,103.336,874.3,92.944a10.929,10.929,0,0,0-7.361-2.843h-1.018a1.638,1.638,0,0,0-.312-.36l-11.846-9.853a2.318,2.318,0,0,0-3.8,1.782V93.346a6.389,6.389,0,0,0-.679,1.664l-6.535,27c-.011.039-.02.077-.028.116l-1.273,5.261a21.506,21.506,0,0,1-8.769,12.708l-18.919,12.944a32.628,32.628,0,0,0-13.968,23.029l-5.12,42.6-.664,2.816c-7.781-2.112-11.02-7.195-11.081-17.241-.048-7.193,2.763-15.4,5.268-22.719l.042-.12c.881-2.595,1.714-5.046,2.434-7.446,5.827-19.382-.587-28.853-3.613-32.022-3.2-3.373-7.294-4.849-10.95-3.949a8.321,8.321,0,0,0-6.051,5.887,5.842,5.842,0,0,0,8.848,6.471,7.073,7.073,0,0,1,.428.606c.969,1.494,3.842,7.326.162,19.629-.737,2.412-1.6,4.967-2.371,7.186-2.782,8.127-5.936,17.338-5.884,26.527.107,16.057,7.456,25.795,21.839,28.943a5,5,0,0,0,1.137.1c.034,0,.063-.007.1-.009a6.148,6.148,0,0,0,4.309,1.752H847.44a1.633,1.633,0,0,0,1.633-1.633v-.828a9.331,9.331,0,0,0-9.32-9.32h-8.145L836,204.168c.093-.408.161-.82.228-1.231.005-.01.013-.017.018-.027.057-.122,5.206-11.162,11.99-17.444l7.053,48.006a1.634,1.634,0,0,0,1.617,1.4h11.532a1.633,1.633,0,0,0,1.633-1.633v-2.207a10.381,10.381,0,0,0-6.352-9.58l-.384-.162v-49.6l6.28-8.415a27.84,27.84,0,0,0,5.5-16.423c0-.005,0-.009.005-.015a1.619,1.619,0,0,0-.012-.469c0-.455.007-.909-.02-1.364l-.283-4.8c0-.027,0-.054,0-.081l-1.547-26.255h8.793a4.424,4.424,0,0,0,4.28-3.307l.737-2.824A4.407,4.407,0,0,0,885.754,103.336ZM860.935,90.1H855.52a6.41,6.41,0,0,0-2.29.432V83.693ZM843.6,131.318l2.552.43,2.843,3.79a1.637,1.637,0,0,0,1.262.653l4.734.133,3.329,3.377a1.648,1.648,0,0,0,1.342.477l4.706-.517,3.76,2.879a1.632,1.632,0,0,0,1.389.288l2.138-.534.142,2.412a76.285,76.285,0,0,1-29.154-11.234Q843.172,132.42,843.6,131.318Zm27.858,7.658-1.97.492-3.654-2.8a1.638,1.638,0,0,0-1.172-.327l-4.571.5-3.235-3.282a1.632,1.632,0,0,0-1.117-.486l-4.6-.13-2.762-3.682a1.634,1.634,0,0,0-1.036-.631l-2.724-.459c0-.007,0-.013.006-.02l.72-2.975A67.8,67.8,0,0,0,871.29,136.1Zm-96.953,65.3c-.049-8.635,3.01-17.567,5.719-25.481.761-2.208,1.64-4.8,2.4-7.266,3.972-13.282.939-20.056-.539-22.336a8.217,8.217,0,0,0-2.219-2.407,1.635,1.635,0,0,0-2.2.322,2.571,2.571,0,0,1-4.465-2.329,5.089,5.089,0,0,1,3.688-3.615c2.512-.616,5.422.514,7.807,3.028,2.633,2.759,8.184,11.09,2.85,28.83-.7,2.344-1.527,4.768-2.4,7.335l-.064.187c-2.564,7.489-5.472,15.977-5.419,23.724.07,11.569,4.289,17.907,13.6,20.4l-.662,2.808a6.187,6.187,0,0,0-.106,2.249C780.5,226.624,774.6,218.3,774.507,204.275Zm92.487-42.96-6.6,8.849a1.634,1.634,0,0,0-.324.977v51.229a1.633,1.633,0,0,0,1,1.5l1.381.584a7.119,7.119,0,0,1,4.357,6.57v.573h-8.488L848.29,163.376l1.94-10.057a1.633,1.633,0,0,0-3.207-.619l-1.993,10.33a1.629,1.629,0,0,0-.012.547l2.655,18.07c-4.836,3.824-8.93,9.964-11.5,14.417a20.014,20.014,0,0,0-1.546-4.882l-.1-.214A20.964,20.964,0,0,0,815.6,178.9h-1.414a1.633,1.633,0,0,0,0,3.267H815.6a17.689,17.689,0,0,1,15.961,10.185l.1.214a16.892,16.892,0,0,1,1.151,10.872l-4.847,21.128a1.634,1.634,0,0,0,1.592,2h10.2a6.062,6.062,0,0,1,6,5.248H798.621a2.889,2.889,0,0,1-2.058-.873,1.633,1.633,0,0,0-.5-.659,2.893,2.893,0,0,1-.289-2.06l2.1-8.891a1.8,1.8,0,0,0,.032-.18l5.13-42.692A29.361,29.361,0,0,1,815.6,155.735l18.918-12.944A24.784,24.784,0,0,0,841,136.3a79.571,79.571,0,0,0,30.809,11.71A24.574,24.574,0,0,1,866.994,161.315ZM883.9,106.9l-.737,2.825a1.158,1.158,0,0,1-1.12.865h-14.92a1.634,1.634,0,1,0,0,3.267h2.855l1.111,18.863a64.517,64.517,0,0,1-24.923-10.957l6.29-25.989a3.141,3.141,0,0,1,3.062-2.409h11.421a7.673,7.673,0,0,1,5.166,1.994l11.452,10.393A1.151,1.151,0,0,1,883.9,106.9Z" transform="translate(-389.714 -40.169)" fill="#1d2b4c"/>
            <path id="Path_136" data-name="Path 136" d="M218.82,221.24l-2-5.418a8.383,8.383,0,0,0-7.858-5.479H181.028l-2.574-9.991a28.838,28.838,0,0,0-6.327-11.869l-5.75-6.467a8.017,8.017,0,0,1-2.015-5.289l.069-6.332h4.644a4.793,4.793,0,0,0,4.658-5.922l-5.183-21.361a8.631,8.631,0,0,0-8.386-6.55H142.3a13.913,13.913,0,0,0-11.909,6.6l-9.156,14.069a11.723,11.723,0,0,0-1.884,8.633l2.479,14.964H54.65a16.37,16.37,0,0,0-15.2,10.46l-9.754,25.5a7.063,7.063,0,0,0,6.658,9.464H215.324a3.728,3.728,0,0,0,3.5-5.018Zm-3.118,1.554a.454.454,0,0,1-.378.2h-75.7l-2.592-11.582a1.634,1.634,0,0,0-3.188.713l2.432,10.869H84.179l-2.8-7.171a8.4,8.4,0,0,0-7.853-5.476h-29.9a1.633,1.633,0,1,0,0,3.267h29.9a5.131,5.131,0,0,1,4.8,3.368l2.346,6.013H77.461l-1.99-5.714a1.634,1.634,0,0,0-3.086,1.074L74,222.99H36.353a3.775,3.775,0,0,1-3.13-1.625,3.718,3.718,0,0,1-.467-3.431L42.5,192.458A13.082,13.082,0,0,1,54.65,184.1h91.214a1.633,1.633,0,0,0,1.633-1.633v-36.89a1.633,1.633,0,0,0-3.267,0V180.83H125.143l-.681-4.111h3.485a1.633,1.633,0,1,0,0-3.267H123.92l-.507-3.058h8.749a1.633,1.633,0,0,0,0-3.267h-9.291l-.286-1.726a8.366,8.366,0,0,1,1.407-6.416l9.158-14.071a10.687,10.687,0,0,1,9.152-5.086h17.863a5.365,5.365,0,0,1,5.213,4.064l5.18,21.35a1.526,1.526,0,0,1-1.482,1.886H157.458a1.633,1.633,0,0,0,0,3.267h3.706l-.069,6.314a11.3,11.3,0,0,0,2.836,7.472l5.755,6.472a25.567,25.567,0,0,1,5.606,10.516l2.888,11.215a1.633,1.633,0,0,0,1.582,1.226h29.2a5.106,5.106,0,0,1,4.791,3.338l2.006,5.424A.45.45,0,0,1,215.7,222.794Z" transform="translate(-14.818 -69.132)" fill="#1d2b4c"/>
            <g id="Group_8531" data-name="Group 8531" transform="translate(194.383)">
              <path id="Path_137" data-name="Path 137" d="M395.315,9.916c.012.02.027.038.039.058s.031.046.047.069a5.916,5.916,0,0,0,.926,1.17l3.449,3.314-5.4,3.775a1.633,1.633,0,0,0-.557,2l22.127,49.963a28.063,28.063,0,0,0,25.89,17.154h27.793A28.051,28.051,0,0,0,495.5,70.29L517.639,20.3a1.632,1.632,0,0,0-.622-2.043l-5.57-3.509,3.681-3.535a5.969,5.969,0,0,0,1.391-6.621L514.623,0H486.565l-.113,1.337a1.633,1.633,0,0,0,1.628,1.771h24.291L513.5,5.84a2.728,2.728,0,0,1,.148,1.624H485.9A1.634,1.634,0,0,0,484.269,9.1v5.445a1.634,1.634,0,0,0,1.633,1.633h19.342l-4.536,4.357h-15.9a1.634,1.634,0,0,0-1.633,1.633V27.61a1.634,1.634,0,0,0,1.633,1.634h7.017A21.5,21.5,0,0,0,489,33.6h-4.183a1.633,1.633,0,0,0-1.633,1.633v5.445a1.634,1.634,0,0,0,1.633,1.633H486.1l-4.235,14.4a7.667,7.667,0,0,1-5.689,5.278V10.428L478.017,0H474.7l-1.646,9.328-9.036,6.256h-15.25L439.819,9.33,438.127,0h-3.32L436.7,10.428V62.18a7.681,7.681,0,0,1-7.116-5.463l-4.233-14.4h1.27a1.634,1.634,0,0,0,1.633-1.633V35.234a1.633,1.633,0,0,0-1.633-1.633h-4.188a21.312,21.312,0,0,0-2.811-4.356h7a1.634,1.634,0,0,0,1.633-1.634V22.166a1.634,1.634,0,0,0-1.633-1.633H410.742l-4.534-4.357h19.325a1.634,1.634,0,0,0,1.633-1.633V9.1a1.634,1.634,0,0,0-1.633-1.633h-27.7a2.681,2.681,0,0,1,.127-1.62l1.129-2.736h24.27a1.633,1.633,0,0,0,1.629-1.77L424.87,0H396.833l-1.9,4.594A5.942,5.942,0,0,0,395.315,9.916Zm92.221,2.993V10.731h23.379l-2.268,2.178Zm-1.089,13.068V23.8h10.859l-2.268,2.178Zm0,10.89h1.259c-.013.042-.029.082-.041.124l-.6,2.054h-.614ZM462.59,18.851l-5.025,29.265H455.4l-5.2-29.265Zm-37.6,18.017v2.178h-.6l-.6-2.059c-.012-.041-.027-.078-.039-.119Zm0-13.068v2.178h-8.579L414.142,23.8Zm-16.081-.5c.015.016.031.03.047.044l6.833,6.565a18.156,18.156,0,0,1,4.134,5.98,17.426,17.426,0,0,1,.734,2.025l5.795,19.724a10.976,10.976,0,0,0,10.464,7.825h1.416a1.64,1.64,0,0,0,1.638-1.636V13.418l6.8,4.751,5.661,31.866a1.632,1.632,0,0,0,1.608,1.348h4.911a1.634,1.634,0,0,0,1.61-1.357l5.469-31.856L472.91,13.4V63.828a1.633,1.633,0,0,0,1.633,1.633A10.962,10.962,0,0,0,485,57.637l5.8-19.723a18.26,18.26,0,0,1,4.862-8.006l13.357-12.827,5.062,3.189L492.5,68.992a24.8,24.8,0,0,1-22.88,15.161H441.83a24.812,24.812,0,0,1-22.891-15.186L397.346,20.209l4.831-3.375ZM423.9,10.731v2.178H402.807l-2.267-2.178Z" transform="translate(-393.674)" fill="#1d2b4c"/>
            </g>
            <g id="Group_8532" data-name="Group 8532" transform="translate(520.828 712.673)">
              <path id="Path_138" data-name="Path 138" d="M1221.714,1575.954a4.429,4.429,0,0,0-2.866-1.046h-14.023a4.419,4.419,0,0,0-2.853,1.039c-1.687,1.414-4.735,4.745-6.556,11.351h3.423c1.67-5.39,4.161-7.95,5.239-8.854a1.154,1.154,0,0,1,.747-.269h14.023a1.159,1.159,0,0,1,.759.277c1.073.9,3.56,3.457,5.23,8.846h3.422C1226.439,1580.691,1223.4,1577.362,1221.714,1575.954Z" transform="translate(-1125.988 -1509.943)" fill="#1d2b4c"/>
              <path id="Path_139" data-name="Path 139" d="M1322.333,1548.909h-6.843a2.381,2.381,0,0,1-1.672-.692l-3.036-3.036h-1.158l.326.326a1.993,1.993,0,0,1-1.41,3.4h-3.161a2.378,2.378,0,0,1-1.671-.692l-3.036-3.036h-1.158l.326.326a1.993,1.993,0,0,1-1.409,3.4h-3.161a2.38,2.38,0,0,1-1.671-.692l-3.036-3.036H1289.4l.326.326a1.993,1.993,0,0,1-1.41,3.4h-38.1a2.451,2.451,0,0,1-1.733-4.184l18.237-18.24a6.2,6.2,0,0,1,4.415-1.829h30.274a6.2,6.2,0,0,1,4.414,1.829l18.239,18.24a2.451,2.451,0,0,1-1.733,4.184Zm-6.47-3.267h4.5l-16.847-16.847a2.957,2.957,0,0,0-2.1-.871h-30.274a2.959,2.959,0,0,0-2.1.872l-16.844,16.846h33.055l-.325-.325a1.993,1.993,0,0,1,1.41-3.4h4.584a2.434,2.434,0,0,1,1.709.708l1.928,1.928a2,2,0,0,1,1.888-2.636h4.585a2.432,2.432,0,0,1,1.709.708l1.928,1.928a1.994,1.994,0,0,1,1.888-2.636h4.585a2.432,2.432,0,0,1,1.709.708Z" transform="translate(-1152.49 -1484.504)" fill="#1d2b4c"/>
              <path id="Path_140" data-name="Path 140" d="M1232.85,1516.467a2.454,2.454,0,0,1-2.453-2.452l0-25.793a6.2,6.2,0,0,1,1.829-4.415l21.406-21.406a6.206,6.206,0,0,1,4.415-1.828h25.8a2.451,2.451,0,0,1,1.733,4.185l-4.839,4.839a2.35,2.35,0,0,1-1.672.692h-4.293l-.819.819h.461a1.993,1.993,0,0,1,1.409,3.4l-2.234,2.235a2.349,2.349,0,0,1-1.672.693h-4.293l-.819.819h.461a1.993,1.993,0,0,1,1.408,3.4l-2.234,2.233a2.374,2.374,0,0,1-1.671.693h-4.294l-.819.818h.461a1.993,1.993,0,0,1,1.409,3.4l-26.94,26.94A2.445,2.445,0,0,1,1232.85,1516.467Zm25.194-52.628a2.96,2.96,0,0,0-2.1.872l-21.406,21.406a2.956,2.956,0,0,0-.872,2.1l0,23.823,23.374-23.374h-.461a1.993,1.993,0,0,1-1.409-3.4l3.241-3.242a2.4,2.4,0,0,1,1.71-.708h2.727a1.994,1.994,0,0,1-.529-3.2l3.241-3.242a2.4,2.4,0,0,1,1.709-.708h2.727a1.995,1.995,0,0,1-.529-3.2l3.242-3.242a2.431,2.431,0,0,1,1.709-.708h4.272l3.182-3.182Zm6.081,17.745h0Z" transform="translate(-1143.694 -1452.063)" fill="#1d2b4c"/>
              <path id="Path_141" data-name="Path 141" d="M1129.37,1548.909h-38.1a1.994,1.994,0,0,1-1.408-3.4l.325-.324h-1.158l-3.036,3.036a2.354,2.354,0,0,1-1.672.692h-3.161a1.993,1.993,0,0,1-1.409-3.4l.326-.326h-1.159l-3.036,3.036a2.353,2.353,0,0,1-1.671.692h-3.161a1.993,1.993,0,0,1-1.41-3.4l.327-.326h-1.159l-3.036,3.036a2.354,2.354,0,0,1-1.672.692h-6.843a2.451,2.451,0,0,1-1.733-4.184l18.24-18.24a6.2,6.2,0,0,1,4.414-1.829h30.273a6.206,6.206,0,0,1,4.415,1.829l18.237,18.24a2.451,2.451,0,0,1-1.733,4.184Zm-35.024-3.267H1127.4l-16.844-16.846a2.958,2.958,0,0,0-2.105-.872h-30.273a2.958,2.958,0,0,0-2.1.871l-16.847,16.847h4.5l3.02-3.02a2.433,2.433,0,0,1,1.709-.708h4.585a2,2,0,0,1,1.888,2.636l1.928-1.928a2.407,2.407,0,0,1,1.71-.708h4.584a1.995,1.995,0,0,1,1.888,2.636l1.928-1.928a2.407,2.407,0,0,1,1.709-.708h4.584a1.994,1.994,0,0,1,1.411,3.4Z" transform="translate(-1054.806 -1484.504)" fill="#1d2b4c"/>
              <path id="Path_142" data-name="Path 142" d="M1168.394,1516.467a2.445,2.445,0,0,1-1.73-.718l-26.941-26.941a1.994,1.994,0,0,1,1.41-3.4h.461l-.819-.818h-4.294a2.348,2.348,0,0,1-1.671-.693l-2.235-2.235a1.993,1.993,0,0,1,1.409-3.4h.461l-.819-.819h-4.294a2.348,2.348,0,0,1-1.672-.693l-2.235-2.235a1.993,1.993,0,0,1,1.41-3.4h.46l-.819-.819h-4.294a2.349,2.349,0,0,1-1.671-.692l-4.84-4.839a2.452,2.452,0,0,1,1.734-4.184H1143.2a6.207,6.207,0,0,1,4.415,1.828l21.406,21.407a6.2,6.2,0,0,1,1.829,4.416l0,25.792a2.444,2.444,0,0,1-1.512,2.265A2.469,2.469,0,0,1,1168.394,1516.467Zm-24.187-27.8,23.374,23.375,0-23.824a2.956,2.956,0,0,0-.872-2.1l-21.406-21.407a2.96,2.96,0,0,0-2.1-.872h-23.826l3.182,3.182h4.272a2.432,2.432,0,0,1,1.709.708l3.242,3.242a1.994,1.994,0,0,1-.529,3.2h2.727a2.4,2.4,0,0,1,1.709.708l3.242,3.242a1.994,1.994,0,0,1-.529,3.2h2.727a2.4,2.4,0,0,1,1.709.708l3.242,3.242a1.993,1.993,0,0,1-1.41,3.4Z" transform="translate(-1085.254 -1452.063)" fill="#1d2b4c"/>
              <path id="Path_143" data-name="Path 143" d="M1199.814,1474.835a2.644,2.644,0,0,1-1.1-.242l-.266-.122-9.33-9.331a1.994,1.994,0,0,1,1.409-3.4h.459l-.817-.816h-4.3a2.346,2.346,0,0,1-1.669-.693l-2.237-2.236a1.993,1.993,0,0,1,1.41-3.4h.461l-.82-.82h-4.292a2.382,2.382,0,0,1-1.673-.693l-5.743-5.743-.123-.269a2.636,2.636,0,0,1,2.4-3.724l52.436.009a2.635,2.635,0,0,1,2.222,4.054l-.218.27-5.4,5.4a2.349,2.349,0,0,1-1.673.693h-4.292l-.819.82h.462a1.992,1.992,0,0,1,1.409,3.4l-2.229,2.232a2.383,2.383,0,0,1-1.677.7h-4.293l-.817.816h.459a1.995,1.995,0,0,1,1.411,3.4l-9.336,9.281A2.615,2.615,0,0,1,1199.814,1474.835ZM1193.6,1465l6.24,6.239,6.239-6.239h-.462a1.992,1.992,0,0,1-1.409-3.4l3.241-3.241a2.4,2.4,0,0,1,1.71-.708h2.726a2,2,0,0,1-.53-3.2l3.241-3.24a2.4,2.4,0,0,1,1.709-.709h4.272l3.886-3.886-49.26-.008,3.894,3.895h4.272a2.4,2.4,0,0,1,1.709.709l3.242,3.24a2,2,0,0,1-.53,3.2h2.729a2.4,2.4,0,0,1,1.712.711l3.24,3.239a1.993,1.993,0,0,1-1.409,3.4Zm-3.68-4.333,0,0Zm26.99-7.153,0,0Z" transform="translate(-1113.601 -1443.339)" fill="#1d2b4c"/>
            </g>
            <path id="Path_144" data-name="Path 144" d="M490.068,1472.438h-1.78l-.834-.67a45.74,45.74,0,0,0-56.975,0l-.838.673h-1.773a5.988,5.988,0,0,0-5.55,3.711l-22.245,53.893h28.036l-.345-4.108a1.635,1.635,0,0,0-1.629-1.5H405.92l1.8-4.356h15.609a1.635,1.635,0,0,0,1.632-1.7l-.229-5.445a1.635,1.635,0,0,0-1.632-1.565H411.314l1.8-4.356h10.215a1.634,1.634,0,0,0,1.631-1.715l-.272-5.445a1.635,1.635,0,0,0-1.632-1.552h-6.347l8.629-20.906a2.73,2.73,0,0,1,2.531-1.691h.955l4.008,25.582s0,.009,0,.013,0,.017,0,.025l1.4,7.706h-.608a4.69,4.69,0,0,0-4.4,6.311l3.593,9.755a1.634,1.634,0,0,0,.736.862l4.137,2.311c.011.006.023.008.034.014l.319,1.759h3.319L436.4,1502.67h46.367l-4.83,27.375h3.318l.3-1.687a1.61,1.61,0,0,0,.286-.127l3.7-2.311a1.627,1.627,0,0,0,.667-.821l3.594-9.755a4.689,4.689,0,0,0-4.4-6.311h-.433l1.361-7.713c0-.021,0-.044,0-.066s.01-.024.012-.038l2.834-25.512h.893a2.728,2.728,0,0,1,2.53,1.693l8.629,20.906h-6.368a1.634,1.634,0,0,0-1.631,1.552l-.273,5.445a1.634,1.634,0,0,0,1.632,1.715h10.236l1.8,4.356H494.815a1.635,1.635,0,0,0-1.632,1.565l-.229,5.445a1.634,1.634,0,0,0,1.633,1.7h15.63l1.8,4.356H491.778a1.634,1.634,0,0,0-1.628,1.5l-.346,4.108h28.058l-22.244-53.893A5.986,5.986,0,0,0,490.068,1472.438Zm-65.433,55.27.183,2.177H403.673l.9-2.177Zm-3.1-13.068.091,2.178H409.066l.9-2.178Zm-.031-13.068.109,2.178H414.46l.9-2.178Zm52.219-33.861q1.024.378,2.031.808l-1.51,12.642H472.09Zm-15.134-2.627c.726-.006,1.453,0,2.178.031v15.98l-2.178.038Zm-12.858,2.1,1.7,13.978h-2.152l-1.584-13.258C444.363,1467.643,445.043,1467.406,445.728,1467.182Zm-8.754,56.945-1.3-.724-3.384-9.189a1.422,1.422,0,0,1,1.335-1.914h1.2ZM485.4,1512.3a1.422,1.422,0,0,1,1.336,1.914l-3.4,9.231-1.024.641,2.08-11.786Zm-2.143-12.9H435.842l-3.862-24.65.546-.439a41.5,41.5,0,0,1,8.035-5.058l1.64,13.732a1.633,1.633,0,0,0,1.622,1.44h5.445a1.633,1.633,0,0,0,1.622-1.83l-1.978-16.318a42.623,42.623,0,0,1,6.409-1.045v17.561a1.632,1.632,0,0,0,1.633,1.633h.029l5.445-.095a1.634,1.634,0,0,0,1.6-1.634v-17.32a42.592,42.592,0,0,1,6.523,1.3l-1.929,15.916a1.633,1.633,0,0,0,1.622,1.83h5.445a1.633,1.633,0,0,0,1.621-1.44l1.549-12.976a41.53,41.53,0,0,1,6.544,4.3l.583.469Zm31.008,30.483H493.1l.183-2.177h20.083Zm-5.394-13.068H496.291l.091-2.178H507.97Zm-5.394-13.068H496.3l.109-2.178h6.163Z" transform="translate(-202.53 -740.018)" fill="#1d2b4c"/>
            <path id="Path_145" data-name="Path 145" d="M459.866,453.39a54.165,54.165,0,0,1-5.847-1.569,49.15,49.15,0,0,1-5.466-2.231c-1.37-.653-2.295-1.195-2.3-1.2L442.7,446.3l1.707,3.747c0,.009.435.955.993,2.431a44.854,44.854,0,0,1,1.714,5.628,46.071,46.071,0,0,1,1.025,5.945c.177,1.641.233,2.791.234,2.8l.108,2.246,4.236-2.719a50.209,50.209,0,0,0,4.786-3.826,43.616,43.616,0,0,0,4.221-4.42,23.684,23.684,0,0,0,1.78-2.275l1.148-1.734-2.062-.272C462.578,453.854,461.456,453.7,459.866,453.39Zm-.131,3.075a41.115,41.115,0,0,1-3.993,4.18,47.681,47.681,0,0,1-4.484,3.587l-.458.293c-.022-.234-.048-.482-.075-.743a48.764,48.764,0,0,0-1.082-6.278,48.023,48.023,0,0,0-1.556-5.26,51.5,51.5,0,0,0,5.107,2.042,56.872,56.872,0,0,0,6.156,1.651c.251.05.491.1.717.138C459.962,456.2,459.852,456.33,459.735,456.464Zm-5.344-16.56,2.231,1.627a25.9,25.9,0,0,1,2.175,1.98l.1.094a49.692,49.692,0,0,1,5.666,6.75l1.22,1.8,1.006-1.924c.021-.041.532-1.018,1.23-2.577l1.046-2.625a11.355,11.355,0,0,0,.363-1.088l.655-2.445a56.616,56.616,0,0,0,1.08-5.7c.215-1.583.291-2.686.293-2.733l.147-2.162-1.976.889c-.01,0-1.039.465-2.582,1.024a55.451,55.451,0,0,1-5.794,1.747,65.512,65.512,0,0,1-8.459,1.467l-3.748.359,3.17,2.03C452.218,438.422,453.116,439,454.391,439.9Zm7.478-2.819a58.141,58.141,0,0,0,6.061-1.828c.251-.091.489-.18.711-.264-.019.147-.038.3-.059.454a53.682,53.682,0,0,1-1.025,5.413l-.625,2.335c-.087.291-.179.615-.276.843l-1.035,2.6c-.074.163-.145.32-.214.471a48.523,48.523,0,0,0-4.7-5.366l-.089-.088a28.121,28.121,0,0,0-2.433-2.2l-1.754-1.28C457.988,437.928,459.923,437.574,461.869,437.084Zm-43.254-10.305a18.049,18.049,0,0,0-11.208,3.921l-5.662,4.513a49.092,49.092,0,0,0-.417-6.608l6.293-2.624a4.1,4.1,0,0,0,2.509-4.4l-3.26-22.111a4.08,4.08,0,0,0-3.151-3.405l-5.425-1.235a1.3,1.3,0,1,0-.577,2.534l5.426,1.235a1.5,1.5,0,0,1,1.156,1.25l3.26,22.111a1.5,1.5,0,0,1-.92,1.615l-5.789,2.367c-1.323-5.961-4.457-11.639-11.579-14.8a14.606,14.606,0,0,0-8.574-10.657,14.454,14.454,0,0,0,3.129-9.293,1.3,1.3,0,0,0-2.6,0c0,3.561-1.3,6.775-3.325,8.4a14.029,14.029,0,0,0-5.434-.092c-1.956-1.651-3.208-4.829-3.208-8.313a1.3,1.3,0,1,0-2.6,0,14.444,14.444,0,0,0,2.947,9.114,14.607,14.607,0,0,0-9,11.028q-8.689,4.106-11.314,14.288l-5.014-2.051a1.5,1.5,0,0,1-.92-1.614l3.259-22.111a1.5,1.5,0,0,1,1.156-1.251l5.426-1.235a1.3,1.3,0,1,0-.577-2.534l-5.426,1.235a4.082,4.082,0,0,0-3.151,3.4l-3.26,22.111a4.1,4.1,0,0,0,2.509,4.4l5.448,2.228a42.3,42.3,0,0,0-.567,6.9l-5.532-4.409a18.054,18.054,0,0,0-11.21-3.921H270.029v1.3c0,29.486,24.449,54.4,53.387,54.4h22.73L340.09,484a4.106,4.106,0,0,0-2.974,5l4.626,18.015a1.509,1.509,0,0,1-.408,1.454l-2.088,2.035a1.3,1.3,0,0,0,1.814,1.862l2.088-2.035a4.117,4.117,0,0,0,1.112-3.962l-4.626-18.015a1.507,1.507,0,0,1,1.091-1.836l7.516-1.895c4.906,13.079,13.342,24.232,26.717,24.232,14.005,0,22.268-11.516,26.947-24.5l8.577,2.162a1.508,1.508,0,0,1,1.091,1.836l-4.627,18.015a4.118,4.118,0,0,0,1.112,3.962l2.088,2.035a1.3,1.3,0,0,0,1.815-1.862l-2.089-2.035a1.511,1.511,0,0,1-.408-1.454l4.627-18.015a4.107,4.107,0,0,0-2.974-5l-6.058-1.527h21.577c28.939,0,53.387-24.911,53.387-54.4v-1.3Zm-9.589,5.953a15.441,15.441,0,0,1,9.589-3.354h26.124c-4.234,10.961-14.539,18.4-26,18.4H406.884a20.181,20.181,0,0,0-4.636-9.641Zm-34.075-30.847a12.04,12.04,0,0,1,11.369,8.172,39.3,39.3,0,0,0-11.369-1.481,37.026,37.026,0,0,0-11.4,1.6A12.008,12.008,0,0,1,374.951,401.885Zm0,9.291c21.264,0,24.179,12.166,24.194,24.1-5.457-4.072-13.57-6.165-24.188-6.165s-18.726,2.091-24.182,6.16C350.806,418.834,358.489,411.176,374.951,411.176Zm-.027,32.06L366.3,432.255a63.935,63.935,0,0,1,8.661-.545,64.961,64.961,0,0,1,8.075.472Zm-33.9-10.5,6.7,5.337a20.168,20.168,0,0,0-4.692,9.706h-11.72c-11.422,0-21.368-7.287-25.582-18.4h25.708A15.446,15.446,0,0,1,341.026,432.732Zm-68.381-3.354h30.3c4.379,12.646,15.522,21,28.364,21h11.343q-.134,1.407-.135,2.9a94.917,94.917,0,0,0,2.373,19.989l-.136-.154a22.279,22.279,0,0,1-1.546-2.052,45.685,45.685,0,0,1-3.076-5.193,43.937,43.937,0,0,1-2.338-5.39c-.526-1.482-.809-2.483-.811-2.493l-1.113-3.954-1.365,3.874c0,.01-.357,1.01-.982,2.429a50.423,50.423,0,0,1-2.721,5.223,51.887,51.887,0,0,1-3.456,4.96c-1.019,1.306-1.764,2.1-1.771,2.111l-1.172,1.252-.528-1.013c0-.01-.532-1.024-1.211-2.541a45.762,45.762,0,0,1-2.11-5.653,43.976,43.976,0,0,1-1.348-5.718c-.256-1.552-.358-2.589-.359-2.6l-.4-4.086-2.025,3.571c-.005.009-.529.931-1.4,2.217a50.183,50.183,0,0,1-3.6,4.66,52.061,52.061,0,0,1-4.277,4.272c-1.234,1.1-2.108,1.758-2.116,1.765l-1.737,1.293,1.957.925c.042.02,1.063.5,2.61,1.046a40.958,40.958,0,0,0,5.935,1.726,49.057,49.057,0,0,0,6.158.911l4.957.2-.044-.084,20.5.544c.377,1.52.8,3.043,1.255,4.556H323.416C296.311,479.876,273.348,456.885,272.646,429.378Zm68.473,43.229-11.856-.315.133-.169a54.522,54.522,0,0,0,3.635-5.222,53.716,53.716,0,0,0,2.571-4.848,50.524,50.524,0,0,0,5.465,10.479C341.083,472.558,341.1,472.583,341.118,472.608Zm-20.508-.523-.47-.019a46.818,46.818,0,0,1-5.774-.857,38.446,38.446,0,0,1-5.594-1.625c-.156-.054-.305-.109-.448-.161q.265-.23.558-.492a54.466,54.466,0,0,0,4.5-4.5,53.474,53.474,0,0,0,3.387-4.317,50.445,50.445,0,0,0,3.528,11.278Q320.46,471.759,320.61,472.085Zm24.509-18.805c0-11.184,6.131-18.061,18.258-20.532l10.248,13.042-4.562,59.558C351.289,499.612,345.119,468.321,345.119,453.28Zm26.5,52.694,3.457-45.124,3.454,45.091a20.148,20.148,0,0,1-3.576.32A19.507,19.507,0,0,1,371.622,505.973Zm9.47-.674-4.583-59.829,9.416-12.836c12.529,2.365,18.87,9.277,18.87,20.646C404.795,468.889,398.846,499.506,381.092,505.3Zm45.543-25.423H403.367c.448-1.518.851-3.041,1.214-4.553l20.6-.548-.044.085,5.031-.208a49,49,0,0,0,6.067-.9,40.976,40.976,0,0,0,5.909-1.715c1.589-.561,2.609-1.041,2.652-1.061l1.957-.926-1.737-1.293c-.008-.007-.882-.66-2.119-1.768a51.826,51.826,0,0,1-4.271-4.265,50.165,50.165,0,0,1-3.6-4.661c-.868-1.288-1.393-2.211-1.4-2.22l-2.028-3.57-.4,4.087c0,.01-.1,1.046-.359,2.606a44.033,44.033,0,0,1-1.351,5.72,45.972,45.972,0,0,1-2.109,5.65c-.672,1.505-1.2,2.526-1.207,2.535l-.527,1.013-1.174-1.252c-.007-.008-.753-.805-1.775-2.114a51.839,51.839,0,0,1-3.448-4.953,49.877,49.877,0,0,1-2.723-5.225c-.626-1.421-.98-2.42-.983-2.431l-1.362-3.875-1.114,3.953c0,.009-.287,1.011-.816,2.5a43.835,43.835,0,0,1-2.34,5.391,45.458,45.458,0,0,1-3.074,5.188,22.587,22.587,0,0,1-1.542,2.048l-.279.316a100.2,100.2,0,0,0,2.379-20.152q0-1.5-.134-2.9h11.48c12.865,0,24.4-8.531,28.778-21h29.888C476.7,456.885,453.74,479.876,426.635,479.876Zm-17.7-7.269.048-.07a50.587,50.587,0,0,0,5.469-10.484,52.579,52.579,0,0,0,2.573,4.853,54.534,54.534,0,0,0,3.629,5.212l.136.174Zm20.508-.525q.149-.321.31-.682a50.613,50.613,0,0,0,3.531-11.285,53.44,53.44,0,0,0,3.391,4.322,54.182,54.182,0,0,0,4.492,4.489c.2.177.384.342.562.5l-.49.177a38.561,38.561,0,0,1-5.569,1.614,46.808,46.808,0,0,1-5.682.847Zm-123.8-22.033,1.706-3.744L303.8,448.39c-.009.005-.934.547-2.309,1.2a49.562,49.562,0,0,1-5.458,2.227,54.246,54.246,0,0,1-5.84,1.568c-1.6.317-2.722.466-2.734.467l-2.059.272,1.145,1.734A23.372,23.372,0,0,0,288.3,458.1a43.5,43.5,0,0,0,4.25,4.454,50.146,50.146,0,0,0,4.845,3.868l4.181,2.681.108-2.246c0-.011.056-1.161.234-2.809a45.928,45.928,0,0,1,1.027-5.949,44.636,44.636,0,0,1,1.714-5.624C305.21,451,305.639,450.059,305.645,450.049Zm-5.234,7.444a48.641,48.641,0,0,0-1.083,6.282c-.029.264-.054.516-.077.752l-.4-.258a47.532,47.532,0,0,1-4.543-3.629,41.066,41.066,0,0,1-4.021-4.214c-.1-.12-.205-.238-.3-.351q.345-.064.729-.14a56.9,56.9,0,0,0,6.148-1.65,51.377,51.377,0,0,0,5.1-2.041A47.449,47.449,0,0,0,300.411,457.493ZM291.165,443.6l.1-.1a25.734,25.734,0,0,1,2.138-1.95l2.243-1.638c1.29-.916,2.187-1.492,2.2-1.5l3.172-2.031-3.749-.357a65.44,65.44,0,0,1-8.472-1.47,55.32,55.32,0,0,1-5.786-1.746c-1.539-.556-2.567-1.018-2.577-1.022l-1.977-.89.147,2.162c0,.046.078,1.15.293,2.732a56.582,56.582,0,0,0,1.084,5.713l.395,1.532.256.9c.116.387.235.787.352,1.061l1.079,2.7c.677,1.507,1.185,2.484,1.207,2.525l1.006,1.926,1.22-1.8A49.777,49.777,0,0,1,291.165,443.6Zm-6.713,3.088-1.068-2.679c-.085-.2-.178-.525-.284-.879l-.6-2.256a53.551,53.551,0,0,1-1.029-5.429c-.021-.155-.041-.307-.059-.452q.333.126.707.261a58.084,58.084,0,0,0,6.054,1.827c1.953.491,3.89.846,5.454,1.09l-1.781,1.3a27.965,27.965,0,0,0-2.4,2.172l-.094.092a48.611,48.611,0,0,0-4.71,5.372C284.581,446.973,284.518,446.833,284.452,446.688Zm90.746-65.97a17.6,17.6,0,1,0-17.6-17.6A17.622,17.622,0,0,0,375.2,380.718Zm0-32.605a15,15,0,1,1-15,15A15.02,15.02,0,0,1,375.2,348.112Zm0,30.253a15.25,15.25,0,1,1,15.251-15.25A15.268,15.268,0,0,1,375.2,378.365Zm0-30.006a14.756,14.756,0,1,0,14.757,14.756A14.773,14.773,0,0,0,375.2,348.359Z" transform="translate(-136.698 -174.91)" fill="#1d2b4c"/>
            <g id="Group_8533" data-name="Group 8533" transform="translate(684.759 254.45)">
              <path id="Path_146" data-name="Path 146" d="M1545.605,532.54a1.752,1.752,0,0,0,.3,2.459,1.755,1.755,0,0,0,2.46-.3l10.9-13.9,11.653,13.22-12.794.091a1.752,1.752,0,0,0-1.217,3,1.814,1.814,0,0,0,1.242.5l12.2-.087,1.932,2.356v-9.616L1559.1,515.324Z" transform="translate(-1467.008 -515.324)" fill="#1d2b4c"/>
              <path id="Path_147" data-name="Path 147" d="M1473.252,593.727l-4.17,4.933-16.868-20.022,14.817-16.216a1.752,1.752,0,0,0-.112-2.475,1.762,1.762,0,0,0-1.261-.457,1.742,1.742,0,0,0-1.214.568l-14.507,15.878-11.6-13.77-51.533,61.186h105.267V616Zm-65.01,26.121,3.028-3.586h5.992a1.752,1.752,0,0,0,0-3.5h-3.034l4.25-5.032h4.137l10.25,12.122Zm29.211,0-13.212-15.626h-7.39l-13.2,15.626h-9.317l44-52.242,28.446,33.77-15.614,18.473Zm18.307,0,3.642-4.309h8.229a1.752,1.752,0,0,0,0-3.5h-5.266l2.4-2.844h4.165a1.752,1.752,0,0,0,0-3.5h-1.2l5.522-6.533,17.492,20.693Z" transform="translate(-1386.808 -537.682)" fill="#1d2b4c"/>
            </g>
            <path id="Path_148" data-name="Path 148" d="M31.165,559.17,19.518,573.325l-4.081-4.82L2.573,552.819l1.035-.007a1.249,1.249,0,0,0,.928-2.075L0,545.59v9.616l12.744,15.541,11.869,14.019L2.082,611.422,0,608.959v7.356H79.362ZM5.494,612.812l21.416-25.335,21.449,25.335Zm16.324-36.769,9.38-11.4,40.625,48.169H52.95Z" transform="translate(0 -276.196)" fill="#1d2b4c"/>
            <g id="Group_8534" data-name="Group 8534" transform="translate(29.418 422.789)">
              <path id="Path_149" data-name="Path 149" d="M172.861,881.837a1.65,1.65,0,0,0,1.648-1.648,20.825,20.825,0,0,1,18.015-20.654,1.649,1.649,0,1,0-.442-3.268,24.119,24.119,0,0,0-20.87,23.921A1.651,1.651,0,0,0,172.861,881.837Z" transform="translate(-116.091 -856.254)" fill="#1d2b4c"/>
              <path id="Path_150" data-name="Path 150" d="M192.391,890.7a13.685,13.685,0,1,0,13.685-13.685A13.7,13.7,0,0,0,192.391,890.7Zm3.3,0a10.388,10.388,0,1,1,10.387,10.388A10.4,10.4,0,0,1,195.688,890.7Z" transform="translate(-126.812 -866.764)" fill="#1d2b4c"/>
              <path id="Path_151" data-name="Path 151" d="M212,934.456a20.849,20.849,0,0,1-28.176-4.379,1.65,1.65,0,0,0-2.315-.282,1.651,1.651,0,0,0-.281,2.314,24.15,24.15,0,0,0,32.635,5.069,1.653,1.653,0,0,0,.43-2.292h0A1.655,1.655,0,0,0,212,934.456Z" transform="translate(-120.984 -893.305)" fill="#1d2b4c"/>
              <path id="Path_152" data-name="Path 152" d="M224.419,859.539a20.825,20.825,0,0,1,16.61,13.17,1.649,1.649,0,1,0,3.079-1.184,24.128,24.128,0,0,0-19.241-15.253,1.649,1.649,0,0,0-.447,3.267Z" transform="translate(-142.304 -856.255)" fill="#1d2b4c"/>
              <path id="Path_153" data-name="Path 153" d="M257.431,903.037a20.634,20.634,0,0,1-4.418,12.833,1.649,1.649,0,0,0,2.6,2.032,23.9,23.9,0,0,0,5.118-14.865,1.649,1.649,0,1,0-3.3,0Z" transform="translate(-157.325 -879.102)" fill="#1d2b4c"/>
              <path id="Path_154" data-name="Path 154" d="M269.265,1034a1.648,1.648,0,1,0,0,3.3h11.125a1.648,1.648,0,1,0,0-3.3Z" transform="translate(-164.894 -946.236)" fill="#1d2b4c"/>
              <path id="Path_155" data-name="Path 155" d="M284.747,1048.5a1.651,1.651,0,0,0,1.649,1.649h11.126a1.649,1.649,0,0,0,0-3.3H286.4A1.651,1.651,0,0,0,284.747,1048.5Z" transform="translate(-173.566 -952.741)" fill="#1d2b4c"/>
              <path id="Path_156" data-name="Path 156" d="M262.894,1027.247h-7.605L180.47,932.424l-38.077,48.571-13.481-22.773a1.945,1.945,0,0,0-1.35-.919l-13.476-2.195a1.63,1.63,0,0,0-.523,0l-13.22,2.179a2.027,2.027,0,0,0-1.416.967L84.236,983.071a1.644,1.644,0,0,0-.08,1.52l7.016,15.4-1.519.866a7.609,7.609,0,0,0-3.515,4.356L78.7,1027.247H61.227a1.649,1.649,0,1,0,0,3.3H77.592l-2.945,8.74a3.279,3.279,0,0,0,1.4,3.859,3.445,3.445,0,0,0,1.853.5h4.733l-.458,2.173a3.293,3.293,0,0,0,3.294,4h18.139a3.313,3.313,0,0,0,3.249-4l-.453-2.171h15.879l-.458,2.17a3.33,3.33,0,0,0,.993,3.117,3.456,3.456,0,0,0,2.374.881h17.955a3.455,3.455,0,0,0,2.377-.886,3.326,3.326,0,0,0,.99-3.113l-.458-2.17h3.79a3.391,3.391,0,0,0,1.843-.5,3.331,3.331,0,0,0,1.368-3.853l-2.952-8.741H262.894a1.649,1.649,0,1,0,0-3.3ZM96.739,983.909a1.651,1.651,0,0,0-1.65-1.649l-6.544.013,10.337-17.466v9.649a15.4,15.4,0,0,0,1.106,5.746l3.485,8.719-3.019,5.784-6.411,3.653L88.221,985.57l6.877-.013A1.647,1.647,0,0,0,96.739,983.909Zm42.316,58.467a1.651,1.651,0,0,0-1.649,1.649v2.488h-1.775v-2.488a1.649,1.649,0,1,0-3.3,0v2.488h-1.768v-2.488a1.649,1.649,0,1,0-3.3,0v2.483l-2.214-.022.979-4.658a3.146,3.146,0,0,1,3.06-2.477h10.152a3.146,3.146,0,0,1,3.059,2.476l.983,4.667a.072.072,0,0,1-.009.013l-2.575.007v-2.488A1.651,1.651,0,0,0,139.055,1042.376Zm-39.54,0a1.651,1.651,0,0,0-1.649,1.649v2.488H96.1v-2.488a1.649,1.649,0,1,0-3.3,0v2.488H91.026v-2.488a1.649,1.649,0,1,0-3.3,0v2.483l-2.324-.023.979-4.66a3.131,3.131,0,0,1,3.052-2.475H99.6a3.131,3.131,0,0,1,3.052,2.476l.985,4.647c0,.023,0,.027,0,.034l-2.465.006v-2.488A1.651,1.651,0,0,0,99.515,1042.376Zm39.731-6.324H129.094a6.435,6.435,0,0,0-6.053,4.292h-3.35l-2.032-19.766h-8.734l-2.025,19.766h-1.252a6.435,6.435,0,0,0-6.053-4.292H89.437a6.446,6.446,0,0,0-6.052,4.292l-5.616,0,3.306-9.8h20.192a1.649,1.649,0,1,0,0-3.3H82.186l1.679-4.977H97.49a1.649,1.649,0,1,0,0-3.3H84.976l4.3-12.737a4.341,4.341,0,0,1,2.01-2.508l11.645-6.639,3.219-6.159h15.177l3.431,6.177,11.645,6.619a4.352,4.352,0,0,1,2.014,2.543l4.292,12.7H129.934a1.649,1.649,0,1,0,0,3.3h13.891l1.679,4.977H125.966a1.649,1.649,0,1,0,0,3.3h20.656l3.313,9.8-4.635,0A6.435,6.435,0,0,0,139.246,1036.052Zm37.943-75.561a1.649,1.649,0,0,0,0,3.3h23.83l31.509,39.938H216.036a1.649,1.649,0,0,0,0,3.3h19.1l15.954,20.223h-102.1l-7.438-21.986a7.56,7.56,0,0,0-3.521-4.4l-1.12-.635,6.726-15.461,36.839-47.008,17.942,22.735Zm-43.854,21.784a1.649,1.649,0,0,0,.008,3.3l6.346-.006-5.662,13.023-6.835-3.894-2.986-5.37,3.406-9.354a15.616,15.616,0,0,0,.922-5.286V964.062l10.781,18.206Zm-8.1-7.59a11.972,11.972,0,0,1-.733,4.158l-3.19,8.792h-14.8l-3.456-8.662a12.061,12.061,0,0,1-.873-4.516V960.328l6.061-.993,2.742,11.4h6.1l2.318-11.422,5.835.945ZM111.9,1023.875h2.779l1.691,16.469h-6.155Zm2.486-56.435h-.812L111.5,958.8l2.352-.385,2.291.367Z" transform="translate(-59.578 -894.814)" fill="#1d2b4c"/>
              <path id="Path_157" data-name="Path 157" d="M359.921,1093.748h11.125a1.649,1.649,0,0,0,0-3.3H359.921a1.649,1.649,0,0,0,0,3.3Z" transform="translate(-210.787 -974.812)" fill="#1d2b4c"/>
            </g>
            <g id="Group_8535" data-name="Group 8535" transform="translate(31.832 659.352)">
              <path id="Path_158" data-name="Path 158" d="M192.153,1386.6a33.316,33.316,0,0,1-5.587-3.995c-5.541-4.525-12.436-10.158-28.556-11.456-17.373-1.4-31.676,5.73-41.142,10.448-4.02,2-7.492,3.733-9.22,3.745H66.374a1.906,1.906,0,1,0,0,3.811h40.812a117.764,117.764,0,0,0,44.526,10.783c-7.917,14.082-28.051,27.667-56.913,27.667-12.337,0-25.14-3.258-25.932-10.537a3.682,3.682,0,0,1,1.315-3.522,4.5,4.5,0,0,1,4.168-.586,2.693,2.693,0,0,1,1.6,1.6,2.9,2.9,0,0,1-.566,2.483,1.906,1.906,0,1,0,3.179,2.1,6.26,6.26,0,0,0-2.836-9.733,8.258,8.258,0,0,0-7.869,1.113,7.405,7.405,0,0,0-2.784,6.958c1.118,10.275,16.086,13.936,29.721,13.936,31.632,0,53.456-15.733,61.21-31.452q2.236-.038,4.509-.192v16.887a1.906,1.906,0,1,0,3.811,0v-17.23a72.991,72.991,0,0,0,27.91-8.87,2.249,2.249,0,0,0-.086-3.958Zm-35.816-11.3a7.618,7.618,0,1,1-7.618,7.618A7.627,7.627,0,0,1,156.337,1375.3Zm-43.153,12.3c1.583-.694,3.366-1.583,5.383-2.587,7.226-3.6,17.4-8.653,29.459-9.917a11.431,11.431,0,1,0,17.439.973c9.593,2.071,14.552,6.113,18.689,9.492,1.288,1.052,2.532,2.068,3.828,2.963C158.921,1403.363,125.345,1392.49,113.184,1387.6Z" transform="translate(-64.468 -1353.385)" fill="#1d2b4c"/>
              <path id="Path_159" data-name="Path 159" d="M66.373,1354.793h.021c1.173-.013,28.851-.347,41.368-3.832,2.087-.581,4.881-1.69,8.116-2.973,8.857-3.514,22.242-8.824,35.381-8.824,24.709,0,38.858,11.223,39.01,11.346a1.906,1.906,0,0,0,2.407-2.956c-.611-.5-15.26-12.2-41.417-12.2-13.867,0-27.66,5.471-36.786,9.093-3.135,1.243-5.841,2.317-7.733,2.844-12.037,3.35-40.1,3.689-40.387,3.693a1.906,1.906,0,0,0,.02,3.811Z" transform="translate(-64.468 -1335.352)" fill="#1d2b4c"/>
            </g>
            <g id="Group_8536" data-name="Group 8536" transform="translate(208.643 372.595)">
              <path id="Path_160" data-name="Path 160" d="M583.671,803.957l1.83,1.412h0a35.918,35.918,0,0,1,6.492,6.5l1.41,1.826,10.39-20.1-19.951,10.274Zm13.284-3.535-4.076,7.885a39.151,39.151,0,0,0-3.818-3.82Z" transform="translate(-504.116 -774.339)" fill="#1d2b4c"/>
              <path id="Path_161" data-name="Path 161" d="M517.821,825.337a24.523,24.523,0,1,0,24.523,24.523A24.551,24.551,0,0,0,517.821,825.337Zm21.8,24.523a21.805,21.805,0,1,1-21.8-21.805A21.83,21.83,0,0,1,539.626,849.86Z" transform="translate(-458.366 -790.408)" fill="#1d2b4c"/>
              <path id="Path_162" data-name="Path 162" d="M448.857,861.125l-22,6.851,21.819,6.794.184.057-.291-2.27a36,36,0,0,1,0-9.162Zm-3.428,9.556-8.689-2.705,8.689-2.7c-.063.9-.095,1.814-.095,2.705S445.367,869.777,445.43,870.681Z" transform="translate(-424.731 -808.525)" fill="#1d2b4c"/>
              <path id="Path_163" data-name="Path 163" d="M592.006,917.53a35.827,35.827,0,0,1-6.492,6.494l-1.823,1.4,20.086,10.457L593.419,915.7Zm-2.94,7.383a38.816,38.816,0,0,0,3.819-3.82l4.066,7.925Z" transform="translate(-504.126 -836.15)" fill="#1d2b4c"/>
              <path id="Path_164" data-name="Path 164" d="M610.139,895.258,623.4,918.875l.092.165,1.352-1.809a59.7,59.7,0,0,0,11.252-27.1l.324-2.235Zm22.68-3.3a57.164,57.164,0,0,1-9,21.66l-9.289-16.538Z" transform="translate(-517.516 -822.078)" fill="#1d2b4c"/>
              <path id="Path_165" data-name="Path 165" d="M467.164,955.435l-.165.093,1.805,1.352a59.581,59.581,0,0,0,27.106,11.253l2.235.324-7.366-26.3Zm21.793-8.879,5.125,18.3a57.022,57.022,0,0,1-21.668-9Z" transform="translate(-445.053 -849.548)" fill="#1d2b4c"/>
              <path id="Path_166" data-name="Path 166" d="M610.134,822.826l26.288,7.357-.324-2.235a59.681,59.681,0,0,0-11.246-27.093l-1.351-1.808L610.211,822.69ZM614.529,821l9.3-16.537a57.149,57.149,0,0,1,8.991,21.655Z" transform="translate(-517.513 -777.1)" fill="#1d2b4c"/>
              <path id="Path_167" data-name="Path 167" d="M481.138,925.452l-1.8-1.4a36.659,36.659,0,0,1-6.507-6.507l-1.4-1.8L460.757,935.96l-.187.353,20.4-10.771Zm-13.524,3.818,4.321-8.182a39.653,39.653,0,0,0,3.861,3.861Z" transform="translate(-441.798 -836.176)" fill="#1d2b4c"/>
              <path id="Path_168" data-name="Path 168" d="M448.839,895.258,422.553,887.9l.324,2.235a59.676,59.676,0,0,0,11.252,27.1l1.352,1.809,13.28-23.645Zm-4.394,1.823-9.289,16.539a57.124,57.124,0,0,1-9-21.66Z" transform="translate(-422.553 -822.077)" fill="#1d2b4c"/>
              <path id="Path_169" data-name="Path 169" d="M614.5,874.827l21.558-6.866L614.5,861.09l.295,2.289a35.97,35.97,0,0,1,0,9.159Zm3.433-9.557,8.443,2.69-8.443,2.689c.062-.9.093-1.8.093-2.689S618,866.165,617.937,865.27Z" transform="translate(-519.725 -808.508)" fill="#1d2b4c"/>
              <path id="Path_170" data-name="Path 170" d="M542.793,946.562l-2.27.287a36.171,36.171,0,0,1-9.159,0l-2.271-.291,6.848,21.956,6.795-21.768Zm-4.148,3.424-2.7,8.661-2.7-8.661A39.147,39.147,0,0,0,538.645,949.986Z" transform="translate(-476.487 -851.774)" fill="#1d2b4c"/>
              <path id="Path_171" data-name="Path 171" d="M490.782,780.884l7.364-26.286-2.235.324a59.638,59.638,0,0,0-27.1,11.245L467,767.519l23.646,13.288Zm-18.363-13.691a57.091,57.091,0,0,1,21.664-8.99l-5.123,18.286Z" transform="translate(-445.054 -754.597)" fill="#1d2b4c"/>
              <path id="Path_172" data-name="Path 172" d="M435.576,799.211l-.093-.165-1.352,1.807a59.61,59.61,0,0,0-11.252,27.095l-.324,2.234,26.288-7.357Zm-9.416,26.91a57.067,57.067,0,0,1,9-21.656L444.447,821Z" transform="translate(-422.553 -777.099)" fill="#1d2b4c"/>
              <path id="Path_173" data-name="Path 173" d="M471.413,813.235l1.392-1.8a35.973,35.973,0,0,1,6.493-6.5l1.816-1.4-20.237-10.612-.354-.185,10.8,20.328Zm4.34-9.193a39.116,39.116,0,0,0-3.849,3.852l-4.323-8.138Z" transform="translate(-441.775 -773.905)" fill="#1d2b4c"/>
              <path id="Path_174" data-name="Path 174" d="M510.549,810.972a31.616,31.616,0,1,0,31.615,31.617A31.652,31.652,0,0,0,510.549,810.972Zm28.676,31.617a28.677,28.677,0,1,1-28.676-28.678A28.709,28.709,0,0,1,539.226,842.589Z" transform="translate(-451.094 -783.136)" fill="#1d2b4c"/>
              <path id="Path_175" data-name="Path 175" d="M531.345,781.2a36.119,36.119,0,0,1,9.158,0l2.291.293-6.873-21.427-6.868,21.431Zm1.895-3.138,2.683-8.37,2.684,8.369A39.4,39.4,0,0,0,533.24,778.062Z" transform="translate(-476.467 -757.365)" fill="#1d2b4c"/>
              <path id="Path_176" data-name="Path 176" d="M563.215,942.163l-7.365,26.3,2.235-.324a59.577,59.577,0,0,0,27.1-11.253L587,955.529,563.352,942.24Zm18.363,13.694a57.04,57.04,0,0,1-21.666,9l5.124-18.3Z" transform="translate(-490.032 -849.549)" fill="#1d2b4c"/>
              <path id="Path_177" data-name="Path 177" d="M586.836,767.612l.166-.092-1.808-1.352A59.676,59.676,0,0,0,558.1,754.921l-2.235-.324,7.355,26.287Zm-21.794,8.877L559.926,758.2a57.115,57.115,0,0,1,21.655,8.991Z" transform="translate(-490.04 -754.597)" fill="#1d2b4c"/>
            </g>
            <g id="Group_8537" data-name="Group 8537" transform="translate(694.549 11.851)">
              <path id="Path_178" data-name="Path 178" d="M1459.165,72.2c4.252-9.024,6.188-17.231,6.188-21.038,0-8.96-7.541-16.25-16.81-16.25s-16.81,7.289-16.81,16.25c0,3.842,1.928,12.083,6.162,21.1,3.876,8.254,7.714,12.776,9.824,14.14l.807.522.8-.53C1451.438,85,1455.278,80.45,1459.165,72.2Zm3.242-21.038c0,3.489-1.848,11.168-5.907,19.784-3.663,7.774-6.7,11.138-7.983,12.33-1.909-1.77-4.949-5.865-7.957-12.27-4.041-8.605-5.882-16.319-5.882-19.844,0-7.336,6.22-13.3,13.865-13.3S1462.407,43.825,1462.407,51.161Zm26.563,32.213-28.831,3.579c7.16-10.408,13.6-28.232,13.6-37.75a25.2,25.2,0,1,0-50.4,0c0,8.733,5.777,26.607,13.561,37.81l-30.27-3.633v17.831l36.757-3.469-4.67,72.316,19.645.01L1453.7,97.8l35.274,3.41Zm-47.108,83.739,4.672-72.34.019-.289-36.975,3.489V86.7l33.958,4.076-2.608-3.278c-7.885-9.908-14.64-29.338-14.64-38.3a22.255,22.255,0,1,1,44.509,0c0,8.875-6.775,28.268-14.682,38.25l-2.608,3.292,32.517-4.037V97.97l-35.492-3.432,4.691,72.583Z" transform="translate(-1406.634 -24.002)" fill="#1d2b4c"/>
            </g>
          </g>
        </g>
      </g>
      <g id="Subtraction_2" data-name="Subtraction 2" transform="translate(33.707 48.708)" fill="rgba(29,43,76,0.18)" opacity="0.78">
        <path d="M387.5,775a390.3,390.3,0,0,1-78.093-7.872,385.328,385.328,0,0,1-138.563-58.306A388.628,388.628,0,0,1,30.451,538.334,385.562,385.562,0,0,1,7.869,465.6a391.455,391.455,0,0,1,0-156.191A385.457,385.457,0,0,1,66.177,170.844,388.644,388.644,0,0,1,236.666,30.451a385.606,385.606,0,0,1,72.74-22.576,391.195,391.195,0,0,1,156.187,0,385.261,385.261,0,0,1,138.561,58.3A388.58,388.58,0,0,1,744.546,236.667a385.569,385.569,0,0,1,22.583,72.738,391.373,391.373,0,0,1,0,156.191,385.512,385.512,0,0,1-58.308,138.559A388.668,388.668,0,0,1,538.333,744.549a385.626,385.626,0,0,1-72.74,22.578A390.312,390.312,0,0,1,387.5,775Zm0-662.459c-151.614,0-274.959,123.346-274.959,274.96S235.884,662.459,387.5,662.459,662.46,539.113,662.46,387.5,539.114,112.541,387.5,112.541Z" stroke="none"/>
        <path d="M 387.498291015625 774 C 413.7265014648438 774 439.9338989257813 771.3582153320313 465.3923034667969 766.1478881835938 C 490.2066955566406 761.0703125 514.6162719726563 753.4937133789063 537.94287109375 743.6284790039063 C 560.8521118164063 733.9368896484375 582.9403076171875 721.9472045898438 603.5941772460938 707.9923706054688 C 624.0576171875 694.1702880859375 643.3035888671875 678.2916259765625 660.797607421875 660.797607421875 C 678.2838134765625 643.3114013671875 694.1624145507813 624.0659790039063 707.9924926757813 603.5958251953125 C 721.95361328125 582.930908203125 733.9420776367188 560.8427124023438 743.6251220703125 537.9445190429688 C 753.4909057617188 514.627685546875 761.0692138671875 490.2186889648438 766.1494750976563 465.3956909179688 C 771.3587036132813 439.9263916015625 774 413.718994140625 774 387.5015869140625 C 774 361.283203125 771.3587036132813 335.0752868652344 766.1494750976563 309.6061096191406 C 761.072998046875 284.8002014160156 753.4946899414063 260.39111328125 743.6251220703125 237.0569000244141 C 733.9407958984375 214.1558990478516 721.9522705078125 192.0671997070313 707.9924926757813 171.4042053222656 C 694.1621704101563 150.9338073730469 678.2835083007813 131.6884002685547 660.797607421875 114.2024002075195 C 643.3065795898438 96.71320343017578 624.0604858398438 80.83450317382813 603.5941162109375 67.00749969482422 C 582.9403076171875 53.05279922485352 560.8521118164063 41.0630989074707 537.9429931640625 31.37150001525879 C 514.6137084960938 21.50519943237305 490.2041015625 13.92910003662109 465.3923034667969 8.853799819946289 C 439.9284057617188 3.642400026321411 413.7210083007813 1 387.498291015625 1 C 361.2767028808594 1 335.0698852539063 3.642400026321411 309.6059875488281 8.853799819946289 C 284.79150390625 13.93070030212402 260.3818969726563 21.50679969787598 237.0554962158203 31.37150001525879 C 214.1454925537109 41.06460189819336 192.0567016601563 53.05429840087891 171.4026031494141 67.00749969482422 C 150.9306945800781 80.83869934082031 131.6858062744141 96.71730041503906 114.2024002075195 114.2024002075195 C 96.71610260009766 131.6887969970703 80.83689880371094 150.9342956542969 67.00579833984375 171.404296875 C 53.05020141601563 192.05859375 41.06110000610352 214.1473999023438 31.37150001525879 237.0570068359375 C 21.50790023803711 260.3731994628906 13.93019962310791 284.7821960449219 8.848799705505371 309.6059875488281 C 3.640700101852417 335.0697937011719 1 361.2777099609375 1 387.5015869140625 C 1 413.724609375 3.640700101852417 439.931884765625 8.848799705505371 465.3955993652344 C 13.93019962310791 490.2195129394531 21.50790023803711 514.6286010742188 31.37150001525879 537.9447021484375 C 41.05979919433594 560.8511962890625 53.04890060424805 582.9393920898438 67.00579833984375 603.5958251953125 C 80.83399963378906 624.0629272460938 96.71320343017578 643.3084106445313 114.2024002075195 660.797607421875 C 131.6943054199219 678.2894897460938 150.9391937255859 694.1680908203125 171.4026031494141 707.9924926757813 C 192.0567016601563 721.9473876953125 214.1454925537109 733.9370727539063 237.0552978515625 743.6284790039063 C 260.3865966796875 753.4951782226563 284.7962036132813 761.0718994140625 309.6061096191406 766.1478881835938 C 335.0643920898438 771.3582153320313 361.2712097167969 774 387.498291015625 774 M 387.498291015625 111.5412979125977 C 539.664306640625 111.5412979125977 663.4603271484375 235.3365936279297 663.4603271484375 387.5015869140625 C 663.4603271484375 539.6649169921875 539.664306640625 663.4586791992188 387.498291015625 663.4586791992188 C 235.3341979980469 663.4586791992188 111.5397033691406 539.6649169921875 111.5397033691406 387.5015869140625 C 111.5397033691406 235.3365936279297 235.3341979980469 111.5412979125977 387.498291015625 111.5412979125977 M 387.498291015625 775 C 361.2062072753906 775 334.9324951171875 772.3519287109375 309.4056091308594 767.1276245117188 C 284.5318908691406 762.0385131835938 260.0574951171875 754.4417724609375 236.6658020019531 744.5494995117188 C 213.7033996582031 734.8358764648438 191.5547027587891 722.8151245117188 170.8428039550781 708.8211059570313 C 150.3213043212891 694.95751953125 131.0278015136719 679.0371704101563 113.4953002929688 661.5046997070313 C 95.95610046386719 643.9655151367188 80.03749847412109 624.6702880859375 66.17720031738281 604.1555786132813 C 52.18159866333008 583.4420166015625 40.16239929199219 561.2965698242188 30.45050048828125 538.334228515625 C 20.55990028381348 514.9542236328125 12.96310043334961 490.4815063476563 7.869100093841553 465.5960998535156 C 2.648099899291992 440.0692138671875 0 413.7937927246094 0 387.5015869140625 C 0 361.2078857421875 2.648099899291992 334.9324951171875 7.869100093841553 309.4056091308594 C 12.96310043334961 284.5202026367188 20.55990028381348 260.0474853515625 30.45050048828125 236.6674041748047 C 40.16239929199219 213.7050933837891 52.18159866333008 191.5579986572266 66.17720031738281 170.8444061279297 C 80.04080200195313 150.3262939453125 95.95950317382813 131.0312042236328 113.4953002929688 113.4953002929688 C 131.0227966308594 95.96610260009766 150.3179931640625 80.04579925537109 170.8428039550781 66.17890167236328 C 191.5547027587891 52.18659973144531 213.7033996582031 40.16579818725586 236.6658020019531 30.45050048828125 C 260.0574951171875 20.55820083618164 284.5318908691406 12.96310043334961 309.4056091308594 7.874100208282471 C 334.9324951171875 2.649800062179565 361.2062072753906 0 387.498291015625 0 C 413.7904052734375 0 440.0657958984375 2.649800062179565 465.5928039550781 7.874100208282471 C 490.4714050292969 12.96310043334961 514.94580078125 20.55990028381348 538.33251953125 30.45050048828125 C 561.3015747070313 40.16749954223633 583.447021484375 52.18830108642578 604.1538696289063 66.17890167236328 C 624.6719970703125 80.04080200195313 643.9671020507813 95.95950317382813 661.5046997070313 113.4953002929688 C 679.0388793945313 131.0294952392578 694.95751953125 150.32470703125 708.8211059570313 170.8444061279297 C 722.8151245117188 191.5579986572266 734.8358764648438 213.7050933837891 744.5460815429688 236.6674041748047 C 754.4401245117188 260.0592041015625 762.0385131835938 284.5302124023438 767.1292114257813 309.4056091308594 C 772.3502197265625 334.9324951171875 775 361.2078857421875 775 387.5015869140625 C 775 413.7937927246094 772.3502197265625 440.0692138671875 767.1292114257813 465.5960998535156 C 762.0385131835938 490.4697875976563 754.4434814453125 514.9425048828125 744.5460815429688 538.334228515625 C 734.8358764648438 561.2965698242188 722.8151245117188 583.4420166015625 708.8211059570313 604.1555786132813 C 694.95751953125 624.6754150390625 679.0388793945313 643.9705200195313 661.5046997070313 661.5046997070313 C 643.9655151367188 679.0438842773438 624.668701171875 694.9641723632813 604.1538696289063 708.8211059570313 C 583.447021484375 722.8117065429688 561.3015747070313 734.83251953125 538.33251953125 744.5494995117188 C 514.94580078125 754.4401245117188 490.4714050292969 762.0369262695313 465.5928039550781 767.1276245117188 C 440.0657958984375 772.3519287109375 413.7904052734375 775 387.498291015625 775 Z M 387.498291015625 112.5412979125977 C 235.8838958740234 112.5412979125977 112.5397033691406 235.88720703125 112.5397033691406 387.5015869140625 C 112.5397033691406 539.11279296875 235.8838958740234 662.4586791992188 387.498291015625 662.4586791992188 C 539.1143798828125 662.4586791992188 662.4603271484375 539.11279296875 662.4603271484375 387.5015869140625 C 662.4603271484375 235.88720703125 539.1143798828125 112.5412979125977 387.498291015625 112.5412979125977 Z" stroke="none" fill="rgba(0,0,0,0.2)"/>
      </g>
    </g>
  </svg>