<svg xmlns="http://www.w3.org/2000/svg" width="65.364" height="55.861" viewBox="0 0 65.364 55.861">
  <g id="_001-toy" data-name="001-toy" transform="translate(0 -37.217)">
    <path id="Path_70321" data-name="Path 70321" d="M87.745,220.234l-.383.715v5.865h9.227v-5.865l-.383-.715Z" transform="translate(-76.209 -159.652)" fill="#cbe2ff"/>
    <path id="Path_70322" data-name="Path 70322" d="M135.791,220.234v6.58h3.045v-5.865l-.383-.715Z" transform="translate(-118.455 -159.652)" fill="#bed8fb"/>
    <g id="Group_13097" data-name="Group 13097" transform="translate(11.153 57.099)">
      <path id="Path_70323" data-name="Path 70323" d="M96.589,197.151v-2.2a2,2,0,0,0-2-2H89.362a2,2,0,0,0-2,2v2.2Z" transform="translate(-87.362 -192.953)" fill="#e4989d"/>
    </g>
    <g id="Group_13098" data-name="Group 13098" transform="translate(15.336 57.099)">
      <path id="Path_70324" data-name="Path 70324" d="M123.171,192.953h-3.045a2,2,0,0,1,2,2v2.2h3.045v-2.2a2,2,0,0,0-2-2Z" transform="translate(-120.126 -192.953)" fill="#e28086"/>
    </g>
    <g id="Group_13099" data-name="Group 13099" transform="translate(33.794 37.217)">
      <path id="Path_70325" data-name="Path 70325" d="M276.9,38.273,264.941,60.857a1.985,1.985,0,0,0,1.754,2.914h23.912a1.985,1.985,0,0,0,1.754-2.914L280.406,38.273a1.985,1.985,0,0,0-3.509,0Z" transform="translate(-264.708 -37.217)" fill="#cbe2ff"/>
    </g>
    <path id="Path_70326" data-name="Path 70326" d="M370.378,60.857,358.422,38.273a1.985,1.985,0,0,0-3.509,0l-.772,1.458,11.184,21.126a1.985,1.985,0,0,1-1.754,2.914h5.052A1.985,1.985,0,0,0,370.378,60.857Z" transform="translate(-308.931 0)" fill="#bed8fb"/>
    <g id="Group_13100" data-name="Group 13100" transform="translate(32.035 63.771)">
      <path id="Path_70327" data-name="Path 70327" d="M256.487,256.332h20.287a5.559,5.559,0,0,0,0-11.119H256.487a5.559,5.559,0,0,0,0,11.119Z" transform="translate(-250.928 -245.213)" fill="#b3e59f"/>
    </g>
    <g id="Group_13101" data-name="Group 13101" transform="translate(32.319 64.055)">
      <path id="Path_70328" data-name="Path 70328" d="M280.471,247.439a5.559,5.559,0,0,1-5.275,7.314H254.909a5.554,5.554,0,0,1-1.755-.284,5.561,5.561,0,0,0,5.275,3.8h20.287a5.559,5.559,0,0,0,1.755-10.835Z" transform="translate(-253.154 -247.439)" fill="#95d6a4"/>
    </g>
    <g id="Group_13102" data-name="Group 13102" transform="translate(30.11 74.889)">
      <path id="Path_70329" data-name="Path 70329" d="M239.915,345.712h27.137a4.058,4.058,0,0,0,4.058-4.058v-5.289a4.058,4.058,0,0,0-4.058-4.058H239.915a4.058,4.058,0,0,0-4.058,4.058v5.289A4.058,4.058,0,0,0,239.915,345.712Z" transform="translate(-235.857 -332.307)" fill="#ecb780"/>
    </g>
    <path id="Path_70330" data-name="Path 70330" d="M267.535,332.442c.011.12.017.242.017.365V338.1a4.058,4.058,0,0,1-4.058,4.058H236.358c-.123,0-.245-.006-.366-.017a4.058,4.058,0,0,0,4.041,3.693H267.17a4.058,4.058,0,0,0,4.058-4.058v-5.289A4.058,4.058,0,0,0,267.535,332.442Z" transform="translate(-205.864 -257.535)" fill="#e49542"/>
    <g id="Group_13103" data-name="Group 13103" transform="translate(26.094 58.716)">
      <path id="Path_70331" data-name="Path 70331" d="M215.044,220.031H204.4V205.62h22.838l-4.273,9.328A8.71,8.71,0,0,1,215.044,220.031Z" transform="translate(-204.398 -205.62)" fill="#ffd064"/>
    </g>
    <g id="Group_13104" data-name="Group 13104" transform="translate(32.034 58.716)">
      <path id="Path_70332" data-name="Path 70332" d="M263.119,205.62l-4.273,9.328a8.71,8.71,0,0,1-7.919,5.083h4.706a8.711,8.711,0,0,0,7.919-5.083l4.273-9.328Z" transform="translate(-250.927 -205.62)" fill="#ffc250"/>
    </g>
    <g id="Group_13105" data-name="Group 13105" transform="translate(22.765 56.065)">
      <path id="Path_70333" data-name="Path 70333" d="M201.362,188.632l-2.537.981H180.7a2.377,2.377,0,1,1,0-4.755h22.167a2.378,2.378,0,0,1,.689,4.654A13.035,13.035,0,0,1,201.362,188.632Z" transform="translate(-178.32 -184.858)" fill="#ffd064"/>
    </g>
    <path id="Path_70334" data-name="Path 70334" d="M203.967,186.99a2.377,2.377,0,0,1-2.361,2.105H179.439a2.365,2.365,0,0,1-1.1-.272,2.368,2.368,0,0,0,2.361,2.65h22.167a2.377,2.377,0,0,0,1.1-4.483Z" transform="translate(-155.555 -130.652)" fill="#ffc250"/>
    <g id="Group_13106" data-name="Group 13106" transform="translate(24.955 72.328)">
      <path id="Path_70335" data-name="Path 70335" d="M213.584,321.29h-18.11v-9.043h18.11a1.915,1.915,0,0,1,1.915,1.915v5.213A1.915,1.915,0,0,1,213.584,321.29Z" transform="translate(-195.474 -312.247)" fill="#e4989d"/>
    </g>
    <path id="Path_70336" data-name="Path 70336" d="M319.233,312.248h-2.649a1.915,1.915,0,0,1,1.915,1.915v5.213a1.915,1.915,0,0,1-1.915,1.915h2.649a1.915,1.915,0,0,0,1.915-1.915v-5.213A1.915,1.915,0,0,0,319.233,312.248Z" transform="translate(-276.168 -239.919)" fill="#e28086"/>
    <g id="Group_13112" data-name="Group 13112" transform="translate(27.291 74.093)">
      <g id="Group_13107" data-name="Group 13107">
        <circle id="Ellipse_11" data-name="Ellipse 11" cx="9.493" cy="9.493" r="9.493" fill="#a298a5"/>
      </g>
      <g id="Group_13108" data-name="Group 13108" transform="translate(2.081 2.081)">
        <path id="Path_70337" data-name="Path 70337" d="M243.419,342.373a9.492,9.492,0,0,1-13.342,13.342,9.492,9.492,0,1,0,13.342-13.342Z" transform="translate(-230.077 -342.373)" fill="#8b818e"/>
      </g>
      <g id="Group_13109" data-name="Group 13109" transform="translate(4.009 4.009)">
        <circle id="Ellipse_12" data-name="Ellipse 12" cx="5.484" cy="5.484" r="5.484" fill="#ffd064"/>
      </g>
      <g id="Group_13110" data-name="Group 13110" transform="translate(4.843 4.843)">
        <path id="Path_70338" data-name="Path 70338" d="M259.262,364a5.483,5.483,0,0,1-7.556,7.556A5.483,5.483,0,1,0,259.262,364Z" transform="translate(-251.706 -364.003)" fill="#ffc250"/>
      </g>
      <g id="Group_13111" data-name="Group 13111" transform="translate(7.93 7.93)">
        <circle id="Ellipse_13" data-name="Ellipse 13" cx="1.562" cy="1.562" r="1.562" fill="#756e78"/>
      </g>
    </g>
    <g id="Group_13113" data-name="Group 13113" transform="translate(0 70.627)">
      <circle id="Ellipse_14" data-name="Ellipse 14" cx="3.019" cy="3.019" r="3.019" transform="translate(0 0)" fill="#ffd064"/>
    </g>
    <g id="Group_13114" data-name="Group 13114" transform="translate(1.51 70.627)">
      <path id="Path_70339" data-name="Path 70339" d="M13.335,298.921a3,3,0,0,0-1.51.4,3.019,3.019,0,0,1,0,5.229,3.019,3.019,0,1,0,1.51-5.634Z" transform="translate(-11.825 -298.921)" fill="#ffc250"/>
    </g>
    <g id="Group_13115" data-name="Group 13115" transform="translate(3.377 65.922)">
      <path id="Path_70340" data-name="Path 70340" d="M49.17,277.512H27.924a1.471,1.471,0,0,1-1.471-1.471v-5.595a5.737,5.737,0,0,1,2.08-4.42l3.085-2.553a6.148,6.148,0,0,1,3.919-1.411H47.209a1.961,1.961,0,0,1,1.961,1.961v13.488Z" transform="translate(-26.453 -262.062)" fill="#e4989d"/>
    </g>
    <g id="Group_13116" data-name="Group 13116" transform="translate(21.748 65.922)">
      <path id="Path_70341" data-name="Path 70341" d="M172.739,262.063h-2.385a1.961,1.961,0,0,1,1.961,1.961v13.488H174.7V264.024A1.961,1.961,0,0,0,172.739,262.063Z" transform="translate(-170.354 -262.063)" fill="#e28086"/>
    </g>
    <g id="Group_13122" data-name="Group 13122" transform="translate(5.404 74.093)">
      <g id="Group_13117" data-name="Group 13117">
        <circle id="Ellipse_15" data-name="Ellipse 15" cx="9.493" cy="9.493" r="9.493" fill="#a298a5"/>
      </g>
      <g id="Group_13118" data-name="Group 13118" transform="translate(2.081 2.081)">
        <path id="Path_70342" data-name="Path 70342" d="M71.976,342.373a9.492,9.492,0,0,1-13.342,13.342,9.492,9.492,0,1,0,13.342-13.342Z" transform="translate(-58.634 -342.373)" fill="#8b818e"/>
      </g>
      <g id="Group_13119" data-name="Group 13119" transform="translate(4.009 4.009)">
        <circle id="Ellipse_16" data-name="Ellipse 16" cx="5.484" cy="5.484" r="5.484" fill="#ffd064"/>
      </g>
      <g id="Group_13120" data-name="Group 13120" transform="translate(4.843 4.843)">
        <path id="Path_70343" data-name="Path 70343" d="M87.819,364a5.483,5.483,0,0,1-7.556,7.556A5.483,5.483,0,1,0,87.819,364Z" transform="translate(-80.263 -364.003)" fill="#ffc250"/>
      </g>
      <g id="Group_13121" data-name="Group 13121" transform="translate(7.93 7.93)">
        <circle id="Ellipse_17" data-name="Ellipse 17" cx="1.562" cy="1.562" r="1.562" fill="#756e78"/>
      </g>
    </g>
    <g id="Group_13123" data-name="Group 13123" transform="translate(18.318 69.656)">
      <path id="Path_70344" data-name="Path 70344" d="M146.952,293.258h-2.5a.971.971,0,0,1,0-1.942h2.5a.971.971,0,0,1,0,1.942Z" transform="translate(-143.485 -291.316)" fill="#da4a54"/>
    </g>
  </g>
</svg>
