<svg xmlns="http://www.w3.org/2000/svg" width="34.492" height="34.492" viewBox="0 0 34.492 34.492">
  <g id="_001-artwork" data-name="001-artwork" transform="translate(0 0)">
    <path id="Path_66147" data-name="Path 66147" d="M34.38,35.992a2.784,2.784,0,1,0-3.43-.076,15.517,15.517,0,0,1-12,5.653h-.932A15.536,15.536,0,0,1,6.048,35.965l-.241-.289a2.783,2.783,0,1,0-3.694.317v11.7H1V48.8H35.492V47.69H34.38Zm-1.113,11.7H32.154V36.507a2.782,2.782,0,0,0,1.113,0Zm-.556-15.577a1.669,1.669,0,1,1-1.669,1.669A1.671,1.671,0,0,1,32.711,32.113Zm-14.7,10.57h.932a16.618,16.618,0,0,0,12.1-5.2v10.2H5.451V36.971A16.64,16.64,0,0,0,18.014,42.683ZM3.782,32.113a1.669,1.669,0,1,1-1.669,1.669A1.671,1.671,0,0,1,3.782,32.113Zm-.556,4.394a2.782,2.782,0,0,0,1.113,0V47.69H3.225Z" transform="translate(-1 -14.31)" fill="#fff"/>
    <path id="Path_66148" data-name="Path 66148" d="M11.556,18.8H33.809a.556.556,0,0,0,.556-.556V1.556A.556.556,0,0,0,33.809,1H11.556A.556.556,0,0,0,11,1.556v16.69A.556.556,0,0,0,11.556,18.8Zm.556-16.69h21.14V17.69H12.113Z" transform="translate(-5.437 -1)" fill="#fff"/>
    <path id="Path_66149" data-name="Path 66149" d="M27.633,10.163a.556.556,0,0,0-.787,0l-2.388,2.388-2.388-2.388a.556.556,0,0,0-.787,0l-4.844,4.844H15v1.113H33.915V15.007H32.476Zm-.393,1.18L30.9,15.007h-3.99l-1.669-1.669Zm-5.563,0,3.664,3.664H18.012Z" transform="translate(-7.211 -4.993)" fill="#00b1ff"/>
    <path id="Path_66150" data-name="Path 66150" d="M30.669,8.338A1.669,1.669,0,1,0,29,6.669,1.671,1.671,0,0,0,30.669,8.338Zm0-2.225a.556.556,0,1,1-.556.556A.557.557,0,0,1,30.669,6.113Z" transform="translate(-13.423 -2.775)" fill="#00b1ff"/>
    <path id="Path_66151" data-name="Path 66151" d="M21,23H33.239v1.113H21Z" transform="translate(-9.873 -10.761)" fill="#00b1ff"/>
    <path id="Path_66152" data-name="Path 66152" d="M27,27h5.563v1.113H27Z" transform="translate(-12.535 -12.535)" fill="#00b1ff"/>
  </g>
</svg>
