<svg id="_002-drawing" data-name="002-drawing" xmlns="http://www.w3.org/2000/svg" width="55.861" height="55.861" viewBox="0 0 55.861 55.861">
  <path id="Path_70345" data-name="Path 70345" d="M37.541,78.805H1.686A1.686,1.686,0,0,1,0,77.119V27.44a1.686,1.686,0,0,1,1.686-1.686H37.541a1.686,1.686,0,0,1,1.686,1.686V77.119A1.686,1.686,0,0,1,37.541,78.805Z" transform="translate(0 -22.944)" fill="#c9ecf4"/>
  <path id="Path_70346" data-name="Path 70346" d="M318.233,27.44V77.119a1.687,1.687,0,0,1-1.686,1.686h-3.372a1.687,1.687,0,0,0,1.686-1.686V27.44a1.687,1.687,0,0,0-1.686-1.686h3.372A1.687,1.687,0,0,1,318.233,27.44Z" transform="translate(-279.006 -22.944)" fill="#a3d4e5"/>
  <path id="Path_70347" data-name="Path 70347" d="M71.27,5.62H70.146A1.124,1.124,0,0,1,69.022,4.5V1.124A1.124,1.124,0,0,1,70.146,0H71.27a1.124,1.124,0,0,1,1.124,1.124V4.5A1.124,1.124,0,0,1,71.27,5.62Z" transform="translate(-61.491)" fill="#ddb180"/>
  <path id="Path_70348" data-name="Path 70348" d="M261.853,5.62h-1.124A1.124,1.124,0,0,1,259.605,4.5V1.124A1.124,1.124,0,0,1,260.729,0h1.124a1.124,1.124,0,0,1,1.124,1.124V4.5a1.124,1.124,0,0,1-1.124,1.124Z" transform="translate(-231.281)" fill="#ddb180"/>
  <path id="Path_70349" data-name="Path 70349" d="M140.483,125.873a2.521,2.521,0,0,0-.857-1.9,1.677,1.677,0,0,1-.48-1.792,2.528,2.528,0,0,0-1.9-3.286,1.677,1.677,0,0,1-1.312-1.312,2.528,2.528,0,0,0-3.286-1.9,1.677,1.677,0,0,1-1.792-.48,2.528,2.528,0,0,0-3.794,0,1.677,1.677,0,0,1-1.792.48,2.528,2.528,0,0,0-3.286,1.9,1.677,1.677,0,0,1-1.312,1.312,2.528,2.528,0,0,0-1.9,3.286,1.677,1.677,0,0,1-.48,1.792,2.528,2.528,0,0,0,0,3.794,1.677,1.677,0,0,1,.48,1.792,2.528,2.528,0,0,0,1.9,3.286,1.677,1.677,0,0,1,1.312,1.312,2.528,2.528,0,0,0,3.286,1.9,1.677,1.677,0,0,1,1.792.48,2.528,2.528,0,0,0,3.794,0,1.677,1.677,0,0,1,1.792-.48,2.528,2.528,0,0,0,3.286-1.9,1.677,1.677,0,0,1,1.312-1.312,2.528,2.528,0,0,0,1.9-3.286,1.677,1.677,0,0,1,.48-1.792A2.521,2.521,0,0,0,140.483,125.873Z" transform="translate(-104.629 -101.876)" fill="#efa584"/>
  <path id="Path_70350" data-name="Path 70350" d="M162.919,169.251a7.362,7.362,0,1,1,7.362-7.362A7.362,7.362,0,0,1,162.919,169.251Z" transform="translate(-138.585 -137.667)" fill="#f4d382"/>
  <path id="Path_70351" data-name="Path 70351" d="M216.629,161.889a7.367,7.367,0,0,1-9.048,7.168,7.364,7.364,0,0,0,0-14.335,7.365,7.365,0,0,1,9.048,7.168Z" transform="translate(-184.933 -137.667)" fill="#efc059"/>
  <g id="Group_13124" data-name="Group 13124" transform="translate(20.681 21.131)">
    <path id="Path_70352" data-name="Path 70352" d="M190.4,196.821a.843.843,0,0,1-.843-.843v-1.461a.843.843,0,0,1,1.686,0v1.461A.843.843,0,0,1,190.4,196.821Z" transform="translate(-189.554 -193.674)" fill="#c69060"/>
    <path id="Path_70353" data-name="Path 70353" d="M241.906,196.821a.843.843,0,0,1-.843-.843v-1.461a.843.843,0,0,1,1.686,0v1.461A.843.843,0,0,1,241.906,196.821Z" transform="translate(-235.443 -193.674)" fill="#c69060"/>
    <path id="Path_70354" data-name="Path 70354" d="M193.2,237.452a5.1,5.1,0,0,1-3.22-1.15l-.118-.1a.843.843,0,0,1,1.062-1.309l.118.1a3.41,3.41,0,0,0,4.283.028l.165-.13a.843.843,0,0,1,1.045,1.323l-.165.13A5.1,5.1,0,0,1,193.2,237.452Z" transform="translate(-189.552 -230.232)" fill="#c69060"/>
  </g>
  <path id="Path_70355" data-name="Path 70355" d="M25.87,368.16H1.686A1.687,1.687,0,0,1,0,366.474v-8.449l7.872-6.68a3.373,3.373,0,0,1,4.807.455Z" transform="translate(0 -312.299)" fill="#90dd9b"/>
  <path id="Path_70356" data-name="Path 70356" d="M94.2,368.161H90.828L77.637,351.8a3.372,3.372,0,0,0-.94-.8,3.374,3.374,0,0,1,4.312.8Z" transform="translate(-68.329 -312.299)" fill="#5dc665"/>
  <path id="Path_70357" data-name="Path 70357" d="M415.576,44.84a5.564,5.564,0,0,1-5.564-5.564c0-4.448,3.181-7.278,4.732-8.394a.562.562,0,0,1,.885.392c.571,4.736,5.51,4.136,5.51,8A5.564,5.564,0,0,1,415.576,44.84Z" transform="translate(-365.278 -27.419)" fill="#efa584"/>
  <path id="Path_70358" data-name="Path 70358" d="M442.6,39.277a5.566,5.566,0,0,1-7.25,5.3,5.568,5.568,0,0,0,3.878-5.3c0-3.4-3.819-3.345-5.128-6.5a13.176,13.176,0,0,1,2.1-1.889.562.562,0,0,1,.886.392C437.659,36.012,442.6,35.411,442.6,39.277Z" transform="translate(-386.736 -27.419)" fill="#dd8562"/>
  <path id="Path_70359" data-name="Path 70359" d="M431.534,163.049h-4.383a1.686,1.686,0,1,1,0-3.372h4.383a1.686,1.686,0,0,1,0,3.372Z" transform="translate(-379.045 -142.256)" fill="#cecece"/>
  <path id="Path_70360" data-name="Path 70360" d="M436.356,225.652a3.019,3.019,0,0,1-3.016-3.144l1.33-31.923h3.372l1.33,31.923A3.019,3.019,0,0,1,436.356,225.652Z" transform="translate(-386.059 -169.79)" fill="#ddb180"/>
  <path id="Path_70361" data-name="Path 70361" d="M447.239,225.652a3.007,3.007,0,0,1-1.686-.514,3.016,3.016,0,0,0,1.33-2.631l-1.33-31.923h3.372l1.33,31.923A3.018,3.018,0,0,1,447.239,225.652Z" transform="translate(-396.941 -169.79)" fill="#c69060"/>
  <path id="Path_70362" data-name="Path 70362" d="M446.815,197.664h-3.961l.294-7.081h3.372Z" transform="translate(-394.537 -169.79)" fill="#e5e5e5"/>
  <path id="Path_70363" data-name="Path 70363" d="M449.219,197.664h-3.372l-.294-7.081h3.372Z" transform="translate(-396.941 -169.79)" fill="#cecece"/>
  <path id="Path_70364" data-name="Path 70364" d="M455.247,161.364a1.689,1.689,0,0,1-1.686,1.686h-3.372a1.686,1.686,0,0,0,0-3.372h3.372A1.687,1.687,0,0,1,455.247,161.364Z" transform="translate(-401.072 -142.256)" fill="#b2b2b2"/>
</svg>
