<svg xmlns="http://www.w3.org/2000/svg" width="35" height="34.998" viewBox="0 0 35 34.998">
  <g id="_003-pyramid" data-name="003-pyramid" transform="translate(0 0.001)">
    <path id="Path_66153" data-name="Path 66153" d="M9.009,129.351c.012.008.022.019.034.027a12.407,12.407,0,0,1,1.4,1.025c.422.338.87.693,1.367,1.031.061.041.123.084.186.124l.184.116c.093.058.189.117.285.171.044.025.086.051.131.076.15.083.3.164.467.241l.048.022c.151.072.308.141.466.206l.085.034a8.751,8.751,0,0,0,3.25.59h8.167a.583.583,0,0,0,0-1.167H16.917a8.271,8.271,0,0,1-1.146-.083,3.988,3.988,0,0,0,.336-.393l2.794-3.741A1.167,1.167,0,0,0,18.662,126l-.934-.7L28.89,110.336a1.157,1.157,0,0,0,.695.233,1.228,1.228,0,0,0,.166-.013,1.16,1.16,0,0,0,.767-.457l.7-.933a1.167,1.167,0,0,0-.237-1.633l-2.8-2.092a1.167,1.167,0,0,0-1.633.238l-.7.934a1.166,1.166,0,0,0,.237,1.633L14.919,123.21l-.933-.7a1.167,1.167,0,0,0-1.633.238L9.561,126.49a4.035,4.035,0,0,0-.692,1.517,3.645,3.645,0,0,0-1.286-.241c-1.676,0-2.56,1.13-3.34,2.126-.821,1.05-1.531,1.957-3.076,1.957H.584a.583.583,0,0,0,0,1.167h.583c2.114,0,3.157-1.334,4-2.405.814-1.04,1.367-1.678,2.421-1.678a2.816,2.816,0,0,1,1.426.419Zm18.466-22.974,2.8,2.093-.7.933-2.808-2.091Zm-11.621,17.53,11.161-14.962.933.7L16.789,124.6l-.467-.35-.408-.307ZM10.5,127.188l2.79-3.739,1.4,1.046.466.35-3.136,4.2a.583.583,0,0,0,.934.7l3.139-4.208,1.87,1.4-2.79,3.74a2.866,2.866,0,0,1-.832.751c-.026-.009-.055-.015-.08-.025l-.082-.031c-.221-.084-.434-.175-.636-.274l-.039-.019q-.33-.165-.632-.35l-.019-.012a16.254,16.254,0,0,1-1.667-1.225c-.413-.332-.817-.657-1.238-.933a2.884,2.884,0,0,1,.554-1.371Zm0,0" transform="translate(0 -98.019)" fill="#00b1ff"/>
    <path id="Path_66154" data-name="Path 66154" d="M384.215,216.856h-.933l-3.544-3.341a.583.583,0,0,0-.8.849l2.641,2.492h-5.531a.583.583,0,1,0,0,1.167h8.167a.583.583,0,1,0,0-1.167Zm0,0" transform="translate(-349.798 -198.776)" fill="#fff"/>
    <path id="Path_66155" data-name="Path 66155" d="M24.341,10.263a.584.584,0,0,0-.024-.825L14.474.155c-.007-.007-.018-.01-.026-.016a.562.562,0,0,0-.117-.075.387.387,0,0,0-.04-.022A.587.587,0,0,0,14.131,0H14.07a.535.535,0,0,0-.193.034.58.58,0,0,0-.1.049.345.345,0,0,0-.041.02c-.006,0-.009.01-.014.014A.549.549,0,0,0,13.6.238l-.006.009L.867,18.079H.584a.583.583,0,1,0,0,1.167H17.5a.583.583,0,1,0,0-1.167H2.3L13.956,1.746l5.85,13.071a.581.581,0,0,0,.121.17c.014.014.029.026.045.038a.59.59,0,0,0,.128.079c.017.008.032.016.049.022a.567.567,0,0,0,.191.036h.006a.6.6,0,0,0,.233-.049.584.584,0,0,0,.295-.771L15.8,3.01l7.716,7.276a.583.583,0,0,0,.825-.023Zm0,0" fill="#fff"/>
    <path id="Path_66156" data-name="Path 66156" d="M349.5,360.117a1.72,1.72,0,0,1-1.338-.7A2.833,2.833,0,0,0,346,358.367a2.679,2.679,0,0,0-2.238,1.221c-.313.384-.453.529-.679.529h-1.167a.583.583,0,1,0,0,1.167h1.167a2.008,2.008,0,0,0,1.583-.957,1.57,1.57,0,0,1,1.334-.793,1.72,1.72,0,0,1,1.338.7,2.834,2.834,0,0,0,2.162,1.046.583.583,0,0,0,0-1.167Zm0,0" transform="translate(-317.999 -333.871)" fill="#fff"/>
    <path id="Path_66157" data-name="Path 66157" d="M32.6,308.918c-.226,0-.366-.144-.679-.528a2.678,2.678,0,0,0-2.238-1.221,2.833,2.833,0,0,0-2.162,1.046,1.72,1.72,0,0,1-1.338.7.583.583,0,0,0,0,1.167,2.834,2.834,0,0,0,2.162-1.046,1.72,1.72,0,0,1,1.338-.7,1.57,1.57,0,0,1,1.334.793,2.008,2.008,0,0,0,1.583.957h1.167a.583.583,0,1,0,0-1.167Zm0,0" transform="translate(-23.851 -286.172)" fill="#fff"/>
  </g>
</svg>
