<svg xmlns="http://www.w3.org/2000/svg" width="34" height="33.998" viewBox="0 0 34 33.998">
  <g id="_081---Sunbathing" data-name="081---Sunbathing" transform="translate(-0.996)">
    <path id="Shape" d="M37,11.533A4.533,4.533,0,1,0,41.533,7,4.533,4.533,0,0,0,37,11.533Zm4.533-3.4a3.4,3.4,0,1,1-3.4,3.4A3.4,3.4,0,0,1,41.533,8.133Z" transform="translate(-15.603 -3.034)" fill="#00b1ff"/>
    <path id="Shape-2" data-name="Shape" d="M44,26.567V27.7a.567.567,0,1,0,1.133,0V26.567a.567.567,0,1,0-1.133,0Z" transform="translate(-18.636 -11.268)" fill="#00b1ff"/>
    <path id="Shape-3" data-name="Shape" d="M45.133,1.7V.567A.567.567,0,0,0,44,.567V1.7a.567.567,0,0,0,1.133,0Z" transform="translate(-18.636)" fill="#00b1ff"/>
    <path id="Shape-4" data-name="Shape" d="M57.7,15.133A.567.567,0,1,0,57.7,14H56.567a.567.567,0,1,0,0,1.133Z" transform="translate(-23.837 -6.067)" fill="#00b1ff"/>
    <path id="Shape-5" data-name="Shape" d="M30.567,15.133H31.7A.567.567,0,1,0,31.7,14H30.567a.567.567,0,1,0,0,1.133Z" transform="translate(-12.569 -6.067)" fill="#00b1ff"/>
    <path id="Shape-6" data-name="Shape" d="M54.248,4.267a.567.567,0,0,0-.8,0l-.8.8a.567.567,0,1,0,.8.8l.8-.8A.567.567,0,0,0,54.248,4.267Z" transform="translate(-22.308 -1.777)" fill="#00b1ff"/>
    <path id="Shape-7" data-name="Shape" d="M34.267,24.259a.567.567,0,0,0,.8,0l.8-.8a.567.567,0,0,0-.8-.8l-.8.8a.567.567,0,0,0,0,.8Z" transform="translate(-14.347 -9.75)" fill="#00b1ff"/>
    <path id="Shape-8" data-name="Shape" d="M53.458,22.656a.567.567,0,0,0-.8.8c.871.871.9.968,1.2.968a.567.567,0,0,0,.4-.967Z" transform="translate(-22.319 -9.75)" fill="#00b1ff"/>
    <path id="Shape-9" data-name="Shape" d="M35.074,4.272a.567.567,0,0,0-.8.8c.871.871.9.967,1.2.967a.567.567,0,0,0,.4-.967Z" transform="translate(-14.352 -1.783)" fill="#00b1ff"/>
    <path id="Shape-10" data-name="Shape" d="M33.3,31.434c-4.325,0-3.91.021-3.882-.041a1.972,1.972,0,0,0-.409-2.21l-3.9-3.9a2.839,2.839,0,0,0-4.008,0l-2.81,2.81a1.133,1.133,0,0,1-1.6,0l-5.723-5.723a3.961,3.961,0,1,0-5.749-4.76,2.317,2.317,0,0,0-2.758.33,2.267,2.267,0,0,0,0,3.2l.208.208a2.24,2.24,0,0,0-1,3.758l6.331,6.327H5.532a2.267,2.267,0,1,0,0,4.533H6.665V38.8a1.7,1.7,0,0,0,1.7,1.7h.567a1.7,1.7,0,0,0,1.7-1.7V35.967H27.645a2.826,2.826,0,1,0,4.5,0H33.3a1.7,1.7,0,0,0,1.7-1.7V33.134a1.7,1.7,0,0,0-1.7-1.7Zm-11.4-5.356a1.7,1.7,0,0,1,2.406,0l3.9,3.9a.85.85,0,0,1-.62,1.452.935.935,0,0,1-.623-.287L23.5,27.679a.567.567,0,0,0-.4-.167c-.313,0-.354.12-1.393,1.16l-1.2-1.2Zm1.2,2.8,2.55,2.553h-5.1Zm-4.013.007.616-.616,1.2,1.2-1.957,1.959H14.424l-.737-.737,2.3-1.723a2.261,2.261,0,0,0,3.1-.087ZM8.931,16.135A2.827,2.827,0,0,1,9.8,21.655a2.489,2.489,0,0,0-.51-.1L6.159,18.438A2.817,2.817,0,0,1,8.931,16.135Zm-5.683,2.6a1.157,1.157,0,0,1,1.609,0l.248.243c.045.057-.073-.066,3.528,3.528a.542.542,0,0,0,.423.161c.722.026.951.346,1.423.818l-.163.109a.567.567,0,1,0,.63.942l.35-.234,2.273,2.273a.567.567,0,0,0,.787.787l.811.812L12.88,29.89c-8.692-8.668-8-8-8.279-8.206-.057-.037.291.291-1.349-1.349a1.133,1.133,0,0,1,0-1.6ZM4.4,33.7a1.133,1.133,0,0,1,1.133-1.133h3.6l2.267,2.267H5.532A1.133,1.133,0,0,1,4.4,33.7Zm5.1,5.1a.567.567,0,0,1-.567.567H8.365A.567.567,0,0,1,7.8,38.8V35.967H9.5Zm22.1-1.133a1.7,1.7,0,1,1-1.7-1.7A1.7,1.7,0,0,1,31.6,37.667Zm2.267-3.4a.567.567,0,0,1-.567.567H13L2.464,24.3a1.133,1.133,0,0,1,0-1.6,1.17,1.17,0,0,1,1.6,0l9.7,9.7a.573.573,0,0,0,.4.167H33.3a.567.567,0,0,1,.567.567Z" transform="translate(0 -6.502)" fill="#fff"/>
    <circle id="Oval" cx="0.567" cy="0.567" r="0.567" transform="translate(29.33 30.598)" fill="#00b1ff"/>
  </g>
</svg>
