<svg xmlns="http://www.w3.org/2000/svg" width="22.49" height="26.44" viewBox="0 0 22.49 26.44">
  <g id="_001-avatar" data-name="001-avatar" transform="translate(-36.073)">
    <g id="Group_8507" data-name="Group 8507" transform="translate(36.073)">
      <path id="Path_56477" data-name="Path 56477" d="M142.7,14.247h.175a5.052,5.052,0,0,0,3.86-1.67c2.108-2.376,1.758-6.45,1.719-6.839-.137-2.918-1.517-4.315-2.656-4.966A6.088,6.088,0,0,0,142.854,0h-.093a6.1,6.1,0,0,0-2.946.75c-1.15.652-2.552,2.048-2.688,4.988-.038.389-.389,4.462,1.719,6.839A5.032,5.032,0,0,0,142.7,14.247Zm-4.112-8.372c0-.016.005-.033.005-.044.181-3.926,2.968-4.347,4.161-4.347h.066c1.478.033,3.992.635,4.161,4.347a.107.107,0,0,0,.005.044c.005.038.389,3.762-1.352,5.722a3.589,3.589,0,0,1-2.82,1.172h-.055a3.577,3.577,0,0,1-2.814-1.172C138.211,9.648,138.583,5.908,138.588,5.875Z" transform="translate(-131.551)" fill="#fff"/>
      <path id="Path_56478" data-name="Path 56478" d="M58.562,266.053v-.016c0-.044-.005-.088-.005-.137-.033-1.084-.1-3.619-2.48-4.43l-.055-.016a15.8,15.8,0,0,1-4.545-2.07.739.739,0,0,0-.849,1.21,17.053,17.053,0,0,0,5,2.283c1.276.454,1.418,1.818,1.456,3.066a1.1,1.1,0,0,0,.005.137,9.939,9.939,0,0,1-.115,1.692,20.151,20.151,0,0,1-9.653,2.245,20.266,20.266,0,0,1-9.659-2.25,9.408,9.408,0,0,1-.115-1.692c0-.044.005-.088.005-.137.038-1.248.181-2.612,1.456-3.066a17.212,17.212,0,0,0,5-2.283.739.739,0,1,0-.849-1.21,15.627,15.627,0,0,1-4.545,2.07c-.022.005-.038.011-.055.016-2.376.816-2.447,3.351-2.48,4.43a1.1,1.1,0,0,1-.005.137v.016a8.4,8.4,0,0,0,.279,2.48.7.7,0,0,0,.285.345,20.71,20.71,0,0,0,10.688,2.617,20.773,20.773,0,0,0,10.688-2.617.733.733,0,0,0,.285-.345A8.809,8.809,0,0,0,58.562,266.053Z" transform="translate(-36.073 -245.05)" fill="#fff"/>
    </g>
  </g>
</svg>
