<svg xmlns="http://www.w3.org/2000/svg" width="55.911" height="55.418" viewBox="0 0 55.911 55.418">
  <path id="_001-cloudy" data-name="001-cloudy" d="M54.559,42.5a9.5,9.5,0,0,0-5.331-4.176,13.827,13.827,0,0,0-6.381-9.71q-.335-.21-.679-.4a9.483,9.483,0,1,0-17.936-4.718c-.333-.071-.67-.132-1.009-.181A15.586,15.586,0,0,0,14.528,24.6,15.006,15.006,0,0,0,5.6,38.79,9.95,9.95,0,0,0,9.908,57.675H46.07a9.591,9.591,0,0,0,6.82-2.636A10.434,10.434,0,0,0,54.559,42.5ZM25.968,23.933a7.735,7.735,0,1,1,14.619,3.528,13.832,13.832,0,0,0-9.348-.351,15.262,15.262,0,0,0-5.27-3.136C25.969,23.961,25.968,23.947,25.968,23.933Zm28.141,24.9a7.9,7.9,0,0,1-8.039,7.1H9.908a8.2,8.2,0,0,1-3.079-15.77A.874.874,0,0,0,7.37,39.3a13.311,13.311,0,0,1,7.885-13.108,13.982,13.982,0,0,1,5.832-1.3,13.336,13.336,0,0,1,9.329,3.842.874.874,0,0,0,.9.194A12.221,12.221,0,0,1,47.565,39.088a.874.874,0,0,0,.639.749,7.92,7.92,0,0,1,5.9,8.991ZM27.853,31.382a.874.874,0,1,1-1.215,1.256,8.187,8.187,0,0,0-13.843,6.351.874.874,0,0,1-.822.922h-.051a.874.874,0,0,1-.872-.824,9.722,9.722,0,0,1,5.767-9.568,10.042,10.042,0,0,1,5.6-.832A9.764,9.764,0,0,1,27.853,31.382Zm12.5-19.9,3.7-6.305a.874.874,0,1,1,1.507.884l-3.7,6.305a.874.874,0,1,1-1.507-.884Zm-25.723.914a.874.874,0,0,1,1.2-.312l6.305,3.7a.874.874,0,1,1-.884,1.507l-6.305-3.7a.874.874,0,0,1-.312-1.2Zm13.123-9.04a.874.874,0,0,1,1.691-.441l1.845,7.072a.874.874,0,1,1-1.691.441ZM46.589,20.894a.874.874,0,0,1,.625-1.066l7.072-1.845a.874.874,0,1,1,.441,1.691l-7.072,1.845a.873.873,0,0,1-1.066-.625Z" transform="translate(-0.025 -2.257)" fill="#fff"/>
</svg>
