<svg xmlns="http://www.w3.org/2000/svg" width="39.523" height="36.229" viewBox="0 0 39.523 36.229">
  <g id="_004-image-gallery" data-name="004-image-gallery" transform="translate(0 -2)">
    <g id="Group_12540" data-name="Group 12540" transform="translate(0 14.682)">
      <path id="Path_69694" data-name="Path 69694" d="M28.741,33.249a3.285,3.285,0,0,1-.84-.109L2.437,26.32A3.324,3.324,0,0,1,.108,22.286L3.321,10.31a.823.823,0,0,1,1.591.425L1.7,22.707A1.671,1.671,0,0,0,2.87,24.731l25.455,6.816a1.639,1.639,0,0,0,2-1.159l1.286-4.766a.824.824,0,1,1,1.591.428L31.921,30.81a3.289,3.289,0,0,1-3.18,2.439Z" transform="translate(0 -9.701)" fill="#fff"/>
    </g>
    <g id="Group_12543" data-name="Group 12543" transform="translate(6.702 11.14)">
      <path id="Path_69697" data-name="Path 69697" d="M4.894,23a.823.823,0,0,1-.583-1.4l7.778-7.778a2.531,2.531,0,0,1,3.493,0L17.9,16.13l6.409-7.691a2.474,2.474,0,0,1,1.881-.889H26.2a2.469,2.469,0,0,1,1.876.861L36.693,18.46a.823.823,0,0,1-1.25,1.072L26.831,9.483A.815.815,0,0,0,26.2,9.2a.874.874,0,0,0-.632.3l-6.987,8.384a.82.82,0,0,1-.6.295.793.793,0,0,1-.619-.24l-2.953-2.953a.846.846,0,0,0-1.164,0L5.475,22.757a.82.82,0,0,1-.581.24Z" transform="translate(-4.07 -7.55)" fill="#00b1ff"/>
    </g>
    <g id="Group_12541" data-name="Group 12541" transform="translate(6.587 2)">
      <path id="Path_69695" data-name="Path 69695" d="M33.642,28.349H7.294A3.3,3.3,0,0,1,4,25.055V5.294A3.3,3.3,0,0,1,7.294,2H33.642a3.3,3.3,0,0,1,3.294,3.294V25.055A3.3,3.3,0,0,1,33.642,28.349ZM7.294,3.647A1.65,1.65,0,0,0,5.647,5.294V25.055A1.65,1.65,0,0,0,7.294,26.7H33.642a1.65,1.65,0,0,0,1.647-1.647V5.294a1.65,1.65,0,0,0-1.647-1.647Z" transform="translate(-4 -2)" fill="#fff"/>
    </g>
    <g id="Group_12542" data-name="Group 12542" transform="translate(11.527 6.94)">
      <path id="Path_69696" data-name="Path 69696" d="M10.294,11.587a3.294,3.294,0,1,1,3.294-3.294A3.3,3.3,0,0,1,10.294,11.587Zm0-4.94A1.647,1.647,0,1,0,11.94,8.294,1.65,1.65,0,0,0,10.294,6.647Z" transform="translate(-7 -5)" fill="#00b1ff"/>
    </g>
  </g>
</svg>
