<svg xmlns="http://www.w3.org/2000/svg" width="34" height="31.875" viewBox="0 0 34 31.875">
  <g id="love" transform="translate(0 -16)">
    <path id="Path_69494" data-name="Path 69494" d="M128.68,21.977c0-2.311-1.512-5.977-5.569-5.977a5,5,0,0,0-4.18,2.339A5,5,0,0,0,114.749,16c-4.057,0-5.569,3.666-5.569,5.977,0,3.984,3.109,6.476,7.357,10.108.624.534,1.27,1.086,1.958,1.683a.664.664,0,0,0,.87,0c.688-.6,1.333-1.149,1.958-1.683C125.77,28.282,128.68,25.876,128.68,21.977Zm-9.75,10.411c-.531-.458-1.037-.891-1.53-1.312-4.444-3.8-6.892-5.893-6.892-9.1a4.382,4.382,0,0,1,4.241-4.648c1.471,0,2.648.845,3.6,2.582a.664.664,0,0,0,1.165,0c.95-1.738,2.127-2.582,3.6-2.582a4.387,4.387,0,0,1,4.241,4.648c0,3.205-2.448,5.3-6.892,9.1C119.966,31.5,119.46,31.93,118.93,32.387Z" transform="translate(-101.93)" fill="#00b1ff"/>
    <path id="Path_69495" data-name="Path 69495" d="M4.772,135.4l3.2,1.6v3.574a.664.664,0,0,0,.664.664h7.039a.664.664,0,0,0,.664-.664V131.9a3.931,3.931,0,0,0-3.545-3.924l-.054-.006a8.438,8.438,0,0,1-4.055-1.733l-1.491-1.491a2.639,2.639,0,0,0-1.878-.778v-5.312a2.656,2.656,0,0,0-5.313,0v9.021A8.633,8.633,0,0,0,4.772,135.4ZM1.328,118.656a1.328,1.328,0,0,1,2.656,0v5.669a2.656,2.656,0,0,0-.55,4.178l3.4,3.4a.664.664,0,1,0,.939-.939l-3.4-3.4a1.328,1.328,0,0,1,.5-2.191h0a1.326,1.326,0,0,1,1.381.314l1.491,1.491c1.54,1.54,4.9,2.119,4.91,2.121a2.608,2.608,0,0,1,2.355,2.6v8.005H9.3v-3.32a.664.664,0,0,0-.367-.594L5.366,134.21a7.266,7.266,0,0,1-4.038-6.533Z" transform="translate(0 -93.359)" fill="#fff"/>
    <circle id="Ellipse_10" data-name="Ellipse 10" cx="0.664" cy="0.664" r="0.664" transform="translate(29.816 39.773)" fill="#fff"/>
    <path id="Path_69496" data-name="Path 69496" d="M279.68,116a2.659,2.659,0,0,0-2.656,2.656v5.313a2.638,2.638,0,0,0-1.878.778l-1.492,1.491a8.44,8.44,0,0,1-4.06,1.734l-.044,0A3.932,3.932,0,0,0,266,131.9v8.669a.664.664,0,0,0,.664.664H273.7a.664.664,0,0,0,.664-.664V137l2.173-1.087a.664.664,0,1,0-.594-1.188l-2.541,1.27a.664.664,0,0,0-.367.594v3.32h-5.711V131.9a2.609,2.609,0,0,1,2.36-2.6l.044,0a9.756,9.756,0,0,0,4.861-2.116l1.492-1.491a1.327,1.327,0,0,1,1.381-.314h0a1.328,1.328,0,0,1,.5,2.191l-3.4,3.4a.664.664,0,1,0,.939.939l3.4-3.4a2.656,2.656,0,0,0-.55-4.178v-5.669a1.328,1.328,0,0,1,2.656,0v9.021a7.325,7.325,0,0,1-.887,3.488.664.664,0,1,0,1.167.634,8.656,8.656,0,0,0,1.048-4.123v-9.021A2.659,2.659,0,0,0,279.68,116Z" transform="translate(-248.336 -93.359)" fill="#fff"/>
  </g>
</svg>
