<svg xmlns="http://www.w3.org/2000/svg" xmlns:xlink="http://www.w3.org/1999/xlink" width="708" height="626" viewBox="0 0 708 626">
  <defs>
    <clipPath id="clip-path">
      <rect id="Rectangle_2995" data-name="Rectangle 2995" width="708" height="626" transform="translate(8995.783 232.458)" fill="#fff" stroke="#707070" stroke-width="1"/>
    </clipPath>
  </defs>
  <g id="Map" transform="translate(-8995.783 -232.458)">
    <g id="Cairo" clip-path="url(#clip-path)">
      <g id="EGY-outline" transform="translate(6776.162 -490.627)">
        <path id="Path_70816" data-name="Path 70816" d="M2166.871,692.509l-1.113-.381-.316-.314-.45-.279-.212.387-1.218,9.443-1.616,5.276-.211,1.582.872,1.134.982.463,1.058.278,1.59.67.477.107,1.889-.623,1.457-.866,1.748-.5,1.669-.294,1.564-.72.9.138.662.49-.24,1.031.293,1.5-1.1,5.659-.414.882-1.863,1.215-2,.282-1.836.557-1.414,2.028-.4,2.512.61,1.57.8,1.564.157,2.512-1.137,1.677-1.74,1.432-.6,1.574,2.305,2.114-.9.4-.584.4-.716.341-1.3.225,1.034.679,1.138.978.944,1.023.38.777-.089,2.134-.37.56-.715.071-1.157.7-3.883,1.141-.857.848.451,1.409.829,1.4,1.634,1.769.662,8.371,1.165,4.87.372.642.794.124.8.41.371,1.479.574,5.372,2.013,9.141-.248,5.343-2.6,9.077-.433,4.625-3.672-2.379-1.325-2.333-3.574-3.292-1.414-1.036-.767-1.467-.372-1.41-1.112-1.077-1.272-.873-2.436-1.323-2.093-.748-6.02-.735-2.516.5-.911.068-.423-.656-.531-1.19-3.494-5.888-.638-.586-.5-.1-2.915,1.426-.8.247-1.3.092-.9-.073-1.482-.277-3.047.385-.795-.236-1.616-2.052-1.386-.19-1.456-.6-2.781-3.342-1.774-.77-1.961-.2-2.021.307-1.854.6-1.934.908-1.723,1.048-8.747,1.063-1.748.518-2.251,1.458-2.19,1.355-.414-2.854-.9-2.171-1.562-.862-.821-1.311,1.165-2.808,1.722-2.615.9-.734-.715-3.22-1.774-.046-2.3.749-2.3-.873-.31-2.2,1.246-2.682,1.668-2.308,1-1.084,4.5-1.235,2.136-1.089.256-1.871-1.651-1.238-2.419.138-5.261,1.1,3.974-2.781.792-1.171.558-1.944.132-2.289-.663-1.893-1.827-.793-3.778-.832.52-2.074,2.288-2.654,1.5-2.6-.831-3.283-4.061-6.326-.353-1.148,2.047-1.366,1.581-3.913,1.245-.241,1.244.4.45.289,10.074,3.686,2.014-.381,2.948-1.2,2.489-.247,2.7.309,1.3-.608.46-.349-.274-.726.166-.325.654-.511,1.916-.937,1.669-1.082,1.51-.463,12.3-.758,2.788-1.323,1.511-1.715.979-3.89.742-1.767.53-1.6.132-1.144-.292-3.273v-2.042l.265-1.85,1.377-1.774,9.147.465,3.813,1.721,1.81-.062,3.656-3.418L2156.9,688l1.969-.128,1.827.17,1.643.484,1.033.63,3.5,3.351Z" transform="translate(451.952 45.705)" fill="none" stroke="#00b1ff" stroke-width="1.5"/>
        <path id="Path_70817" data-name="Path 70817" d="M2322.713,718.4l6.991,68.989.373,17.64.556,4.068.609,2.655.346.779v.03l15.669,25.19,9.042,23.523-32.445-2.3-5.359.47L2313,861.094l-1.323.75-6.756,6.362-.751.465-5,2.34-.873.209-2.146-.025-8.829-1.354-3.029-.91-2.383-1-4.979-3.312-14.773-1.155-61.555,2.1-7.556-21.1-5.069-20.578-.635-7.2-1.589-4.985-1.668-2.271-1.933-1.588-1.907-2.466-.8-2.1.053-2.054.381-.692.449-.288.769.107,1.059.292.343.032.582-.1,7.823,2.414.555.107,7.426-.046,4.582-.584,2.6-.917,4.379-.637,4.979-.169,4.645-2.913,5.27-5.455,11.371-14.992,3.586-7.706,1.774-5.176-2.2-10.475.131-7.68,2.146-4.916,1.058-3.512,2.385-4.07L2248,726.4l5.058-6.361,1.032-3.161.24-2.471-.053-2.338L2252.69,706l-2.992-2.267-2.516-1.515-2.87-3.86-.1-1.194h0l.641.123-.765-1.536.042-.011,14.761-1.69,6.143-1.417,4.365-2.155,3.628-1,49.689,28.921Z" transform="translate(527.373 46.951)" fill="none" stroke="#00b1ff" stroke-width="1.5"/>
        <path id="Path_70818" data-name="Path 70818" d="M2164.026,764.728l1.87,2.553-2.232.852-1.519-.871-1.112-1.226-.972-.231-1,1.462-.317,2.04.344,2.049.97,1.467v1.235l-4.767,4.057-2.684,1.142-.187.216-.715.508.054,1.2.23,1.394-.2,1.08-1.377,1.11-2.854.528-1.606.947-1.6,2.028-.24,1.664.089,1.873-.583,2.673-1.121,2.431-.466-.291-.548-1.363-1.36-.777-1.562-.154-.15-.109.4.692.046,2.278.184,1.36.451,1.162-.15,1.219-1.546,1.545-1.8.864-1.57.041-3.736-.9,1.873,2.778,4.441,3.278,1.855,2.3.061,2-.592,8.81,1.254,1.375.5,3.124.044,5.569.715,2.269,3.222,4.541,1.89,3.376-2.658-1.532-2-1.169-4.228-3.494-2.042-1-2.321-1.935-1.377-.445-1.5.4-2.366,1.865-1.334.56-3.5-.044-3.019-1.1-2.118-2.063L2116.7,829l-.194-4.431-.531-2.065-1.085-.874-.213-.49-2.013-.947-1.9-.587-1.622-.608-.5-.128-1.174-2.766-.326-2,.053-2.219-.258-1.79-1.27-.741-4.582-1.167-5.386,3.872-3.1-1.494-1.112-2.8,1.139-2.716,7.9-2.221-1.085-2.215-4.908-3.424-.478-2.831.478-2.851.767-2.581.4-2.006-.326-2.09-.848-2.248-2.322-4.463,1.272-1.848,1.219-2.271.848-2.6.158-2.875-1.377-.493-1.272.246-1.112.052-.9-1.041-.492-1.644.042-1.611.847-1.338,1.934-.825v-1.478l-3.488-1.722-2.136-3.534-1.085-4.807-.38-8.451,2.189-1.355,2.251-1.458,1.749-.518,8.747-1.063,1.724-1.049,1.933-.908,1.854-.6,2.022-.307,1.96.195,1.775.77,2.781,3.342,1.455.6,1.386.19,1.617,2.052.794.236,3.047-.385,1.483.277.9.073,1.3-.092.8-.246,2.914-1.427.5.1.637.585,3.494,5.888.531,1.19.423.656.911-.067,2.516-.5,6.02.734,2.093.749,2.435,1.323,1.273.873,1.112,1.077.371,1.41.767,1.467,1.414,1.036,3.575,3.292,1.324,2.333,3.673,2.378Z" transform="translate(455.265 81.883)" fill="none" stroke="#00b1ff" stroke-width="1.5"/>
        <path id="Path_70819" data-name="Path 70819" d="M2241.023,797.948l.213,11.254,4.476,19.262,3.69,40.514-1.271,17.6-108.885,4.588-1.386-2.528,1.192-2.321,1.094-4.14-.026-7.465-1.352-8.2-2.145-7.44-2.411-5.141-4.36-5.064-1.873-2.95-.769-3.614,2.808-21.106,11.716-4.43.583-.383.434-.4.423-.511.335-.653.3-.828.344-1.6.214-.568.289-.337.5-.136.662.106,1.086.536.662.429.768.106,1.033-.215,2.013-.9,1.059-.72,3.77-1.694,8.433-1.568,26.239-1.185,42.58-29.393,7.558,21.1Z" transform="translate(486.95 114.567)" fill="none" stroke="#00b1ff" stroke-width="1.5"/>
        <path id="Path_70820" data-name="Path 70820" d="M2162.022,751.886l-3.761,3.445-4.378,3.071-1.907,2.517-.953,2.234-.265,3.4-2.172,6.988-.291,5.473,1.217,1.444,2.915,2.391,1.668,3.542,1.245,1.811,1.6,1.566,1.694,2.077,1.644,2.572,1.271,4.877,1.537,3.165,1.456,4.039,1.412,1.861,1.669,1.646,35.571,17.8-26.239,1.185-8.433,1.568-3.77,1.694-1.059.72-2.013.9-1.032.215-.768-.107-.663-.429-1.085-.536-.662-.106-.5.137-.291.337-.213.568-.345,1.6-.3.829-.336.653-.425.511-.432.4-.584.383-11.716,4.43-.08-1.822-.458-1.879-1-1.51-1.694-1.011-6.684-.781-2.224-1.144-3.613-3.839-1.889-3.375-3.221-4.541-.716-2.269-.045-5.568-.5-3.124-1.254-1.375.593-8.81-.062-2-1.854-2.3-4.44-3.278-1.873-2.778,3.736.9,1.569-.041,1.8-.864,1.545-1.545.15-1.219-.45-1.162-.185-1.361-.045-2.278-.4-.692.151.108,1.563.154,1.359.777.548,1.363.466.291,1.122-2.43.582-2.673-.088-1.873.24-1.664,1.6-2.028,1.608-.947,2.852-.529,1.377-1.111.2-1.08-.229-1.394-.054-1.2.716-.507.185-.216,2.684-1.142,4.767-4.057V761.7l-.97-1.467-.344-2.049.317-2.04,1-1.462.972.231,1.112,1.226,1.518.871,2.234-.851-1.87-2.553.432-4.625,5.015,1.909,2.172,1.677,2.33-.109,2.234-.631,1.456-1.045,3.734,1.1Z" transform="translate(474.643 93.002)" fill="none" stroke="#00b1ff" stroke-width="1.5"/>
        <path id="Path_70821" data-name="Path 70821" d="M2271.3,962.088l-5.437,47.45-.875,4.053-1.006,2.234-8.326,14.277-4.927,12.92-1.033,4.412-.4,3.479.239,2.1,1.722,8.769.742,8.362.37,2.225.742,2.272,9.225,18.139,2.676,7.736.9,5.269,1.412,18.256.979,4.35,3.947,10.317.848,3.748.768,5.888.132,4.538-.132,3.087L2270.8,1174.4l-18.242,2.208-1.8-.33-9.995-3.956-1.112-.014-1.65.154-5.457,1.21-3.232.06-4.644-2.008.822-2.352,2.014-4.131-347.608-.05,12.219-26.7,8.564-12.929,12.175-9.216,79-41.732,25.868-19.308,21.719-28.8,27.705-72.923,174.174-4.221,3.046,3.289,26.935,9.434Z" transform="translate(295.538 248.089)" fill="none" stroke="#00b1ff" stroke-width="1.5"/>
        <path id="Path_70822" data-name="Path 70822" d="M2242.755,901.088l-.688,8.259.635,7.77-.292,2.778-1.245,3.621-1.933,4.1-3.02,8.056-2.144,4.275-2.368,3.606-7.61,8.217-4.82,6.381-9.864,16-11.476,15.428-3.612,6.726-3.2,8.99-1.193,5.749-.318,3.947-26.935-9.434-3.046-3.289-174.175,4.22,4.264-14.946,6.949-49.3,74.3,13.741,11.38,8.182,8.087-.687,71.151-20.053,14.373-7.478,11.61-12.788,5.4-8.183,3.132-6.147,6.993-7.653,6.6-13.058,6.842-6.9,7.69-.218,4.4.647,5.086,1.578,2.551,1.291,1.537,1.049,1.456,1.256,1.165,1.5,1.617,2.872.821,1.941.46,1.985.052,2.125-.16,1.584-.46,2.259Z" transform="translate(377.233 195.18)" fill="none" stroke="#00b1ff" stroke-width="1.5"/>
        <path id="Path_70823" data-name="Path 70823" d="M2280.8,698.037l.1,1.194,2.869,3.86,2.515,1.515,2.993,2.267,1.59,6.064.052,2.338-.239,2.471-1.032,3.161-5.06,6.362-2.418,7.456-2.384,4.07-1.06,3.512-2.146,4.916-.132,7.68,2.2,10.475-1.773,5.177-3.586,7.706-11.37,14.992-5.271,5.455-4.645,2.913-4.979.168-4.38.637-2.6.917-4.582.584-7.425.046-.556-.107-7.822-2.414-.583.1-.344-.032-1.058-.292-.769-.107-.45.287-.38.692-.053,2.054.8,2.1,1.906,2.466,1.934,1.588,1.667,2.271,1.59,4.985.635,7.2,5.068,20.578-42.58,29.393-35.572-17.8-1.669-1.646-1.412-1.861-1.456-4.039-1.537-3.165-1.271-4.877-1.643-2.572-1.694-2.077-1.6-1.566-1.246-1.811-1.667-3.542-2.915-2.391-1.217-1.444.291-5.472,2.172-6.988.264-3.4.954-2.234,1.908-2.517,4.377-3.071,3.761-3.445,3.957-4.527.794-4-.184-3.848-.4-1.879-1.085-3.56-.779-5.6-1.508-6.87.1-4.036.5-2.764,1.059-2.235,1.412-1.691,1.67-1.325,2.754-1.022,3.31-.747,8.327-.168,1.616.314,1.677.071,2.65-.417,1.615-.54,5.7.726,2.171-.293,2.7-1.609,1.7-2.221,5.252-4.507,1.006-1.79.186-1.758-.61-3.141.08-2.3,1.3-1.416,1.51-.633,1.881-.493,1.3-.633,2.2-1.636,1.114-2,.846-2.336,1.616-3.346,8.962-10.7,6.286-11.865.874-1.1.345-.092.821-.073.848.048,1.165.231h.846l.373-.062.688-.216.794-.112,1.307-.043.318-.108,1.484-.772.765-.119.425.014.371.089,1.3.552.714.174.4.043.4-.01.769-.238,1.166-.52.371-.094,2.42-.226,8.007-1.907,2.038-.192.371-.108.371-.17,5.245-4.185.67-.218.794-.1,3.019.108.424-.03,1.695-.768,5.21-3.45h0l.375,1.153,1.029,1.121,1.626.593v1.493l-1.739.456-1.25.772-.848,1.176-.627,1.673.863.388,1.362.976,1.641-1.055,1.529-.284,1.405.389,1.167.951V699.4h-1.167v1.485l1.71,1.485,2.17,1.03,2.279.089,2.1-1.371v-1.233l-2.5-.066-1.71-1.3-1.058-1.98-.557-2.111,2.56.552,3.447,1.762,1.612.293Z" transform="translate(490.78 46.08)" fill="none" stroke="#00b1ff" stroke-width="1.5"/>
        <path id="Path_70824" data-name="Path 70824" d="M2348.42,787.327l3.231,18.373,2.1,40.175,1.509,4.142,1.483,2.67,1.271,1.829-34.663,24.353-.027.021-.57-.906-3.92-4.062-3.587-1.755.863-1.916,1.778-1.827.946-.625-.028-5.5-2.2-3.84-6.993-6.929,1.515-1.011.667-.922-.139-.931-.973-1.059.973-.36.333-.362-.333-.369-.973-.369-.7-1.171-.805-1.075-.946-.948-.321-.786.2-.507.57-.408.682-.321,1.321-.177v-1.211l-.4-1.444v-1.157l.4-1.685h-1.07l-2.212,4.792-.193,2.1.444,1.557.945,1.091.836,1.437.181,2.6h-1.267l-.4-2.494-1.333-1.357-1.92-.087-2.169,1.251-2.835-1.059-3.339,2.159-2.906,3.633-1.53,3.346-.193,3.617,1.042,2.934,2.406,2.053,3.851.929-3.073,2.517-14.28,20.117-.847,1.561-1.738,1.889-4.935,9.078-1,3.2-.111,8.135-1,3.319-2.378,2.7v1.464l1.821,1.464,1.932,2.7,1.543,2.765,1.391,4.148,1.863,2.052,8.705,5.664,2.168,1.861,7.855,9.262,5.338,3.225,4.854,5.059,4.142,5.632,1.753,3.844.667,4.825,1.723,6.457,2.254,6.025,2.334,3.546V987.5l-.624,3.5,4.7,19.232-16.456.183-3.268.413-7.018,2.25-4.857,3-52.062,22.842-3.665,1.165-2.595.515-13.836-.772-23.467,3.491-7.239-3.294,10.85-150.648-.634-9.132,1.269-17.6-3.689-40.514-4.476-19.262-.213-11.254,61.554-2.1,14.773,1.155,4.979,3.312,2.383,1,3.028.91,8.83,1.354,2.146.025.873-.209,5.005-2.34.75-.465,6.756-6.361,1.323-.75,5.492-1.641,5.359-.47,32.445,2.3Z" transform="translate(535.25 120.902)" fill="none" stroke="#00b1ff" stroke-width="1.5"/>
        <path id="Path_70825" data-name="Path 70825" d="M2189.312,1170.393l28.682,20.051,7.533,7.353,2.648,6.363,3.972,6.75,4.459,6.157,1.8,3.489.927,2.982.875,8.5.424,2.172,2.6,5.143,4.132,6.37,2.675,3.442,2.384,2.539,3.081,2.168,4.476,2.375,4.935,1.907,11.187,2.522,2.173.859,2.65,1.783,1.782,2.152,1.536,2.29,4.609,8.682,18.082,22.813-4.609,4.962-1.8.176-2.312-.092-4.054-2.208-3.681-2.956-3.4-3.87-5.033-8.448-2.156-2.166-2.065-.364-1.827.783-.954.837-3.92,4.988L2269,1292.25l-2.595.826-9.784,1.249-1.8.921-1.854,1.219-6.711,6.276-71.476-89.771-16.247-13.927-23.732-29.451,15.911-8.636,1.906-1.529,1.615-1.618,1.138-1.57,1.139-1.969,1.7-2.347,1.324-1.3,1.061-.653,1.881-.058,2.17.921,2.975,2.831,1.379,1.669,1.243,2.168,2.7,6.088,1.4,2.326,1.677,2.072,1.96,1.634,2.517,1.032,1.961.584,6.843-.844Z" transform="translate(492.825 403.304)" fill="none" stroke="#00b1ff" stroke-width="1.5"/>
        <path id="Path_70826" data-name="Path 70826" d="M2268.161,956.979l7.24,3.294,23.466-3.491,13.835.772,2.6-.514,3.664-1.165,52.062-22.842,4.858-3,7.018-2.249,3.267-.414,16.455-.182,0,0,.472,1.927.126,4.24-.945,1.607-1.7,1.559-.905,2.258-1.833.843-.6,1.735,1.306,2.066-.874,5.8-.294,6.865,1.126,2.115,5.242,5.434,1.805,2.446.543,2.065.126,3.938.61,1.994,3.866,4.263.7.459,7.118,10.046,6.035,1.064,3.824,4.141,2.349,5.9,7.62,28.88.625,4.014,1.823.681,8.147,4.639,4.13,4,2.069,2.579,1.6,3.481,1.653.633,1.919.458,1.558.919.555,1.194,1.168,3.945,4.908,9.5,1.543,1.4.043.846-.25.236-.488-.016-.6.128,7.579,6.25,3.266,4.171-.235,4.17,1.306,1.089,1.169,2.18.833,2.416.306,1.713.7.648,3.851,5.43,8.105,8.688,1.989,4.156,1.71,1.025,1.96.838,1.419,1.056.818,2.588-.109,2.145.555,1.465,2.864.545,2.92,1.49,5.672,6.975,3.712,2.12-.235,1.214.235,1.575v1.166l-.347,1.591,1.279,1.2,2.029.49,1.808-.505,1.475,2.868,3.754,1.669,7.7,2.07,12.1,11.124,3.907,8.247,2.044,1.88,1.2,1.974,3.727,8.886.373,2.327v1.2l.835,1.484.654,3.75.848,1.485v1.194h-3.5l-1.961-4.283-4.032-2.444-4.56-1.714-3.559-2.114h-1.155l-1.042,2.758-.444,1.628.333,1.414,1.153,2.115,3.256,3.363,1.793,2.4.777,2.931,1.1,1.547,2.461-.745,2.446-1.132,1.1.33-.25,2.631-.667,2.782-1.126,2.583-1.557,2.01.683.685.917,1.224.736.605,3.087,2.276,1.1.362.5.761,1.656,3.557.765,1.066v1.318l-1.794-1.513-4.046-5.189h-1.265v1.428l.6,1.029.668,1.735h-1.265l-1.07-3.768-3.017.314-3.308,2.668-1.85,3.3,3.991,2.088,2.834,3.782,4.854,8.613-.667,1.224-.43,1.552-.224,1.834.153,2.086,2.837,2.1,7.467,3.418,2.531,2.367.5,1.756.222,4.223.543,1.921,1.152,1.606,2.893,3.11,1.21,1.911,1.085,3.9,1.25,8.548,1.167,2.662,5.66,5.414,6.589,4.49,7.231,3.505,3.366,2.384,2.224,3.292.36,2.017-.36,7.286-.391.642-1.557,1.281-.389.7.112,1.125.848,1.671.207,1.143.167,4.241.723,3.289,1.779,2.639,3.212,2.273,2.932,2.756,3.116,4.231,1.253,3.184-2.56-.342.028,3.074,1.2,2.622,3.419,4.775,1.46,2.9,2.156,5.677,1.641,2.606,2.167,1.746,2.476,1.325,2.071,1.442.877,2.083,1.126,6.064.153,3.055-1.279,2.118-2.809.149-1.865-1.778-1.555-.654-1.946,3.6-.419,2.534v3.4l.335,3.366.668,2.515.041,4.959-3.378,11.619,1.584,5.563,2.392,2.007,5.535,1.7,2.7,1.618,1.78,2.675,1.7,5.907,5.549,7.337,2.432,5.237,5.84,16.837,2.53,5.03,3.477,5.34,2.28,4.8,4.13,6.15,14.433,33.4,6.674,9.831,6.436,16.357,13.459,18.741,1.279,2.458,1.67,5.377,11.456,17.129,6.229,6.823,1.419,2.014,14.847,29.5,2.337,8.969,4.142,8.01,1.8,9.656,3.085,5.233,7.411,9.4,1.029,2.363,1.612,5.513,1.058,2.56,5.115,7.882,2.044,8.076,7.912,13.741,14.681,25.551.667,6.051,1.826,5.111,2.764,3.34,3.391,4.031.557,3.449.153,7.041.458,3.532.96,2.812,1.377,2.106,1.974,1.745,2.7,1.747,4.42,4.1,2.948,5.4,3.977,14.768.945,2.462,2.975,4.91,3.255,5.968,2.436,2.119.065,3.028-2.768,5.788.019,5.159,7.032,2.73,8.5,16.053,23.091,17.633,3.63,4.371,6.285,18.14,4.628,5.051,6.509,9.377,2.849-.436-1.269-2.6-1.59-2.6,1.731-.291,3.465,3.606,4.761,2.018,6.2,6.487,2.451,5.189.435,5.478,5.187,3.172,5.334-1.008,4.179,1.155,4.47,1.444,3.6,1.877,2.594,2.74,3.6,8.364,3.027,4.042-1.155,1.728-2.594-3.609-3.459-3.75-2.449-.147-6.2,2.873-2.6,1.293-3.459-1.446-3.165-1.293-3.168-.574-2.307.287-2.591-.431-3.17-1.3-1.153-1.584-1.957-2.31-1.767-.6-.152-.951-2.61-1.179-3.647-1-1.539,1.145-2.341,4.38-1.253,5.569,1.158,8.93-1.577,7.779-1.137,5.684,1.444,4.747,3.161.708,1.439,2.3-.14,2.736-.548,1.337.265,3.122.145,2.157.292,4.169-.8,7.73-.319,16.189-.377,2.927-1.669,5.178-.388,2.821.667,2.728,1.586,2.819,3.684,5.267,2.932,5.47,1.057,2.9.667,3.067-.193,8.8,1.342,8.954,1.577,6.818,1.244,6.111,7.93,13.618,2.406,5.27,3.325,6.9,2.251,16.919,1.238,2.967,3.459,6.4,7.135,8.932,4.547,2.512-2.058-2.882-4.826-8.513,3.337.106,2.185,1.668,1.486,2.718,1.155,3.222,1.835,9.114.514,1.471,2.794,1.969,1.418,2.081,1.209,2.308,2.21,2.609,3.068,4.045,6.564,5.055,6.186,2.516,3.08,1.019.5.708,2.169,1.538,2.334,1.2,2.544.777,9.51.67,13.767,2.683,13.18,4.446,4.838,3,8.3,7.974,2.712,4.472,1,8.543,2.912,5.62,5.085,4.527,5.355,4.043,2.627,1.2,2.539,1.085-.547-2.9h.905l3.63,4.165-.9,5.257,2.9,7.6,11.6,5.246,5.615,3.258,3.8,2.534,10.332,8.7,15.444,14.843,3.254,1.758,2.531-.248.639-1.1.334-1.147.611-.692,1.377.36,2.96,1.937,1.391,1.262.9,1.261,2.349,5.539,1.5,2.2,2.572,2.4,6.608,4.007,4,1.471.65,6.688-.124,2.28-1.126,1.979-1.377,1.859-.028.174h-39.936l-39.747.009-39.748.009h-79.512l-39.765.011H2766.926l-39.764.009-39.747.009H2528.4l-36.086.009-3.643,0H2208.814l-4.624,0,.014-.051.231-.823,4.82-9.272,3.849-4.524,3.867-3.007,3.734-2.272,35.4-16.644,1.985-1.562,2.922-3.768,2.3-4.1,1.405-1.912,1.934-1.77,2.278-.849,2.18-.381,5.827-.163,2.074-.4,2.041-.74,1.906-1.1,6.9-5.071,2.358-2.516,3.019-3.908,2.833-4.731,11.089-31.361,1.88-4.025,1.219-1.783,1.67-1.348,1.827-.651,1.889.245,1.96.86,1.881,1.176,7.823,6.356,7.045,8.21,1.6,1.275,1.827,1.185,4.185,1.989,4.353,1.413,2.251.362,9.491.231,8.167-1.377,7.741-2.488,3.392-1.758,2.966-1.964,6.312-5.662,5.44-6.014,22.133-20.108,4.425-5.785,2.311-3.839.981-2.521.609-3.3.213-5.356-1.111-8.05.132-2.491,1.324-2.544,3.363-3.282,1.166-1.724,1.747-5.568.884-1.769,1.4-1.3,1.7-.282,1.827.46,1.96,1.284,1.96,1.74,7.45,8.073,4.062,3.1,1.907.856,1.828.509,1.827.288,1.668.028,13.975-2.329,4.344.416,3.955,1.352,4,2.477,13.764,14.211,11.079,8.255,1.774.849,1.8.569,1.7.09,1.465-.947.688-2.083-.37-4.738-7.24-24.193-1.032-1.94-1.439-1.882-3.31-3-1.511-1.825-2.224-4.126-1.43-1.836-1.729-1.467-1.96-1.079-10.155-3.793-11.741-7.2-1.775-1.543-1.165-2.049-.37-2.269,1.005-2.659,3.337-3.685,1.272-1.818.927-1.868,2.383-6.4,1.2-2.179,1.669-1.844,5.217-4.187,1.148-1.651.955-1.907,6.065-15.788,1.3-4.658.32-2.033-.16-2.6-.635-2.915-1.988-4.281-4.821-7.536-1.068-2.877-3.761-17.366-.079-4.805.45-3.039,3.479-5.7.759-1.943.247-3.06-1.06-9.873-.052-3.52.212-2.82-.141-2.512-.689-2.772-2.039-4-1.854-2.225-1.907-1.634-3.531-2.379-3.256-2.881-2.755-3.7-1.509-3.252-4.538-12.78-4.025-7.507-1.563-4.294-4.83-31.958,1.51-12.762,3.61-14.821,1.59-3.362,13.966-18.5,2.551-4.078,2.12-4.126.635-1.668,1.245-4.648.238-3.521-.238-1.5-18.427-38.7-.848-2.717-1.163-6.693-.477-25.238-1.483-11.164-1.36-5.393-2.2-5.572-5.906-10.185-6.392-8.263-34.652-26.6-5.43-5.091-1.51-1.953-2.18-4.028-1.907-5.311-2.941-14.176-.317-10.041.317-2.73,2.041-6.29,1.8-3.752,2.58-3.753,11.238-12.562,16.537-14.938,3.77-4.277,3.206-4.417,8.722-18.162,1.589-5.04.873-5.132.292-4.453-.212-6.794-1.827-13.925-2.437-8.865-1.8-4.352-2.412-4.33-6.735-9.129-5.889-5.48-4.211-2.984-3.293-1.746-13.331-3.923-10.867-.68-4.99.394-8.854,1.674-34.406,16.62-5.28,1.176-18.082-22.813-4.609-8.682-1.536-2.29-1.782-2.152-2.649-1.783-2.173-.859-11.187-2.523-4.935-1.907-4.477-2.375-3.081-2.168-2.383-2.539-2.676-3.441-4.132-6.371-2.6-5.143-.425-2.171-.874-8.495-.926-2.982-1.8-3.489-4.459-6.158-3.972-6.75-2.648-6.364-7.533-7.353-28.683-20.051-18.268-38.294-3.945-6.672-2.42-2.964-10.71-11.05-7.08-5.973-3.92-2.4-1.218-1.165-1.273-1.7-1.323-2.833-2.71-7.781-1.536-2.771-2.094-2.768-3.76-3.4-2.658-1.8-2.408-1.292-10.817-3.39-17.34-7.385-14.972-8.691-1.67-1.5-1.518-1.985-1.219-2.173-1.086-2.536-1.642-5.373-.555-2.627-.266-5.645.61-17.033,3.072-18.437.131-3.087-.131-4.538-.768-5.888-.847-3.749-3.948-10.317-.979-4.349-1.411-18.256-.9-5.269-2.675-7.736-9.226-18.139-.742-2.272-.37-2.225-.742-8.362-1.722-8.769-.238-2.1.4-3.478,1.033-4.412,4.926-12.92,8.327-14.277,1.006-2.233.874-4.054,5.438-47.45.318-3.947,1.192-5.749,3.206-8.99,3.611-6.727,11.477-15.428,9.863-16,4.82-6.381,7.61-8.217,2.367-3.606,2.144-4.275,3.02-8.056,1.933-4.1,1.245-3.621.291-2.778-.636-7.77.689-8.259,12.492,15.448,3.6,3.147,1.139,1.314,1.219,1.831,2.366,5.435.769,1.414,2.011,2.583,6.764,7.115,3.31,2.6,5.086,3.112,3.239,1.559,62.88,19.093Z" transform="translate(456.706 203.942)" fill="none" stroke="#00b1ff" stroke-width="1.5"/>
        <path id="Path_70827" data-name="Path 70827" d="M2187.626,660.371l-.065.333-.557,1.857-.449,1.144-.848,1.407-1.191,1.307-5.863,4.382-2.967,3.465-.423.759.186,1.118,1.4,1,7.717,1.215,1.005.511.478,1.3-.291,1.38.1,1.4.5,1.024,1.14.543,1.271-.341,1.27.232,2.156,1.813,1.219.635,1.137.094.794.786,1.192,2.54.583.348,1.139.392,1.694-.805,1.086-1,.423-1.169-.051-.795-.531-1.861.036-.635.281-.806,3.322-1.366.9-.133,1.059.014.715,1.52.267,1.391.468,1.643-.655.857v1.488l1.1,1.561-.572.9-1.43-.016-1.431-1.208h-1.166l-.4.6-.308.708-.46,1.543,3.179,1.6-.291,2.289-2.437,2.044-3.319.894-2.9.216-.042.811.979,1.668.16,2.762L2194.8,710l-2.878.944.387,2.441.689,1.838,1.19.928,2.094-.17,9.543-8.194,4.477-2.406,7.61-1.921,5.254-3.536,2.615-6.331.246-.113-.333-.35-.222-.088-.225-.2-.276-.733,2.418,1.025,1.169.252,1.6.089,1.377.83.279,1.847.013,1.822.653.829,1.919.528,2.668,1.318,2.558,1.813,1.67,1.936,1.306-3.261.892-1.341,1.306-.994-.71,1.854-.25,1.252.238,1.089.722,1.4h-2.336v1.366h2.336l-.556.438-.488.309-.291.626.166,1.341.807-.129.473-.358.388-.488.642-.513.222.334-.056.5.2.447.806.211v-1.489h1.167l-.848,2.83.822,1.893,1.417-.113.944-3.12,1.989-.277,2.67-2.845,3.254-2.292,3.877,1.334h-2.446v1.366l2.446,1.225.46-.828,1.071-.853.779-.91,2.446,1.366v1.225l-.708.887-.292.667-.279,2.665,1.906-.878.541-.486-.276,1.682-.335,1.121-.61.74-1.224.551v1.244l1.155,1.707.082,2.152-3.545,3.071v1.364l1.836.082,1.417-.406,1-.91.5-1.494h1.058l.221,2.111.154.479-5.21,3.45-1.695.768-.423.03-3.02-.108-.794.1-.669.218-5.246,4.185-.371.17-.371.108-2.038.192-8.008,1.907-2.419.225-.371.094-1.166.52-.768.238-.4.011-.4-.043-.714-.174-1.3-.552-.371-.089-.424-.014-.766.119-1.484.771-.318.108-1.307.042-.792.112-.689.216-.373.062h-.845l-1.166-.231-.847-.048-.822.073-.344.092-.875,1.1-6.285,11.864-8.961,10.7-1.617,3.346-.845,2.337-1.115,2-2.2,1.636-1.306.633-1.88.493-1.509.634-1.3,1.415-.08,2.3.61,3.142-.186,1.758-1.006,1.79-5.252,4.508-1.7,2.221-2.7,1.609-2.171.293-5.7-.725-1.616.539-2.648.417-1.678-.071-1.617-.314-8.325.168-3.311.747-2.755,1.022-1.668,1.325-1.413,1.691-1.059,2.235-.5,2.764-.1,4.036,1.507,6.871.779,5.6,1.085,3.56.4,1.879.184,3.848-.794,3.995-3.957,4.527-3.733-1.1-1.458,1.045-2.234.631-2.331.109-2.171-1.677-5.014-1.909,2.6-9.077.249-5.343-2.014-9.141-.575-5.372-.371-1.479-.794-.41-.795-.124-.372-.642-1.164-4.87-.662-8.371-1.634-1.768-.829-1.4-.451-1.409.856-.848,3.883-1.141,1.158-.7.715-.071.37-.56.089-2.134-.38-.777-.943-1.024-1.139-.977-1.033-.679,1.3-.225.715-.34.584-.4.9-.4-2.3-2.115.6-1.573,1.738-1.432,1.139-1.677-.157-2.512-.8-1.565-.61-1.57.4-2.512,1.414-2.027,1.836-.557,2-.282,1.864-1.215.413-.882,1.1-5.659-.292-1.5.239-1.031-.662-.49-.9-.138-1.564.72-1.668.295-1.748.5-1.457.865-1.889.623-.477-.106-1.59-.671-1.058-.279-.981-.463-.873-1.134.21-1.582,1.617-5.276,1.218-9.443.211-.387.451.278.317.314,1.113.382,2.844-1.558,1.377-1.114,1.933-1.02,1.537-.027,1.032-.495-.582-1.852-2.888-2.739-.979-1.634-.186-1.811,1.644-4.5.583-3.292-.187-5.765-.555-3.388-.186-3.464.557-8.875-.133-6.253-1.537-12.079-.53-1.941-.742-1.8-2.39-2.758-.742-1.056-.45-1.644.157-1.714.371-1.754.611-1.175,4.3-3.505,12.458-6.732.018-.012.008,0,4.894,2.235,7.007,5.478,17.781,8.314,5.659,1.263,2.529-.082Z" transform="translate(486.408 11.097)" fill="none" stroke="#00b1ff" stroke-width="1.5"/>
        <path id="Path_70828" data-name="Path 70828" d="M2285.556,715.723l-.023.222.433,17.277L2236.277,704.3l-3.63,1-.318-11.027-.128-.224.413.1.848-5.939.055-2.8-.9-3.413-2.878-3.675-.419-1.74,2.128-1.545-2.572-1.472-1.956-.713v-1.112l.025-1.4,7.492,1.472,2.28,1.749h1.07l1.934.252.417,3.342,1.78,2.562,2.543,1.683,5.256,1.389,1.96,1.878,3.213,4.146,7.257,7.051,3.17,2.43,4.837,8.371,4.492,4.052,5.1,3.206,5.809,1.8Z" transform="translate(564.12 32.133)" fill="none" stroke="#00b1ff" stroke-width="1.5"/>
        <path id="Path_70829" data-name="Path 70829" d="M2255.569,676.521l-1.211.94-.618.373-.028.018-1.1-.38-3.5-.392-.778-.715-.444-.912-.836-.832-4.547-2.475-1.834-1.563-.709.073h-1.28l-.514-2.712-1.07-2.37-1.39-1.907-1.587-1.329h2.225l2.087-.261-8.606-10.782-1.836-3.229-2.461-3.253-1.946-1.125-.056.855-2.864-1.345-1.112.71-.7,2.006-2.337-1.371-.042.644.126,1.363-.084.612-.612-.417-1.182-.431-.653-.4.07,1.574-.32,1.116-.806,1.419h3.5l-.946,2.226,2.613,4.719-.5,2.746h1.17v1.256h-1.17l.377.887.541.955.252,1h-1.17l-.582-2.445-1.126-1.85-1.738-1.109-2.392-.179.64-1.5-.681-.195-1.239,1.336-1.056,3.1,1.056.154.571-.245.708-1.166,1.208.962.96.376,1.336-.082v1.368h-1.279v1.476l.667,1.2.987.83,1.335.49,1.794.1-1.211,1.254-1.738.44-1.7-.408-1.195-1.286h-1.169l.111,1.05-.32.236-.513-.032-.557.236.778.578.612.653,1.058,1.506-2.392,3.037-.488,2.288,1.543,1.3,3.672.082v1.5l-2.281-.44-1.863-.749-1.558-.147-1.417,1.336h-1.058l-1.141-1.213-1.14.107-.847,1.188-.348,2.026.7,1,1.2.715.25.717-2.141.928v1.229l.972,1.9-1.2.708-1.946.49-1.446,1.244-.363,2.824,1.072,1.756,1.877.5,1.834-.862,0,0-2.615,6.331-5.255,3.536-7.609,1.921-4.476,2.405-9.544,8.194-2.093.17-1.191-.928-.689-1.838-.387-2.441,2.878-.944,3.152-4.268-.159-2.762-.979-1.667.042-.811,2.9-.216,3.32-.894,2.438-2.043.29-2.288-3.179-1.6.46-1.543.309-.708.4-.6h1.165l1.431,1.208,1.431.016.573-.9-1.1-1.561v-1.488l.654-.857-.468-1.643-.266-1.391-.715-1.52-1.059-.014-.9.133-3.32,1.366-.281.805-.036.635.531,1.861.051.795-.424,1.169-1.086,1-1.7.805-1.138-.392-.584-.348-1.192-2.54-.794-.786-1.138-.094-1.219-.635-2.156-1.813-1.271-.232-1.272.341-1.139-.543-.5-1.024-.1-1.4.291-1.38-.477-1.3-1-.511-7.717-1.215-1.4-1-.187-1.117.425-.76,2.966-3.464,5.863-4.382,1.192-1.307.848-1.407.45-1.144.557-1.857.065-.334h0l4.406-.147,25.777-7.433,15.309-8.765,6.229-2.054,6.59.138,5.45,2.8,2.448,5.333.86,2.388,5.4,7.344,2.265,5.719,2.71,3.429,5.478,4.983,1.808.814,4.17.937.307.147,0,0Z" transform="translate(507.678 10.579)" fill="none" stroke="#00b1ff" stroke-width="1.5"/>
        <path id="Path_70830" data-name="Path 70830" d="M2336.86,758.227v.151l4.58,133.42,8.01,16.84,112.222,69.846-132.926,81.691L2217.767,1172.5l-34.484,26.095-135.47,35.487-12.7,5.137-8.078,8.925-4.7,7.2-73.863,157.941-397.181.27h-3.2v-294.3l-1.183-11.268-3.019-10.525-14.161-34.439-1.7-6.785-.389-7.589,1.536-14.232.018-4.784-2.471-8.086-8.758-14.818-1.148-8.192,2.859-10.269.213-3.908-.778-4.429-14.709-36.98-4.82-8.737-1.536-4.256.054-7.628,2.735-6.947,7.082-12.825,2.859-6.791L1512.4,893l4.626-5.9,5.175-5.292,9.975-15.213,3.339-6.8,1.607-6.7.564-3.947,5.173-13.672,1.8-10.929,2.118-7.945,2.56-6.821,1.078-6.863-2.331-8.018-7.453-15.994-2.225-10.158-5.985-12.37-1.183-4.038-3.956-21.321-.158-16.368-1.7-16.817.053-7.318,2.1-6.347,27.759-22.838,6.267-17.03,4.786-6.851,10.672-8.62-.25,1.528,2.113,13.1,1.891,6.415,3.087,4.029,3.7,1.027,8.689.539,6.6,3.433,3.532.024,7.814-1.174,1.64.513,1.975.922,2.084.392,3.129-1.811,4.212-1.093,4.963-.571,27.781-8.059,32.048-10.878,7.646-1.2,16.741.864,67.543,18.987,49.288,6.646,2.837,1.566,2.712.945,8.508-.6,3.463.349,12.221,5.943,7.007,2.2,7.842.064,6.2-2.345,3-.286,2.92,1.948,2.363,2.247,1.725.734,1.586.114,1.917.44,4.673,2.728,10.761,3.64,11.568,1.222,4.254,1.246,2.781,2.093,1.056-.921,1.64-1.016.7-.791,2.029.254,10.706-.2,1.169.359,1.251.814,1.279,1.386-.055.717-.32.733.375,1.4,1.279,2.54.779,1.107.862.454.5.594.25,3,.46,1.172,1.209,2.246,1.7,5.978,1.724,2.757,4.087,3.5,4.922,2.8,5.421,1.854,10.679,1.634,4.255,1.756,3.808.772,3.782-2.015,8.622,4.584,10.106-1.8,19.856-9.723,2.932-.47,1.779,1.348.891,2.829.236,3.919.488,1.634,3,7.222.681,6.548.486,1.639,5.09,3.069,8.23,1.187,30.657-.049,2,.511,1.543,1.169,1.363,1.316,1.391.974,2.127.584,5.075-.584,3.892.429,7.3,1.859,3.3.429,3.461-.86,7.424-3.717,3.908-.747,3.309.608,3.058,1.405,2.656,1.907,2.044,2.15,1.5.844,6.09-.1,2.294.438,1.822.715,2.863,1.557,30.352,10.892,6.076,3.463,3.336,1.4,4.143.575,1.029,1.12,1.183,5.316.667,1.847,1.167.876,3.184.963,29.684,15.7,27.53-1.231,5.075-.956,23.372-11.354,25.206-12.27,9.065-6.819,7.134-3.706Z" fill="none" stroke="#00b1ff" stroke-width="1.5"/>
        <path id="Path_70831" data-name="Path 70831" d="M2105.6,657.635l.083.016,2.826.5,1.634,2.389.318,3.89-.107,4.964.716.653,1.562.408,1.563.894.715,2.079.24,1.912.706,1.426,1.121,1,1.536.625.1-.729.555-1.348.972-.864,1.35.77.741.761,1.448.883.67.527.981,1.091.768,1.256.5,1.591.184,2.083-.343,4.061-.962,3.823-1.51,3.154-1.952,2.056v1.238l.689.451.131.184.053.243.4.608h1.059v-1.487h1.165l.8,1.73,1.034,5.425-.019,1.152,2.922.092.045-.092.874-.138.538-.564.679-.552,1.3-.108,1.29.743,1.889,2.641,1.006.584,1.871.66,1.352,1.446,7.866,11.646,8.087,4.47,1.245,1.788.485.912,2.348,3.263.768,1.953.071,2.026-.539,2.957.468,1.7,1.474,1.158,2.915,2.911,1.748,2.975-2.048,1.366.353,1.148,4.061,6.326.831,3.284-1.5,2.6-2.287,2.654-.521,2.074,3.779.832,1.827.793.663,1.893-.133,2.288-.557,1.945-.793,1.171-3.973,2.782,5.261-1.1,2.419-.138,1.651,1.238-.256,1.871-2.136,1.089-4.5,1.235-1,1.084-1.668,2.308-1.245,2.682.309,2.2,2.3.873,2.305-.749,1.773.046.715,3.22-.9.735-1.722,2.615-1.166,2.808.822,1.311,1.563.862.9,2.171.415,2.854.38,8.451,1.085,4.807,2.136,3.534,3.488,1.723v1.477l-1.934.825-.848,1.338-.042,1.611.494,1.644.9,1.041,1.113-.051,1.271-.247,1.377.493-.158,2.875-.848,2.6-1.219,2.271-1.271,1.849,2.322,4.463.848,2.247.327,2.09-.4,2.006-.768,2.581-.478,2.851.478,2.832,4.908,3.423,1.086,2.216-7.9,2.221-1.14,2.716,1.113,2.8L2100.6,950.308l-6.9,14.309-112.222-69.846-8.009-16.84,10.181-24.782,7.557-8.047,27.97-13.212,6.154-4.272,5.535-6,4.247-6.521,4.609-8.8-2.332-7.413-2.436-4.953-7.9-9.618-10.947-17.956-1.245-3.509-.5-4.564,2.463-4.794,3.126-3.624,2.1-3.5.106-1.128-1.545-5.279-3.39-2.046-1.086-1.994-.688-.995-.16-.7-.211-.639-.213-1.6.08-.8.211-.7.24-.305.848-.72,9.729-4.376,11.61-6.911,1.934-1.577,4.617-6.507L2054,690.674l.4-1.238,6.406,1.96,6.257.683-1.4.887-1.932,2.228-1.434.844-.111,1.009.252.293.527.007.6.188-2.043,1.373.612,1.554,1.862,1.464,1.808,1.073,7.1-4.229-.875,2.285.944,1.123,1.474.3.793-.161.667-1.334,5.158-4.944.472.96.126.082.57.456.417-1.155.362-.667.306-.812.181-1.595h1.07l-.084,2.146.348,1.627.82,1.1,1.253.593.681-1.325,1.751-5.366-2.627-1.359-2.42.585-2.529,1.286-3.032.715v-1.228l.529-.1,1.251.17.556-.073v-1.368l-2.753.855-10.079.513v-1.368l6.34-1.634,6.007-3.394,10.442-9.432,3.7-6.09,2.377-8.071.681-8.384-1.446-6.97h1.167l.848,3.841,1.514,3.748,2.365,2.69,3.449.669-.062-.048Z" transform="translate(367.965 13.866)" fill="none" stroke="#00b1ff" stroke-width="1.5"/>
        <path id="Path_70832" data-name="Path 70832" d="M2211.652,910l-6.842,6.9-6.6,13.058-6.993,7.653-3.133,6.147-5.4,8.183-11.609,12.788-14.374,7.477-71.152,20.053-8.087.686-11.38-8.181-74.3-13.741,79.741-77.691,12.536-10.089,30.972-18.453,35.836-16.5,35.844-4.484,7.953,6.232,4.8,4.894L2211.652,910Z" transform="translate(382.125 166.397)" fill="none" stroke="#00b1ff" stroke-width="1.5"/>
        <path id="Path_70833" data-name="Path 70833" d="M2056.389,675.067l-.4,1.238-9.862,19.416-4.617,6.507-1.934,1.577-11.611,6.912-9.728,4.376-.848.72-.239.305-.211.7-.079.8.213,1.6.211.639.16.7.688,1,1.085,1.994,3.39,2.045,1.545,5.279-.106,1.128-2.1,3.5-3.126,3.624-2.463,4.793.5,4.564,1.245,3.509,10.948,17.956,7.9,9.618,2.436,4.953,2.332,7.413-4.61,8.8-4.247,6.521-5.534,6-6.154,4.272-27.97,13.213-7.557,8.047-10.181,24.782-4.579-133.419v-.151h0l.972-.5,1.239-1.973,1.307-1.467,25.166-18.408,2.656-5.263,4.754,1.121,4.964-2.356,7.9-7.069-1.529-2.267-.652.145-1.419.758.96-2.024,1.334-1.414,1.336-.041,1.043,2.113h1.25l1.961-2.178,7.952-7.186,2.351-1.545,2.254-1.091,3.405-4.766,1.39-1.089,2.364-.463,1.348-1.1,1.126-1.35,1.627-1.189-.543-.218h-.458l-.264-.27.1-1,4.671-2.6-.5,5.721,4.825,3.857.611.188Z" transform="translate(365.966 28.235)" fill="none" stroke="#00b1ff" stroke-width="1.5"/>
        <path id="Path_70834" data-name="Path 70834" d="M2404.7,809.79l3.611,3.839,2.224,1.144,6.684.781,1.694,1.011,1,1.51.458,1.879.079,1.822-2.808,21.107.768,3.614,1.873,2.95,4.361,5.065,2.411,5.141,2.144,7.44,1.352,8.2.027,7.465-1.094,4.14-1.193,2.32,1.386,2.528,108.886-4.587.635,9.132-10.85,150.648-62.879-19.093-3.239-1.559-5.086-3.111-3.31-2.6-6.765-7.116-2.011-2.583-.769-1.414-2.366-5.435-1.219-1.831-1.138-1.314-3.6-3.147-12.492-15.448.459-2.259.16-1.584-.053-2.125-.46-1.985-.821-1.941-1.617-2.872-1.165-1.5-1.456-1.256-1.537-1.048-2.551-1.292-5.086-1.577-4.4-.648-7.69.218-12.192-55.064-4.8-4.894-7.955-6.232-35.844,4.485-35.836,16.5-30.972,18.453-12.536,10.089-79.741,77.691-6.949,49.3-4.264,14.946-27.705,72.924-21.719,28.8-25.868,19.308-79,41.733-12.175,9.216-8.564,12.929-12.219,26.7H1751.954l73.862-157.941,4.7-7.2,8.079-8.925,12.7-5.137,135.471-35.487,34.484-26.095,110.979-112.327L2265.156,864.5l6.9-14.309,79.291-71.728,3.1,1.494,5.386-3.873,4.582,1.167,1.271.742.257,1.79-.053,2.219.327,2,1.174,2.766.5.128,1.623.608,1.9.587,2.014.948.212.489,1.086.874.531,2.065.193,4.431.8,2.927,2.118,2.063,3.02,1.1,3.5.044,1.335-.56,2.366-1.865,1.5-.4,1.377.445,2.323,1.936,2.04,1,4.23,3.495,2,1.169,2.658,1.533Z" transform="translate(196.516 113.98)" fill="none" stroke="#00b1ff" stroke-width="1.5"/>
        <path id="Path_70835" data-name="Path 70835" d="M2213.714,650l-.018.012-12.458,6.732-4.3,3.505-.61,1.175-.371,1.754-.158,1.713.451,1.645.742,1.056,2.391,2.758.742,1.8.529,1.941,1.537,12.079.134,6.253-.558,8.875.187,3.465.555,3.388.187,5.765-.584,3.292-1.642,4.5.185,1.811.98,1.634,2.887,2.739.583,1.852-1.033.5-1.536.026-1.933,1.02-1.378,1.114-2.843,1.558-3.5-3.351-1.032-.63-1.643-.484-1.827-.17-1.969.128-1.958.943-3.656,3.419-1.809.062-3.814-1.721-9.146-.465-1.38,1.774-.264,1.85v2.042l.291,3.273-.131,1.144-.531,1.6-.741,1.767-.98,3.89-1.511,1.715L2158,752.074l-12.3.758-1.51.463-1.669,1.082-1.917.937-.653.511-.167.325.272.726-.459.349-1.3.608-2.7-.309-2.489.247-2.948,1.2-2.013.381-10.074-3.686-.451-.289-1.244-.4-1.245.241-1.58,3.913-1.748-2.975-2.914-2.911-1.475-1.158-.468-1.7.539-2.957-.071-2.026-.768-1.953-2.349-3.262-.484-.912-1.246-1.788-8.087-4.47-7.866-11.646-1.352-1.446-1.871-.66-1.006-.584-1.89-2.641-1.289-.744-1.3.108-.679.552-.538.564-.874.138-.045.092-2.922-.092.018-1.151-1.034-5.425-.8-1.729h-1.166v1.487h-1.059l-.4-.608-.052-.243-.132-.184-.688-.451V707.12l1.951-2.056,1.51-3.154.961-3.823.343-4.061-.184-2.083-.5-1.591-.768-1.256-.982-1.091-.669-.527-1.448-.883-.741-.761-1.35-.77-.972.864-.555,1.348-.1.729-1.537-.624-1.121-1-.706-1.426-.24-1.912-.715-2.079-1.562-.894-1.562-.408-.715-.653.106-4.964-.317-3.89-1.634-2.389-2.826-.5-.084-.016-4.722-3.612-2.544-5.909,1.1-3.53,6.229,3.521,4.617,3.514,5.253,2.184,6.174.7,7.4-.928,24.039-6.473,50.8-18.157v1.37l-2.585.367-15.781,5.973-13.209,7.61-9.051,4.329-7.3,4.981-.957.447-2.336.392-1.377.529-6.48,4.547-2.975,1.036-6.784.513-1.475.864-.764.016-2.6,3.96v1.49l3.517.953,1.21.025,1.084-.978h1.167l2.587,1.522,4.8-.261,4.629-1.433,2.087-1.937,1.543-3.218,3.42.937,3.573,2.964,1.975,2.794h1.17l1.084-3.477,2.642-3.5,3.156-2.769,2.543-1.3,1.529-.628,1.892.88,2.226,1.476,2.53,1.116,1.612-.2,2.2-.635,2.393-.236,2.056,1.075-.526.2-.473-.009-.25.236.084.946,2.307.635,2.906-.945,2.905-1.849,2.268-2.061-.417-.213-.416.034-.265-.179.055-.9.583-.422.084-.181.028-.236.348-.644,5.854,2.592,1.153,1.515,1.584-1.352,1.183-1.574,1.906-4.05-1-1.662.6-1.322,2.739-2.356.5-1.215-.179-1.027-.057-.93,1-.936.988-.238,6.215.474,1.612.619,2.851,1.884.46.759-.057.928.308.784,1.626.268,1.376-.39,1.044-.939.68-1.337-3.1-1.565,1.1-.75,1.029-.374,1.166.179-3.293-4.559-6.883-5.141-8.134-3.532-7.716-.26,1.626-.932,4.242-1.6,14.529-2.2,5.34.6,15.766,5.019L2213.714,650Z" transform="translate(422.441 4.253)" fill="none" stroke="#00b1ff" stroke-width="1.5"/>
        <path id="Path_70836" data-name="Path 70836" d="M2173.656,1939.82l-10.122,0,5.457-16.363,3.955-11.819.212-4.614-1.518-4.1-3.761-3.7-3.144-1.6-3.283-.514-3.284.591-3.2,1.717-4.416,4.865-7.707,15.831-.034-.074-.248-.557-1.252-2.006-1.7-1.831-7.53-5.5-1.748-1.721-1.512-1.791-.9-2-.344-1.964.556-2.531,1.271-2.766,2.569-3.892,2.26-2.336,2.305-1.813,4.264-2.1,4.22-1.246,4.291-.635,8.669-.482,4.054-.681,4.218-1.423,4.134-1.909,2.762-1.6,6.013-4.743,12.015-15.359,1.43-2.9,1.087-2.933,1.3-5.924.106-1.214-1.086-10.065-2.834-10.89-.643-4.066v-1.946l.7-2.721,1.326-2.943,2.992-4.779,2.385-2.652,2.488-2.049,2.287-1.08,2.305-.786,2.144-.493,2.093-.249,3.9.138,14.681,3.93,1.863.168,1.907-.216,54.369-26.01,4.775-1.384,2.253-.307,2.038.206,2.1.724,3.762,2.477,7.77,6.432,2.039.983,2.277.477,2.314.005,4.714-.862,2.014-.068,1.985.47,1.785,1.087,1.482,1.609,2.118,3.571,1.406,1.533,1.772.488,1.881-.713,1.6-1.838,3.444-7.145,1.219-1.848,1.509-1.857,1.73-3.479,1.616-5.036,2.066-10.472,1.721-5.168,1.724-3.505,1.614-2.081.584-.993,1.545-3.432,5.084-16.727,8.326-18.6,4.4-6.01,14.983-16.123,1.483-2.578,1.032-2.49.636-3.438-.132-2.974-1.165-3.375-1.748-.958-2.04-.273-23.044,3.42-17.065-.593-6.95-1.332-2.012-.76-1.837-1.039-1.4-2.06-.557-2.838.9-4.611.8-2.6,1.465-3.287,1.272-4.9,2.435-14.117,2.12-8.171,1-1.915,4.115-6.054,3.205-3.764,3.77-3.636,1.987-1.369,1.96-1.075,2.014-.816,4.324-1.045,21-2.972,2.146-.8,1.906-1.2,1.087-2.05.079-2.422-1.458-3.5-1.667-1.882-1.907-1.377-3.955-1.848-7.707-4.561-1.863-1.55-1.563-1.84-.845-2.611-.346-3.168.5-5.372,1.192-5.752,1.138-2.417.486-.7.873-1.1,1.51-1.319,1.8-.913,2.039-.677,4.053-.623,10.957.387,4.13-.638,2.067-.671,2.127-.978,1.934-1.275,1.827-1.664,1.4-2.063.583-1.367,1.58-1.586.292-1.871,1.826-6.746-.087-3.465-2.233-7.789-.353-2.381.353-5.987.37-2.2.106-4.334,1.191-9.395.035-2.18-1.519-13.09.423-10.307.531-3.991-.008-2.6-.239-.452.927-7.5,6.347-15.217,1.66-7.155-.582-2.549-.1-1.073-1.353-6.988-3.283-10-7.293-15.349-1.166-3.194-.634-2.667-1.907-19.326-2.473-7.048-2.04-4.1-2.939-4.376-3.585-4.206-5.986-4.64-13.9-8.04,2.975-2.512,1.43-.809,1.67-1.263.741-1.742.555-2.7.054-10.029,1.272-4.392,34.652,26.6,6.392,8.263,5.908,10.184,2.2,5.572,1.361,5.393,1.483,11.163.477,25.238,1.163,6.693.848,2.717,18.426,38.7.238,1.5-.238,3.521-1.245,4.648-.635,1.667-2.12,4.126-2.551,4.078-13.967,18.5-1.59,3.361-3.611,14.822-1.51,12.762,4.83,31.958,1.563,4.294,4.025,7.508,4.537,12.78,1.51,3.251,2.755,3.7,3.257,2.881,3.532,2.379,1.906,1.633,1.854,2.225,2.039,4,.689,2.773.142,2.512-.213,2.82.053,3.52,1.059,9.874-.247,3.06-.758,1.942-3.479,5.7-.451,3.039.08,4.806,3.761,17.365,1.067,2.877,4.821,7.536,1.987,4.281.635,2.915.16,2.6-.319,2.033-1.3,4.658-6.065,15.788-.954,1.907-1.148,1.652-5.218,4.186-1.669,1.845-1.2,2.178-2.383,6.4-.928,1.868-1.272,1.818-3.337,3.685-1.005,2.659.37,2.27,1.166,2.049,1.774,1.543,11.741,7.2,10.154,3.793,1.961,1.078,1.729,1.467,1.429,1.836,2.224,4.126,1.512,1.825,3.311,3,1.438,1.882,1.032,1.941,7.239,24.193.371,4.739-.688,2.083-1.465.948-1.7-.091-1.8-.57-1.773-.848-11.081-8.256-13.764-14.211-4-2.477-3.954-1.352-4.344-.417-13.976,2.329-1.669-.028-1.827-.288-1.827-.509-1.907-.857-4.063-3.1-7.451-8.073-1.961-1.74-1.96-1.284-1.827-.459-1.7.282-1.4,1.3-.885,1.769-1.747,5.568-1.165,1.725-3.364,3.282-1.325,2.544-.132,2.491,1.113,8.05-.213,5.356-.609,3.3-.981,2.521-2.312,3.839-4.423,5.785-22.135,20.108-5.44,6.013-6.311,5.663-2.966,1.964-3.393,1.758-7.741,2.489-8.168,1.376-9.491-.23-2.25-.363-4.354-1.413-4.185-1.989-1.827-1.185-1.6-1.275-7.044-8.21-7.824-6.356-1.88-1.176-1.96-.86-1.89-.245-1.826.651-1.67,1.348-1.219,1.783-1.879,4.025-11.091,31.362-2.833,4.731-3.019,3.908-2.358,2.515-6.9,5.072-1.907,1.1-2.04.74-2.073.4-5.828.164-2.18.381-2.278.848-1.934,1.77-1.405,1.912-2.3,4.1-2.921,3.768-1.987,1.563-35.394,16.643-3.735,2.273-3.866,3.007-3.85,4.524-4.819,9.272-.23.823-.015.052Z" transform="translate(487.24 541.952)" fill="none" stroke="#00b1ff" stroke-width="1.5"/>
        <path id="Path_70837" data-name="Path 70837" d="M2120.679,1077.388l-.609,17.034.266,5.645.555,2.627,1.643,5.374,1.085,2.537,1.219,2.173,1.519,1.985,1.669,1.5,14.972,8.69,17.341,7.385,10.815,3.391,2.409,1.291,2.658,1.8,3.76,3.4,2.095,2.768,1.536,2.77,2.71,7.781,1.322,2.833,1.273,1.7,1.219,1.165,3.92,2.4,7.08,5.973,10.71,11.05,2.419,2.965,3.946,6.671,18.268,38.295-6.842.844-1.961-.584-2.517-1.032-1.959-1.634-1.677-2.072-1.4-2.326-2.7-6.088-1.243-2.168-1.378-1.669-2.975-2.831-2.171-.921-1.881.059-1.06.653-1.324,1.3-1.7,2.347-1.139,1.969-1.138,1.57-1.614,1.618-1.907,1.529-15.91,8.636L2160.5,1184.31l-2.093-2.983-7.98-8.792-3.206-2.673-2.763-1.916-15.793-6.505-8.3-4.918-22.7-21.4-2.675-3.289-2.94-4.353-15.83-33.98-1.827-6.071-.531-5.263.688-7.449,4.644,2.008,3.232-.06,5.458-1.21,1.65-.154,1.112.014,9.994,3.956,1.8.33,18.242-2.209Z" transform="translate(445.658 345.103)" fill="none" stroke="#00b1ff" stroke-width="1.5"/>
        <path id="Path_70838" data-name="Path 70838" d="M2498.373,1077.564l-.689,7.448.531,5.263,1.827,6.071,15.831,33.98,2.939,4.353,2.675,3.289,22.7,21.4,8.3,4.918,15.793,6.505,2.764,1.915,3.205,2.674,7.981,8.792,2.093,2.984,21.471,43.481,23.731,29.452,16.247,13.927,71.475,89.771,27.072,25.57,1.72,1.341,2.993,1.778,4.193,1.954,2.491.781,3.125.638,4.829.22,8.3-1.359,15.107-4.352,39.392-18.476,4.618-1.3,7.85-.91,2.913.128,2.464.453,1.854.816,1.809,1.282,1.668,1.588,1.457,1.882,1.112,2.015.741,1.991.635,3.853v3.915l-.4,2.568-.635,1.945-1.669,3.807L2843.7,1408.3l-.926,2.2-.637,2.242-1.324,8.937-1.139,4.208-.768,1.967-1.032,1.916-1.254,1.863-3.259,3.716-23.563,18.662-5.015,5.207-2.489,3.7-.768,1.936-.45,1.992-.187,3.935.266,2.911,5.826,22.939,4.564,27.1,2.57,6.83,1.588,2.918,1.616,2.4,3.559,3.858L2837.1,1552.2l13.9,8.039,5.985,4.641,3.585,4.206,2.939,4.376,2.041,4.1,2.473,7.048,1.907,19.326.635,2.666,1.165,3.2,7.293,15.348,3.283,10,1.352,6.988.1,1.073.582,2.549-1.66,7.154-6.348,15.217-.928,7.5.24.453.009,2.6-.53,3.992-.424,10.307,1.519,13.09-.035,2.18-1.19,9.4-.107,4.333-.37,2.2-.353,5.987.353,2.381,2.234,7.79.086,3.464-1.827,6.747-.291,1.872-1.581,1.586-.582,1.368-1.405,2.063-1.826,1.664-1.934,1.275-2.127.978-2.067.671-4.131.639-10.956-.387-4.054.623-2.038.677-1.8.914-1.51,1.318-.873,1.1-.486.7-1.139,2.416-1.192,5.753-.5,5.372.346,3.169.846,2.611,1.563,1.84,1.863,1.55,7.708,4.561,3.956,1.848,1.907,1.377,1.667,1.882,1.458,3.5-.079,2.421-1.086,2.051-1.907,1.2-2.146.8-20.995,2.972-4.325,1.045-2.014.816-1.96,1.075-1.987,1.369-3.77,3.637-3.205,3.764-4.114,6.054-1.005,1.915-2.12,8.171-2.436,14.117-1.272,4.905-1.465,3.287-.794,2.6-.9,4.611.557,2.838,1.4,2.059,1.836,1.04,2.013.759,6.949,1.333,17.065.592,23.044-3.42,2.039.273,1.749.958,1.165,3.375.133,2.973-.637,3.438-1.032,2.49-1.483,2.578-14.983,16.124-4.4,6.01-8.327,18.6-5.083,16.727-1.545,3.432-.584.993-1.614,2.081-1.723,3.5-1.721,5.168-2.066,10.472-1.616,5.036-1.729,3.479-1.51,1.857-1.219,1.848-3.443,7.145-1.6,1.838-1.88.713-1.775-.488-1.4-1.533-2.118-3.571-1.483-1.609-1.785-1.087-1.985-.47-2.014.067-4.715.862-2.314-.005-2.278-.477-2.039-.983-7.77-6.432-3.761-2.477-2.1-.724-2.038-.206-2.253.307-4.775,1.384-54.368,26.01-1.907.216-1.863-.168-14.681-3.93-3.9-.139-2.093.249-2.145.493-2.3.785-2.287,1.08-2.488,2.049-2.384,2.652-2.993,4.779-1.325,2.943-.7,2.721v1.946l.644,4.066,2.834,10.89,1.086,10.065-.106,1.213-1.3,5.925-1.087,2.933-1.43,2.9-12.015,15.359-6.014,4.744-2.761,1.6-4.134,1.909-4.218,1.423-4.054.681-8.669.482-4.291.635-4.219,1.246-4.265,2.1-2.3,1.813-2.26,2.336-2.568,3.892-1.272,2.765-.555,2.531.345,1.964.9,2,1.511,1.791,1.748,1.721,7.53,5.5,1.7,1.831,1.252,2.006.248.557.034.074-.591,1.212-8.423,17.318-2.26,1.361h-23.148l-16.635-.009-16.641-.009h-83.141l-16.617-.01h-66.534l-16.615-.009-16.617-.011h-49.9l-16.641-.009H2208l-16.617-.009-16.633-.01H2091.6l-16.641-.009h-33.241l-16.632-.011-16.635-.008h-83.149l-16.617-.009h-66.517l-16.615-.009-16.633-.011h-49.884l-16.614-.009h-33.25l-16.652-.011-16.633-.008h-49.866l-16.623-.009h-66.534l-16.615-.011V1071.3h3.2l397.181-.27H2153.6l347.607.05-2.014,4.131-.821,2.353Z" transform="translate(21.833 342.253)" fill="none" stroke="#00b1ff" stroke-width="1.5"/>
        <path id="Path_70839" data-name="Path 70839" d="M2326.177,1411.211l-1.272,4.393-.052,10.028-.556,2.7-.741,1.743-1.669,1.262-1.43.809-2.975,2.512-16.219-12.459-3.559-3.858-1.616-2.4-1.588-2.918-2.57-6.83-4.564-27.1-5.826-22.939-.266-2.911.186-3.935.45-1.993.768-1.935,2.489-3.7,5.016-5.206,23.562-18.663L2317,1314.1l1.254-1.862,1.032-1.916.769-1.967,1.139-4.208,1.323-8.937.638-2.242.926-2.2,7.186-12.378,1.669-3.807.636-1.944.4-2.569v-3.915l-.636-3.853-.741-1.99-1.111-2.015-1.457-1.882-1.669-1.588-1.81-1.282-1.854-.816-2.464-.453-2.912-.127-7.85.91-4.617,1.3-39.393,18.476-15.106,4.352-8.3,1.358-4.829-.22-3.127-.639-2.49-.781-4.193-1.955-2.992-1.778-1.721-1.341-27.071-25.57,6.711-6.276,1.854-1.219,1.8-.921,9.783-1.249,2.595-.827,2.127-1.358,3.92-4.989.954-.837,1.827-.782,2.065.364,2.156,2.166,5.033,8.448,3.4,3.871,3.681,2.955,4.054,2.209,2.311.092,1.8-.176,4.609-4.962,5.279-1.176,34.406-16.62,8.854-1.674,4.99-.394,10.867.679,13.332,3.924,3.292,1.746,4.211,2.983,5.889,5.48,6.737,9.129,2.41,4.33,1.8,4.351,2.437,8.865,1.828,13.926.212,6.794-.293,4.453-.872,5.132-1.59,5.04-8.723,18.162-3.205,4.417-3.769,4.277-16.537,14.939-11.238,12.561-2.579,3.754-1.8,3.752-2.039,6.291-.318,2.73.318,10.04,2.941,14.176,1.906,5.311,2.181,4.028,1.509,1.953,5.43,5.091Z" transform="translate(541.451 459.792)" fill="none" stroke="#00b1ff" stroke-width="1.5"/>
        <path id="Path_70840" data-name="Path 70840" d="M2646.625,908.629l-1.744.922-1.448,1.1-1.221,1.38-1.224,1.838-.946,2.29-.555,2.02-.96,1.549-2.184.846.6.176.488.016.263.287-.083.99-1.46.734-1.125,1.02-.418,1.134.669,1.117-1.627.311-.75.527.124.759,1.084.965-1.987,1.914-3.936,6.23-.835.828-1.833.981-.848.741-.7,1.173-.544,1.156-.818,1.052-1.434.892v1.2l1.488,2.7-.569,2.806-1.337,2.718-.873,2.479v10.092l-.919,2.4-1.974,1.808-2,1.385-.919,1.146-.194,2.748-.639,3.128-1.07,3.016-1.586,2.452.417,2.267-.417,11.827.348,1.875,1.7,2.418.376,2.352-.514,2.289-1.279,1.082-1.558.58-3.823,2.487-.6,1.048-.5,2.59.111,1.192.863,3.972.195,11.607-4.561,3.319v1.222l.5,1.761.5,2.65v2.84l-1,2.3.611.69.558.88,1.054,2.308-1.556,1.046-.265,1.072.375,1.188.294,1.412-.377,2.045-.792,1.323-.792.976-.375.976-.917,3.447-4.005,5.675-2.377,8.99-6.868,10.4-2.183,5.556-.167.515.015.491-.2.3-.807-.11,2.224,5.966-2.058,3.8-3.893,2.925-3.379,3.369.5.412.154.087.418.949-2.322,1.146-1.266,2.555-1.612,8.63-.626,2.133-2.017,3.248-.334.126-.528,2.212-2.418,4.793-.557,2.331.167,3.267.473,2.526.751,2.146.945,2.116v1.208l-1.307,3.259,1.4,2.9,2.253,2.666,1.5,3.124,1.6,1.538.488,1.064-.015,1.437-.445.819-.46.559-.235.615-.138,2.422-1.559,6.8-2.032,5.427,2.952,5.421-2.838,13.64,1.279,1.449-4.449.668-1.39.653-.556,1.094-.529,1.794-.75,1.653-2.225,1.37-1.044,2.808-1.417.639-1.293.165-2.365.779-1.682.259.348.779.028.19.167.069.723.4-1.279,2.926-1.751,5.85-1.656,1.786h-1.166l-.543-1.023-1.417-.486-1.127-.882-1.183,1.172-1.152,4.285-1.572,2.2,1.4,2.381-2.155,2.075-3.352,1.462-2.294.557-1.583-.133-.46.087.681,3.033.529,1.146,6.173.064v1.194h-1.279v1.32l.889.793.585.889.86,2.269-1.668-.848-.667-.463.236.722v.353l.208.149.835.087v1.437h-1.279l-.835-1.7-2.976-4.021-3.252-3.426-1.46-1.2-1.739-.887-2.557-.866-16.461-1.822-4.1-2.674-11.43-13.94-.876-.637-1.473.142-9.748-8.992-2.182-1.172-2.238-.142-1.96,1.527-2.365-5.162-1.139,1.2-1.543-1.873-5.936-5.07-1.4-.685-.46-.284-.64-.856-.613-1.654-.541-.8-1.182-.937-1.307-.552-2.7-.614.1-4.844-8.189-5.08-.083-3.421-2.405-2.111-2.919-3.972-2.017-4.2.348-2.822-.821-.614-.7-.387-.555-.593-.362-1.183h-1.07v1.451h-1.266l-.526-.953-1.5-1.744-.3-.615-2.532-9.466-.918-1.421-1.224.844-1.32-2.611-4.021-6.016-1.652-3.174-22.343-13.45-1.1-2.038-.738-.261-3.935-7.032-3.294-3.067-2.032-2.349.029-1.091-10.928-8.121-1.78-1.882-.765-1.457-.542-1.59-1.419-2.421-1.877-2.208-1.988-1.021,1.071-1.448v1.448h1.251l-1.167-6.4-2.877-.474-1.448,2.6,3.17,2.826-2.863-.974-1.836-2.494-.946-3.585-.707-7.816-1.1-3.31-3.029-5.863,1.7-3.876,2.224-8.964,1.793-4.449-2.128-2.594-.973-1.538-.917-3.919-1.237-.945-1.5-.572-1.322-1.085-1.1-3.6-.541-8.668-.7-2.5v-1.2l1.486-1.827.264-1.684-.681-4.495-.348-1.033-.667-2.813-.305-2.924.805-1.35,1.252-1.288-1.224-2.64-1.975-2.154-1.043.144-.348-2.107-1.028-1.479-1.46-.564-1.71.628-1.778-2.29-4.617-2.512-1.779-1.742-2.127-4.916-.321-1.153-.527-1.066-2.488-1.99-.586-.946-.514-.335-2.864-4.4-.528-.366-1.417-.653-.5-.311-.276-.573-.446-1.584-.333-.525-7.7-8.018-2.7-.883-3.809-2.136-3.615-2.643-2.224-2.359-.932-3.092-.793-4.039-1.225-3.516-2.238-1.506-1.584-.63-1.126-1.547-3.461-8.4-.292-.136.625-7.307-.654-3.337-4.6-2.234-8.329-5.987h1.307l-.653-1.405-.737-.711-.918-.311-1.224-.255.417-.44.459-.392.293-.67-.112-1.286H2278.1l-.806,1.678-.4,1.533.25,1.293.96.967h-2.308l1.279-7.218.279-9.187-2-8.039-5.4-3.823v-1.222l1.028-2.359-.137-2.775-.612-2.9-.279-2.816.418-2.9,1.473-4.016.334-1.873-.125-3.3-.416-2.122-.667-1.618-1.017-1.762-4.17-5.173-.584-2.21-.208-.335.026-.021,34.664-24.353,47.057-2.256,109.009,19.34,43.746,23.587,34.672,13.133,19.812,10.674,21.339,7.786,71.3,11.18.009,0Z" transform="translate(593.586 150.233)" fill="none" stroke="#00b1ff" stroke-width="1.5"/>
        <path id="Path_70841" data-name="Path 70841" d="M2650.519,1028.95l-.008,0-71.3-11.18-21.338-7.786-19.812-10.674-34.672-13.133-43.746-23.587L2350.63,943.25l-47.055,2.256-1.271-1.829-1.484-2.67-1.509-4.142-2.1-40.175-3.231-18.373-9.041-23.523-15.669-25.19v-.03l-.347-.779-.608-2.656-.555-4.068-.373-17.64-6.991-68.989-.433-17.276.023-.222,0,0,.321.106,7.508.234,7.173-.924,12.723-3.344,15.167-7.5,2.949-2.29,7.035-3.575,1.918-1.446h1.167v1.5l-5.451,2.1-9.521,7.218-5.55,1.575-9.341,4.384-14.684,3.8h8.287v1.346l-2.447,1.364,5.228-.009,1.974-.77,1.084-1.932h1.058l.138,1.153.558.186.75-.147.972.154,10.513-6.8,8.843-2.776,1.75-1.437h1.058l.722,1.063,2.434.642-.57.981-1.306.163v1.364l1.793-.633,4.046-2.1v-1.485h-4.672v-1.227l2.308-.974,2.893.78,2.641,1.883,1.587,2.388.416,1.119.362,1.966.305,1.006h-2.362l5.672,2.077,2.641-.146,2.308-1.932v-1.485l-1.627-.951-.821-.291v-1.364l6.618-1.721,1.642-1.128-.848-1.5.375-1.446.919-1.673.72-2.193H2338.2l-1.1,1.357-3.547,2.735-.543.731-.57.6v.617l1.113.771-2.28.527-3.893-.065-4.033-.6-2.751-1.089,5.157-.518,2.934-3.055,2.155-4.02,2.711-3.436,2.057-1.008,4.228-.747,1.974-.976,3.281-3.137,1.976-.975,2.917.018V692.4h-4.754v1.243l2.126,1.584,6.131,8.075,1.836,3.4-.709,1.1-2.156.552-2.475,1.763-.208-.5v-.527l-.21-.333-.862.13v1.227l2.866,2,1.529,2.574-.069,3.052-1.877,3.392,6.116-2.482,3.17-.731,2.267.373,1.154-.243.807.009,1.543.234v-1.233l-2.336-1.485h-1.167v1.485h-1.043v-1.485l9.065-3.557,2.489-1.9h1.25l-1.25,1.485,1.25,1.364,1.267-1.121,1.4-.121,1.209.851.7,1.754h1.264l.153-1.689-.055-2.013-.221-.318,2.46-.194-1.627-.869-1.7.243-1.615-.2-1.972-.406,18.673-1.494-1.5-3.62,2.21-.731,2.7-.213v-3.622l1.848.926.584.569h1.17l2.292-.649,6.813,3.581,3.2,1.031,12.472,1.3,3.337,1.428v-1.371l3.879,1.176,5.673-.373,35.26-9.226,32.922-13.126,25.875-16.812.3-.193,4.158,7.708.989,3.294,3.067,9.548,1.755,5.453,6.726,21.032,5.387,16.8,6.55,17.348,8.7,23.108L2581.3,799.6l3.727,15.786.371,8.2,1.024,3.371,2.719,3.72v.011l1.694,2.448-.033,2.694-1.625,5.92-.3,3.482.371,2.281,1.183,1.864,9.322,8.2,1.89,2.833,5.667,16.32,10.082,29.151,6.623,19.026.476,1.1.3,1.162.1,1.183-.089,1.212,1.08,10.711,7.485,20.6,6.693,18.5,4.4,20.246-.317,13.582,1.2,4.7,3.9,8.132,1.474,2.8-.2.106Z" transform="translate(589.693 29.912)" fill="none" stroke="#00b1ff" stroke-width="1.5"/>
      </g>
    </g>
    <g id="Pins" transform="translate(9271.944 276.194)">
      <g id="Group_12533" data-name="Group 12533" transform="translate(75.146 115.338)">
        <ellipse id="Ellipse_9" data-name="Ellipse 9" cx="20.671" cy="20.671" rx="20.671" ry="20.671" transform="translate(0 0)" fill="#f80"/>
        <text id="_6" data-name="6" transform="translate(15.561 27.669)" font-size="19" font-family="Lato-Bold, Lato" font-weight="700"><tspan x="0" y="0">6</tspan></text>
      </g>
      <g id="Group_12534" data-name="Group 12534" transform="translate(177.663 391.08)">
        <ellipse id="Ellipse_9-2" data-name="Ellipse 9" cx="15.643" cy="15.643" rx="15.643" ry="15.643" transform="translate(0 0)" fill="#fff"/>
        <text id="_5" data-name="5" transform="translate(11.823 19.822)" font-size="12" font-family="Lato-Bold, Lato" font-weight="700"><tspan x="0" y="0">5</tspan></text>
      </g>
      <g id="Group_12538" data-name="Group 12538" transform="translate(22 109)">
        <ellipse id="Ellipse_10" data-name="Ellipse 10" cx="13.408" cy="13.408" rx="13.408" ry="13.408" transform="translate(47 62)" fill="#fff"/>
        <text id="_2" data-name="2" transform="translate(57.544 77.704)" font-size="9" font-family="Lato-Bold, Lato" font-weight="700"><tspan x="0" y="0">2</tspan></text>
      </g>
      <g id="Group_12535" data-name="Group 12535" transform="translate(182.901 152.578)">
        <ellipse id="Ellipse_9-3" data-name="Ellipse 9" cx="16.202" cy="16.202" rx="16.202" ry="16.202" transform="translate(-48 -22)" fill="#fff"/>
        <text id="_2-2" data-name="2" transform="translate(-35.618 -1.062)" font-size="12" font-family="Lato-Bold, Lato" font-weight="700"><tspan x="0" y="0">2</tspan></text>
      </g>
    </g>
  </g>
</svg>
