<svg xmlns="http://www.w3.org/2000/svg" width="682.541" height="607.525" viewBox="0 0 682.541 607.525">
  <g id="Map" transform="translate(-9006.033 -240.464)">
    <g id="EGY-outline" transform="translate(7508.74 -386.537)">
      <path id="Path_70790" data-name="Path 70790" d="M2109.7,689.386l-.363-.125-.1-.1-.147-.091-.069.126-.4,3.083-.528,1.722-.069.517.285.37.32.151.345.091.519.219.156.035.617-.2.476-.283.571-.164.545-.1.51-.235.294.045.216.16-.078.336.1.489-.358,1.847-.135.288-.608.4-.652.092-.6.182-.461.662-.13.82.2.513.262.511.051.82-.371.547-.568.467-.2.514.752.69-.294.129-.19.131-.234.111-.424.073.338.222.372.319.308.334.124.254-.029.7-.121.183-.233.023-.378.227-1.268.372-.28.277.147.46.271.458.533.577.216,2.733.38,1.59.121.21.259.041.26.134.121.483.188,1.754.657,2.984-.081,1.744-.85,2.963-.141,1.51-1.2-.777-.433-.762-1.167-1.075-.462-.338-.25-.479-.121-.46-.363-.352-.415-.285-.8-.432-.683-.244-1.965-.24-.821.162-.3.022-.138-.214-.173-.389-1.141-1.922-.208-.191-.164-.033-.952.466-.262.081-.423.03-.294-.024-.484-.09-.994.126-.26-.077-.528-.67-.452-.062-.475-.195-.908-1.091-.579-.251-.64-.064-.66.1-.605.195-.631.3-.562.342-2.855.347-.571.169-.735.476-.715.443-.135-.932-.294-.709-.51-.281-.268-.428.38-.917.562-.854.294-.24-.233-1.051-.579-.015-.752.244-.752-.285-.1-.717.406-.876.545-.753.326-.354,1.47-.4.7-.356.083-.611-.539-.4-.79.045-1.718.359,1.3-.908.259-.382.182-.635.043-.747-.217-.618-.6-.259-1.233-.272.17-.677.747-.866.49-.848-.271-1.072-1.326-2.065-.115-.375.668-.446.516-1.277.406-.079.406.131.147.094,3.289,1.2.657-.125.962-.393.813-.081.882.1.424-.2.15-.114-.089-.237.054-.106.213-.167.625-.306.545-.353.493-.151,4.015-.247.91-.432.493-.56.32-1.27.242-.577.173-.523.043-.374-.1-1.068v-.667l.086-.6.45-.579,2.986.152,1.245.562.591-.02,1.194-1.116.639-.308.643-.042.6.056.536.158.337.206,1.141,1.094Z" transform="translate(-245.778 -24.855)" fill="none" stroke="#00b1ff" stroke-width="1.5"/>
      <path id="Path_70791" data-name="Path 70791" d="M2226.211,698.924l2.282,22.522.122,5.759.181,1.328.2.867.113.254v.01l5.115,8.223,2.952,7.679-10.592-.749-1.75.153-1.793.536-.432.245-2.205,2.077-.245.152-1.634.764-.285.068-.7-.008-2.882-.442-.989-.3-.778-.325-1.625-1.081-4.823-.377-20.095.684-2.467-6.889-1.655-6.718-.207-2.349-.519-1.627-.545-.741-.631-.518-.623-.8-.262-.686.017-.671.124-.226.147-.094.251.035.346.1.112.01.19-.032,2.554.788.181.035,2.424-.015,1.5-.191.847-.3,1.43-.208,1.625-.055,1.516-.951,1.72-1.781,3.712-4.894,1.17-2.516.579-1.69-.717-3.42.043-2.507.7-1.6.345-1.147.779-1.329.79-2.434,1.651-2.077.337-1.032.078-.807-.017-.763-.519-1.979-.977-.74-.821-.495-.937-1.26-.034-.39h0l.209.04-.25-.5.014,0,4.819-.552,2.005-.463,1.425-.7,1.185-.325,16.221,9.441Z" transform="translate(-286.793 -25.532)" fill="none" stroke="#00b1ff" stroke-width="1.5"/>
      <path id="Path_70792" data-name="Path 70792" d="M2111.655,744.447l.611.833-.729.278-.5-.284-.363-.4-.317-.075-.325.477-.1.666.112.669.317.479v.4l-1.556,1.324-.876.373-.061.071-.233.166.018.391.075.455-.066.353-.449.363-.931.172-.524.309-.521.662-.078.543.029.612-.19.873-.366.793-.152-.095-.179-.445-.444-.254-.51-.05-.049-.035.129.226.015.744.06.444.147.379-.049.4-.5.5-.588.282-.513.013-1.219-.3.611.907,1.45,1.07.605.75.02.653-.193,2.876.409.449.164,1.02.014,1.818.233.741,1.052,1.483.617,1.1-.868-.5-.654-.382-1.38-1.141-.667-.325-.758-.632-.449-.145-.49.13-.772.609-.436.183-1.142-.014-.986-.359-.691-.673-.259-.956-.063-1.447-.173-.674-.354-.285-.07-.16-.657-.309-.62-.192-.53-.2-.165-.042-.383-.9-.106-.654.017-.724-.084-.584-.415-.242-1.5-.381-1.758,1.264-1.012-.488-.363-.915.372-.887,2.579-.725-.354-.723-1.6-1.118-.156-.924.156-.931.251-.843.13-.655-.107-.682-.277-.734-.758-1.457.415-.6.4-.741.277-.849.052-.939-.449-.161-.415.08-.363.017-.294-.34-.161-.537.014-.526.277-.437.631-.269v-.482l-1.139-.562-.7-1.154-.354-1.569-.124-2.759.715-.442.735-.476.571-.169,2.855-.347.563-.342.631-.3.605-.195.66-.1.64.064.579.251.908,1.091.475.195.452.062.528.67.259.077.994-.126.484.09.294.024.423-.03.262-.08.951-.466.164.033.208.191,1.141,1.922.173.389.138.214.3-.022.821-.162,1.965.24.683.244.795.432.416.285.363.352.121.46.25.479.462.338,1.167,1.075.432.762,1.2.776Z" transform="translate(-247.58 -44.529)" fill="none" stroke="#00b1ff" stroke-width="1.5"/>
      <path id="Path_70793" data-name="Path 70793" d="M2164.365,783.736l.07,3.674,1.461,6.288,1.2,13.226-.415,5.744-35.546,1.5-.452-.825.389-.758.357-1.352-.009-2.437-.441-2.678-.7-2.429-.787-1.678-1.423-1.653-.611-.963-.251-1.18.917-6.89,3.824-1.446.19-.125.141-.13.138-.167.109-.213.1-.27.112-.521.07-.185.094-.11.165-.045.216.035.354.175.216.14.25.035.337-.07.657-.295.346-.235,1.231-.553,2.753-.512,8.566-.387,13.9-9.6,2.467,6.889Z" transform="translate(-264.81 -62.303)" fill="none" stroke="#00b1ff" stroke-width="1.5"/>
      <path id="Path_70794" data-name="Path 70794" d="M2127.865,749.931l-1.228,1.125-1.429,1-.623.822-.311.729-.086,1.109-.709,2.281-.095,1.787.4.471.951.781.544,1.156.406.591.522.511.553.678.536.84.415,1.592.5,1.033.475,1.319.461.607.545.537,11.612,5.811-8.566.387-2.753.512-1.231.553-.346.235-.657.295-.337.07-.251-.035-.216-.14-.354-.175-.216-.035-.164.045-.095.11-.07.185-.113.521-.1.271-.109.213-.139.167-.141.13-.191.125-3.824,1.446-.026-.595-.15-.613-.326-.493-.553-.33-2.182-.255-.726-.373-1.179-1.253-.617-1.1-1.052-1.482-.234-.741-.014-1.818-.165-1.02-.409-.449.194-2.876-.02-.653-.605-.75-1.45-1.07-.611-.907,1.22.3.512-.013.588-.282.5-.5.049-.4-.147-.379-.06-.444-.015-.744-.13-.226.049.035.51.05.444.254.179.445.152.095.366-.793.19-.873-.029-.612.078-.543.521-.662.525-.309.931-.173.45-.363.066-.353-.075-.455-.018-.391.234-.166.061-.071.876-.373,1.556-1.324v-.4l-.317-.479-.112-.669.1-.666.325-.477.317.075.363.4.5.284.729-.278-.611-.833.141-1.51,1.637.623.709.547.761-.035.729-.206.475-.341,1.219.36Z" transform="translate(-258.118 -50.576)" fill="none" stroke="#00b1ff" stroke-width="1.5"/>
      <path id="Path_70795" data-name="Path 70795" d="M2007.67,953.518l-1.775,15.49-.285,1.323-.329.729-2.718,4.661-1.608,4.218-.337,1.44-.13,1.136.078.685.562,2.863.242,2.73.121.726.242.742,3.012,5.921.873,2.525.294,1.72.461,5.96.32,1.42,1.288,3.368.277,1.224.251,1.922.043,1.481-.043,1.008-1,6.019-5.955.721-.588-.108-3.263-1.291-.363,0-.539.05-1.781.395-1.055.02-1.516-.656.268-.768.657-1.349-113.477-.016,3.989-8.717,2.8-4.221,3.974-3.008,25.79-13.624,8.445-6.3,7.09-9.4,9.044-23.806,56.859-1.378.994,1.074,8.793,3.08Z" transform="translate(-160.717 -134.914)" fill="none" stroke="#00b1ff" stroke-width="1.5"/>
      <path id="Path_70796" data-name="Path 70796" d="M2069.448,887.56l-.225,2.7.207,2.536-.095.907-.406,1.182-.631,1.338-.986,2.63-.7,1.4-.773,1.177-2.484,2.682-1.573,2.083-3.22,5.225-3.746,5.037-1.179,2.2-1.046,2.935-.389,1.877-.1,1.289-8.793-3.08-.994-1.074-56.859,1.378,1.392-4.879L1989.111,901l24.256,4.486,3.715,2.671,2.64-.224,23.228-6.546,4.692-2.441,3.79-4.175,1.764-2.671,1.023-2.007,2.283-2.5,2.156-4.263,2.234-2.254,2.51-.071,1.435.211,1.66.515.833.422.5.342.475.41.38.489.528.938.268.634.15.648.017.694-.052.517-.15.737Z" transform="translate(-205.145 -106.141)" fill="none" stroke="#00b1ff" stroke-width="1.5"/>
      <path id="Path_70797" data-name="Path 70797" d="M2180.684,691.518l.034.39.937,1.26.821.495.977.74.519,1.979.017.763-.078.807-.337,1.032-1.652,2.077-.789,2.434-.778,1.328-.346,1.147-.7,1.6-.043,2.507.718,3.42-.579,1.69-1.171,2.516-3.712,4.894-1.721,1.781-1.516.951-1.625.055-1.43.208-.847.3-1.5.191-2.424.015-.181-.035-2.554-.788-.19.032-.112-.01-.345-.1-.251-.035-.147.094-.124.226-.017.671.262.686.622.8.631.518.544.741.519,1.627.207,2.349,1.655,6.718-13.9,9.6-11.612-5.811-.545-.537-.461-.607-.475-1.319-.5-1.033-.415-1.592-.536-.84-.553-.678-.522-.511-.406-.591-.544-1.156-.951-.781-.4-.471.095-1.786.709-2.281.086-1.109.312-.729.623-.822,1.429-1,1.228-1.125,1.292-1.478.259-1.3-.06-1.256-.13-.613-.354-1.162-.254-1.828-.492-2.243.034-1.317.164-.9.346-.73.461-.552.545-.433.9-.334,1.081-.244,2.718-.055.528.1.548.023.865-.136.527-.176,1.862.237.709-.1.882-.525.554-.725,1.715-1.471.328-.584.061-.574-.2-1.026.026-.752.424-.462.493-.207.614-.161.426-.207.718-.534.364-.653.276-.763.528-1.092,2.926-3.494,2.052-3.873.285-.358.113-.03.268-.024.277.016.381.075h.276l.122-.02.225-.071.259-.036.427-.014.1-.035.484-.252.25-.039.139,0,.121.029.424.18.233.057.13.014.13,0,.251-.078.38-.17.121-.031.79-.074,2.614-.622.665-.063.121-.035.121-.056,1.712-1.366.219-.071.26-.032.986.035.138-.01.553-.251,1.7-1.126h0l.122.376.336.366.531.193v.488l-.568.149-.408.252-.277.384-.2.546.282.127.445.319.536-.345.5-.093.458.127.381.31v.405h-.381v.485l.558.485.708.336.744.029.685-.448v-.4l-.816-.021-.558-.424-.345-.646-.182-.689.836.18,1.125.575.526.1Z" transform="translate(-266.893 -25.059)" fill="none" stroke="#00b1ff" stroke-width="1.5"/>
      <path id="Path_70798" data-name="Path 70798" d="M2241.458,785.781l1.055,6,.686,13.115.493,1.352.484.872.415.6-11.315,7.95-.009.007-.186-.3-1.28-1.326-1.171-.573.281-.625.581-.6.309-.2-.009-1.8-.717-1.254-2.283-2.262.495-.33.218-.3-.045-.3-.318-.346.318-.118.109-.118-.109-.121-.318-.12-.227-.382-.263-.351-.309-.309-.1-.257.064-.166.186-.133.222-.1.431-.058v-.4l-.132-.471v-.378l.132-.55h-.349l-.722,1.564-.063.686.145.508.308.356.273.469.059.848h-.414l-.131-.814-.435-.443-.627-.028-.708.408-.926-.346-1.09.7-.948,1.186-.5,1.092-.063,1.181.34.958.785.67,1.257.3-1,.822-4.662,6.567-.277.51-.567.617-1.611,2.963-.327,1.045-.036,2.656-.327,1.084-.776.882v.478l.594.478.631.882.5.9.454,1.354.608.67,2.842,1.849.708.607,2.564,3.024,1.743,1.053,1.584,1.652,1.352,1.839.572,1.255.218,1.575.563,2.108.736,1.967.762,1.158v.4l-.2,1.141,1.533,6.278-5.372.06-1.067.135-2.291.734-1.585.979-17,7.457-1.2.38-.847.168-4.517-.252-7.661,1.14-2.363-1.075,3.542-49.179-.207-2.981.414-5.744-1.2-13.226-1.461-6.288-.07-3.674,20.094-.684,4.823.377,1.625,1.081.778.325.989.3,2.882.442.7.008.285-.068,1.634-.764.245-.152,2.205-2.077.432-.245,1.793-.536,1.75-.153,10.592.749Z" transform="translate(-291.076 -65.748)" fill="none" stroke="#00b1ff" stroke-width="1.5"/>
      <path id="Path_70799" data-name="Path 70799" d="M2152.6,1156.6l9.363,6.546,2.459,2.4.865,2.077,1.3,2.2,1.456,2.01.588,1.139.3.974.285,2.773.138.709.85,1.679,1.349,2.079.873,1.124.778.829,1.006.708,1.461.775,1.611.623,3.652.823.709.28.865.582.582.7.5.747,1.5,2.834,5.9,7.447-1.5,1.62-.588.057-.755-.03-1.323-.721-1.2-.965-1.11-1.263-1.643-2.758-.7-.707-.674-.119-.6.255-.312.273-1.28,1.628-.694.444-.847.27-3.194.408-.588.3-.605.4-2.191,2.049-23.333-29.306-5.3-4.546-7.747-9.614,5.194-2.819.623-.5.527-.528.372-.512.372-.643.556-.766.432-.424.346-.213.614-.019.708.3.971.924.45.545.406.708.882,1.987.458.759.547.676.64.533.822.337.64.191,2.234-.276Z" transform="translate(-268.005 -219.323)" fill="none" stroke="#00b1ff" stroke-width="1.5"/>
      <path id="Path_70800" data-name="Path 70800" d="M2146.9,913.431l2.364,1.075,7.66-1.14,4.517.252.847-.168,1.2-.38,17-7.457,1.586-.979,2.291-.734,1.067-.135,5.372-.06h0l.154.629.041,1.384-.309.525-.554.509-.3.737-.6.275-.2.566.426.675-.285,1.895-.1,2.241.368.69,1.711,1.774.589.8.177.674.041,1.286.2.651,1.262,1.392.227.15,2.324,3.28,1.97.347,1.248,1.352.767,1.926,2.488,9.428.2,1.31.595.222,2.66,1.514,1.348,1.307.676.842.522,1.136.54.207.627.149.508.3.181.39.381,1.288,1.6,3.1.5.457.014.276-.082.077-.159-.005-.2.042,2.474,2.04,1.066,1.362-.077,1.361.426.356.382.712.272.789.1.559.227.211,1.257,1.773,2.646,2.836.649,1.357.558.335.64.273.463.345.267.845-.036.7.181.478.935.178.953.486,1.852,2.277,1.212.692-.077.4.077.514v.38l-.114.519.417.391.663.16.59-.165.481.936,1.225.545,2.514.676,3.949,3.632,1.275,2.692.667.614.391.645,1.217,2.9.122.76v.393l.273.485.213,1.224.277.485v.39h-1.144l-.64-1.4-1.316-.8-1.489-.559-1.162-.69h-.377l-.34.9-.145.532.109.462.376.69,1.063,1.1.585.782.254.957.359.505.8-.243.8-.37.359.108-.082.859-.218.908-.368.843-.508.656.223.224.3.4.24.2,1.008.743.358.118.163.248.54,1.161.25.348v.43l-.586-.494-1.321-1.694h-.413v.466l.2.336.218.566h-.413l-.349-1.23-.985.1-1.08.871-.6,1.076,1.3.682.925,1.235,1.584,2.812-.218.4-.141.507-.073.6.05.681.926.686,2.438,1.116.826.773.163.573.073,1.378.177.627.376.524.944,1.015.4.624.354,1.273.408,2.791.381.869,1.848,1.767,2.151,1.466,2.361,1.144,1.1.778.726,1.075.118.659-.118,2.378-.127.21-.508.418-.127.23.037.367.277.546.068.373.054,1.385.236,1.074.581.862,1.049.742.957.9,1.017,1.381.409,1.039-.836-.112.009,1,.39.856,1.116,1.559.477.947.7,1.853.536.851.708.57.808.433.676.471.286.68.368,1.979.05,1-.417.692-.917.049-.609-.58-.508-.214-.635,1.175-.137.827v1.111l.109,1.1.218.821.013,1.619-1.1,3.793.517,1.816.781.655,1.807.556.88.528.581.873.553,1.928,1.812,2.4.794,1.71,1.906,5.5.826,1.642,1.135,1.743.744,1.568,1.348,2.008,4.712,10.9,2.179,3.209,2.1,5.34,4.394,6.118.417.8.545,1.755,3.74,5.592,2.033,2.227.463.657,4.847,9.629.763,2.928,1.352,2.615.586,3.152,1.007,1.708,2.419,3.069.336.771.526,1.8.345.836,1.67,2.573.667,2.637,2.583,4.486,4.792,8.341.218,1.975.6,1.668.9,1.09,1.107,1.316.182,1.126.05,2.3.149,1.153.313.918.45.687.644.57.881.57,1.443,1.337.962,1.762,1.3,4.821.309.8.971,1.6,1.063,1.948.8.692.021.989-.9,1.89.006,1.684,2.3.891,2.774,5.24,7.538,5.756,1.185,1.427,2.052,5.922,1.511,1.649,2.125,3.061.93-.142-.414-.848-.519-.848.565-.095,1.131,1.177,1.554.659,2.025,2.118.8,1.694.142,1.788,1.693,1.035,1.741-.329,1.364.377,1.459.471,1.176.613.847.895,1.175,2.73.988,1.319-.377.564-.847-1.178-1.129-1.224-.8-.048-2.024.938-.848.422-1.129-.472-1.033-.422-1.034-.188-.753.094-.846-.141-1.035-.423-.376-.517-.639-.754-.577-.2-.05-.31-.852-.385-1.191-.325-.5.374-.764,1.43-.409,1.818.378,2.915-.515,2.539-.371,1.855.471,1.55,1.032.231.47.751-.046.893-.179.437.086,1.019.047.7.1,1.361-.261,2.524-.1,5.285-.123.956-.545,1.69-.127.921.218.891.518.92,1.2,1.719.957,1.786.345.947.218,1-.063,2.873.438,2.923.515,2.226.406,1.995,2.589,4.445.785,1.72,1.086,2.254.735,5.523.4.969,1.129,2.089,2.329,2.916,1.484.82-.672-.941-1.575-2.779,1.089.035.713.544.485.887.377,1.052.6,2.975.168.48.912.643.463.679.395.753.721.852,1,1.32,2.143,1.65,2.019.821,1.005.332.163.231.708.5.762.393.831.254,3.1.219,4.494.876,4.3,1.451,1.579.981,2.71,2.6.885,1.46.325,2.789.951,1.835,1.66,1.478,1.748,1.32.858.393.829.354-.178-.947h.3l1.185,1.36-.294,1.716.948,2.483,3.786,1.713,1.833,1.064,1.242.827,3.373,2.839,5.042,4.845,1.062.574.826-.081.209-.36.109-.375.2-.226.45.118.966.632.454.412.3.412.767,1.808.491.718.84.782,2.157,1.308,1.307.48.212,2.183-.041.744-.368.646-.449.607-.009.057h-13.037l-12.976,0-12.976,0h-25.957l-12.981,0h-38.926l-12.981,0-12.975,0h-51.911l-11.78,0H2126.02l0-.017.075-.269,1.573-3.027,1.257-1.477,1.262-.982,1.219-.742,11.555-5.433.648-.51.954-1.23.752-1.339.459-.624.631-.578.743-.277.712-.124,1.9-.053.677-.129.666-.241.623-.36,2.251-1.656.77-.821.986-1.276.925-1.544,3.62-10.238.614-1.314.4-.582.545-.44.6-.213.617.08.64.281.614.384,2.554,2.075,2.3,2.68.522.416.6.387,1.366.649,1.421.461.735.118,3.1.075,2.666-.449,2.527-.812,1.107-.574.968-.641,2.061-1.848,1.776-1.963,7.225-6.564,1.444-1.889.754-1.253.32-.823.2-1.077.069-1.748-.363-2.628.043-.813.432-.83,1.1-1.071.381-.563.57-1.818.289-.577.458-.426.553-.092.6.15.64.419.64.568,2.432,2.635,1.326,1.013.623.28.6.166.6.094.545.009,4.562-.76,1.418.136,1.291.441,1.306.809,4.493,4.639,3.617,2.7.579.277.588.186.553.03.479-.309.225-.68-.121-1.547-2.364-7.9-.337-.633-.47-.615-1.081-.978-.493-.6-.726-1.347-.467-.6-.564-.479-.64-.352-3.315-1.238-3.833-2.352-.579-.5-.38-.669-.121-.741.328-.868,1.089-1.2.415-.594.3-.61.778-2.091.392-.711.545-.6,1.7-1.367.375-.539.312-.623,1.98-5.154.423-1.521.1-.664-.052-.847-.207-.952-.649-1.4-1.574-2.46-.349-.939-1.228-5.669-.026-1.569.147-.992,1.136-1.862.248-.634.081-1-.346-3.223-.017-1.149.069-.921-.046-.82-.225-.905-.666-1.305-.605-.726-.623-.533-1.153-.777-1.063-.941-.9-1.207-.493-1.062-1.481-4.172-1.314-2.451-.51-1.4-1.577-10.433.493-4.166,1.179-4.839.519-1.1,4.559-6.04.833-1.331.692-1.347.207-.544.406-1.517.078-1.15-.078-.488-6.015-12.633-.277-.887-.38-2.185-.156-8.239-.484-3.644-.444-1.761-.718-1.819-1.928-3.325-2.087-2.7-11.312-8.685-1.772-1.662-.493-.638-.712-1.315-.623-1.734-.96-4.628-.1-3.278.1-.891.666-2.053.588-1.225.842-1.225,3.669-4.1,5.4-4.877,1.231-1.4,1.046-1.442,2.847-5.929.519-1.645.285-1.675.1-1.454-.069-2.218-.6-4.546-.8-2.894-.588-1.421-.787-1.414-2.2-2.98-1.923-1.789-1.375-.974-1.075-.57-4.352-1.281-3.548-.222-1.629.129-2.89.547-11.232,5.426-1.724.384-5.9-7.447-1.5-2.834-.5-.748-.582-.7-.865-.582-.709-.28-3.652-.823-1.611-.623-1.461-.775-1.006-.708-.778-.829-.874-1.123-1.349-2.08-.85-1.679-.139-.709-.285-2.773-.3-.974-.588-1.139-1.456-2.01-1.3-2.2-.864-2.077-2.459-2.4-9.364-6.546-5.964-12.5-1.288-2.178-.79-.968-3.5-3.607-2.311-1.95-1.28-.783-.4-.38-.416-.554-.432-.925-.885-2.54-.5-.9-.684-.9-1.228-1.111-.868-.588-.786-.422-3.531-1.107-5.661-2.411-4.888-2.837-.545-.491-.5-.648-.4-.709-.354-.828-.536-1.754-.181-.858-.087-1.843.2-5.561,1-6.019.043-1.008-.043-1.481-.25-1.922-.277-1.224-1.289-3.368-.32-1.42-.461-5.96-.294-1.72-.873-2.525-3.012-5.921-.242-.742-.121-.726-.242-2.73-.562-2.863-.078-.685.13-1.136.337-1.44,1.608-4.218,2.718-4.661.329-.729.285-1.323,1.775-15.49.1-1.289.389-1.877,1.047-2.935,1.179-2.2,3.746-5.037,3.22-5.225,1.573-2.083,2.484-2.682.773-1.177.7-1.4.986-2.63.631-1.338.407-1.182.095-.907-.208-2.536.225-2.7,4.078,5.043,1.176,1.027.372.429.4.6.772,1.774.251.461.657.843,2.208,2.323,1.081.85,1.66,1.016,1.057.509,20.527,6.233Z" transform="translate(-248.363 -110.907)" fill="none" stroke="#00b1ff" stroke-width="1.5"/>
      <path id="Path_70801" data-name="Path 70801" d="M2146.461,648.777l-.021.109-.182.606-.146.374-.277.459-.389.427-1.914,1.43-.969,1.131-.138.248.061.365.458.327,2.519.4.328.167.156.424-.095.451.034.457.164.334.372.177.415-.111.415.076.7.592.4.207.371.031.259.257.389.829.191.114.372.128.553-.263.354-.327.138-.382-.017-.259-.173-.608.012-.207.092-.263,1.084-.446.293-.044.346,0,.233.5.087.454.153.536-.214.28v.486l.36.51-.187.295-.467-.005-.467-.394h-.38l-.13.2-.1.231-.15.5,1.038.521-.095.747-.8.667-1.083.292-.946.071-.014.265.32.544.052.9-1.029,1.393-.939.308.126.8.225.6.389.3.683-.056,3.115-2.675,1.461-.785,2.484-.627,1.715-1.154.854-2.067.08-.037-.109-.114-.073-.029-.073-.064-.09-.239.79.335.382.082.522.029.449.271.091.6,0,.595.213.271.627.173.871.43.835.592.545.632.427-1.064.291-.438.426-.324-.232.605-.082.409.078.356.236.457h-.763v.446h.763l-.181.143-.159.1-.095.2.054.438.263-.042.155-.117.127-.159.209-.167.073.109-.018.162.064.146.263.069V664h.381l-.277.924.268.618.463-.037.308-1.019.649-.09.872-.929,1.062-.748,1.266.436h-.8v.446l.8.4.15-.27.35-.279.254-.3.8.446v.4l-.231.29-.095.218-.091.87.622-.287.177-.159-.09.549-.109.366-.2.242-.4.18v.406l.377.557.027.7-1.157,1v.445l.6.027.463-.133.327-.3.163-.488h.345l.072.689.05.156-1.7,1.126-.553.251-.138.01-.986-.035-.259.032-.219.071-1.712,1.366-.121.056-.121.035-.666.063-2.614.622-.79.074-.121.031-.381.17-.251.078-.13,0-.13-.014-.233-.057-.424-.18-.121-.029-.138,0-.25.039-.485.252-.1.035-.427.014-.259.036-.225.071-.122.02h-.276l-.381-.075-.277-.016-.268.024-.112.03-.286.358-2.052,3.873-2.926,3.494-.528,1.092-.276.763-.364.653-.718.534-.426.207-.614.161-.493.207-.424.462-.026.752.2,1.026-.061.574-.328.584-1.715,1.472-.554.725-.882.525-.709.1-1.862-.237-.528.176-.865.136-.548-.023-.528-.1-2.718.055-1.081.244-.9.334-.545.433-.461.552-.346.73-.164.9-.034,1.318.492,2.243.254,1.828.354,1.162.13.613.06,1.256-.26,1.3-1.292,1.478-1.219-.36-.476.341-.729.206-.761.035-.709-.547-1.637-.623.85-2.963.081-1.744-.657-2.984-.187-1.754-.121-.483-.259-.134-.26-.041-.121-.21-.38-1.59-.216-2.733-.533-.577-.271-.458-.147-.46.28-.277,1.268-.372.378-.227.233-.023.121-.183.029-.7-.124-.254-.308-.334-.372-.319-.337-.222.424-.074.233-.111.191-.131.293-.129-.752-.69.2-.514.567-.467.372-.547-.052-.82-.262-.511-.2-.513.13-.82.461-.662.6-.182.651-.092.608-.4.135-.288.358-1.847-.1-.489.078-.336-.216-.16-.294-.045-.51.235-.545.1-.571.164-.476.283-.617.2-.156-.035-.519-.219-.346-.091-.32-.151-.285-.37.069-.516.528-1.722.4-3.083.069-.126.147.091.1.1.363.125.928-.508.449-.364.631-.333.5-.009.337-.161-.19-.6-.943-.894-.32-.533-.061-.591.536-1.467.19-1.075-.061-1.882-.181-1.106-.061-1.131.182-2.9-.043-2.041-.5-3.943-.173-.634-.242-.589-.781-.9-.242-.345-.147-.537.051-.559.121-.573.2-.383,1.4-1.144,4.067-2.2.006,0h0l1.6.73,2.287,1.788,5.8,2.714,1.847.412.826-.027Z" transform="translate(-264.515 -6.035)" fill="none" stroke="#00b1ff" stroke-width="1.5"/>
      <path id="Path_70802" data-name="Path 70802" d="M2246.061,685.154l-.008.072.141,5.64-16.221-9.441-1.185.325-.1-3.6-.042-.073.135.034.277-1.939.018-.913-.295-1.114-.94-1.2-.136-.568.695-.5-.84-.481-.638-.233V670.8l.008-.458,2.446.481.744.571h.349l.631.082.136,1.091.581.836.83.55,1.716.453.64.613,1.049,1.353,2.369,2.3,1.035.793,1.579,2.733,1.466,1.323,1.666,1.047,1.9.588Z" transform="translate(-306.776 -17.475)" fill="none" stroke="#00b1ff" stroke-width="1.5"/>
      <path id="Path_70803" data-name="Path 70803" d="M2187.152,653.6l-.4.307-.2.122-.009.006-.358-.124-1.144-.128-.254-.233-.145-.3-.273-.272-1.484-.808-.6-.51-.231.024h-.418l-.168-.885-.349-.774-.454-.622-.518-.434h.726l.681-.085-2.809-3.52-.6-1.054-.8-1.062-.635-.367-.018.279-.935-.439-.363.232-.227.655-.763-.448-.014.21.041.445-.027.2-.2-.136-.386-.141-.213-.13.023.514-.1.364-.263.463h1.144l-.309.727.853,1.54-.164.9h.382v.41h-.382l.123.289.177.312.082.327h-.382l-.19-.8-.368-.6-.567-.362-.781-.059.209-.489-.222-.064-.4.436-.345,1.011.345.05.187-.08.231-.38.395.314.313.123.436-.027v.446h-.417v.482l.218.391.322.271.436.16.586.032-.4.409-.567.144-.554-.133-.39-.42h-.382l.036.343-.1.077-.168-.01-.182.077.254.189.2.213.345.492-.781.991-.159.747.5.423,1.2.027v.489l-.745-.144-.608-.244-.509-.048-.462.436h-.345l-.372-.4-.372.035-.277.388-.114.661.227.327.39.233.082.234-.7.3v.4l.317.621-.39.231-.635.16-.472.406-.118.922.35.573.613.162.6-.281h0l-.854,2.067-1.715,1.154-2.484.627-1.461.785-3.115,2.675-.683.056-.389-.3-.225-.6-.126-.8.939-.308,1.029-1.393-.052-.9-.32-.544.014-.265.946-.071,1.083-.292.8-.667.095-.747-1.038-.521.15-.5.1-.231.13-.2h.38l.467.394.467.005.187-.295-.36-.51v-.486l.214-.28-.153-.536-.087-.454-.233-.5-.346,0-.294.043-1.084.446-.092.263-.012.207.173.607.017.259-.138.382-.354.327-.553.263-.372-.128-.191-.114-.389-.829-.259-.257-.371-.031-.4-.207-.7-.592-.415-.076-.415.111-.372-.177-.165-.334-.034-.457.095-.451-.156-.424-.328-.167-2.519-.4-.458-.327-.061-.365.139-.248.968-1.131,1.914-1.43.389-.427.277-.459.147-.373.182-.606.021-.109h0l1.438-.048,8.415-2.426,5-2.861,2.034-.671,2.151.045,1.779.913.8,1.741.281.779,1.762,2.4.74,1.867.885,1.119,1.788,1.627.59.266,1.361.306.1.048Z" transform="translate(-276.082 -5.753)" fill="none" stroke="#00b1ff" stroke-width="1.5"/>
      <path id="Path_70804" data-name="Path 70804" d="M1771.875,671.065v.049l1.5,43.555,2.615,5.5,36.635,22.8-43.394,26.668L1733,806.3l-11.257,8.519-44.224,11.585-4.147,1.677L1670.732,831l-1.534,2.349-24.112,51.56-129.66.088h-1.046V788.921l-.386-3.678-.986-3.436-4.623-11.243-.554-2.215-.127-2.477.5-4.646.006-1.562-.807-2.64-2.859-4.837-.375-2.674.933-3.352.07-1.276-.254-1.446-4.8-12.072-1.573-2.852-.5-1.389.017-2.49.893-2.268,2.312-4.187.933-2.217.53-.9,1.51-1.927,1.689-1.728,3.256-4.966,1.09-2.221.525-2.188.184-1.289,1.689-4.463.588-3.568.692-2.594.836-2.227.352-2.241-.761-2.618-2.433-5.221-.726-3.316-1.954-4.038-.386-1.318-1.291-6.96-.052-5.343-.553-5.49.017-2.389.686-2.072,9.062-7.455,2.046-5.559,1.562-2.237,3.484-2.814-.082.5.69,4.277.617,2.094,1.008,1.315,1.207.335,2.837.176,2.156,1.121,1.153.008,2.551-.383.536.167.645.3.68.128,1.021-.591,1.375-.357,1.62-.186,9.069-2.631,10.462-3.551,2.5-.391,5.465.282,22.05,6.2,16.09,2.169.926.511.885.309,2.777-.2,1.13.114,3.99,1.94,2.287.718,2.56.021,2.024-.766.98-.093.953.636.771.734.563.24.518.037.626.144,1.525.891,3.513,1.188,3.776.4,1.389.407.908.683.345-.3.536-.332.227-.258.662.083,3.495-.064.382.117.408.266.417.452-.018.234-.1.239.122.457.418.829.254.361.281.148.163.194.082.98.15.383.395.733.554,1.952.563.9,1.334,1.141,1.607.913,1.77.605,3.486.533,1.389.573,1.243.252,1.235-.658,2.814,1.5,3.3-.589,6.482-3.174.957-.153.581.44.291.924.077,1.279.159.533.98,2.358.222,2.137.159.535,1.661,1,2.687.387,10.008-.016.654.167.5.382.445.43.454.318.694.19,1.657-.19,1.27.14,2.383.607,1.076.14,1.13-.281,2.423-1.213,1.276-.244,1.08.2,1,.459.867.622.667.7.49.276,1.988-.032.749.143.595.233.935.508,9.909,3.556,1.984,1.13,1.089.458,1.352.188.336.365.386,1.736.218.6.381.286,1.04.314,9.69,5.127,8.987-.4,1.657-.312,7.63-3.706,8.229-4.006,2.959-2.226,2.329-1.21Z" fill="none" stroke="#00b1ff" stroke-width="1.5"/>
      <path id="Path_70805" data-name="Path 70805" d="M2016.608,650.294l.027.005.922.162.533.78.1,1.27-.035,1.62.234.213.51.133.51.292.233.679.078.624.23.466.366.328.5.2.032-.238.181-.44.317-.282.441.251.242.248.473.288.219.172.32.356.251.41.164.52.06.68-.112,1.326-.314,1.248-.493,1.03-.637.671v.4l.225.147.043.06.017.079.13.2h.346v-.485h.38l.259.565.338,1.771-.006.376.954.03.014-.03.285-.045.175-.184.222-.18.424-.035.421.243.617.862.328.191.611.215.441.472,2.568,3.8,2.64,1.459.407.584.158.3.767,1.065.251.638.023.661-.176.965.153.555.481.378.951.95.571.971-.668.446.115.375,1.326,2.065.271,1.072-.49.848-.746.866-.17.677,1.233.272.6.259.217.618-.043.747-.182.635-.259.382-1.3.908,1.718-.359.79-.045.539.4-.083.611-.7.356-1.47.4-.326.354-.544.753-.406.876.1.718.752.285.752-.244.579.015.233,1.051-.294.24-.562.854-.38.917.268.428.51.281.294.709.135.932.124,2.759.354,1.569.7,1.154,1.139.562v.482l-.631.269-.277.437-.014.526.161.537.294.34.363-.017.415-.081.449.161-.052.939-.277.85-.4.741-.415.6.758,1.457.277.734.107.682-.13.655-.251.843-.156.931.156.924,1.6,1.118.354.723-2.579.725-.372.887.363.915-25.884,23.416-2.251,4.671-36.635-22.8-2.615-5.5,3.324-8.09,2.467-2.627,9.131-4.313,2.009-1.395,1.807-1.959,1.386-2.129,1.5-2.874-.761-2.42-.8-1.617-2.58-3.14-3.574-5.862-.406-1.146-.164-1.49.8-1.565,1.02-1.183.686-1.141.035-.368-.5-1.723-1.107-.668-.354-.651-.225-.325-.052-.227-.069-.208-.069-.523.026-.261.069-.229.078-.1.277-.235,3.176-1.429,3.79-2.256.631-.515,1.507-2.124,3.219-6.338.129-.4,2.091.64,2.042.223-.458.29-.631.727-.468.276-.036.33.082.1.172,0,.2.061-.667.448.2.507.608.478.59.35,2.319-1.381-.286.746.308.367.481.1.259-.053.218-.435,1.684-1.614.154.313.041.027.186.149.136-.377.118-.218.1-.265.059-.521h.349l-.027.7.114.531.268.358.409.193.222-.433.572-1.752-.858-.444-.79.191-.826.42-.99.233v-.4l.173-.032.408.056.182-.024v-.447l-.9.279-3.29.167v-.447l2.07-.533,1.961-1.108,3.409-3.079,1.207-1.988.776-2.635.222-2.737-.472-2.275h.381l.277,1.254.494,1.224.772.878,1.126.218-.02-.016Z" transform="translate(-200.104 -7.541)" fill="none" stroke="#00b1ff" stroke-width="1.5"/>
      <path id="Path_70806" data-name="Path 70806" d="M2063.551,865.422l-2.233,2.254-2.156,4.263-2.283,2.5-1.023,2.007-1.764,2.671-3.79,4.175-4.692,2.441-23.228,6.546-2.64.224-3.715-2.671-24.256-4.486,26.032-25.362,4.092-3.293,10.111-6.024,11.7-5.387,11.7-1.464,2.6,2.034,1.568,1.6,3.98,17.976Z" transform="translate(-207.805 -90.489)" fill="none" stroke="#00b1ff" stroke-width="1.5"/>
      <path id="Path_70807" data-name="Path 70807" d="M1998.8,668.489l-.129.4-3.219,6.338-1.507,2.124-.631.515-3.79,2.256-3.176,1.429-.277.235-.078.1-.069.229-.026.261.069.523.069.209.052.227.225.325.354.651,1.107.668.5,1.723-.035.368-.686,1.141-1.02,1.183-.8,1.565.164,1.49.406,1.146,3.574,5.862,2.58,3.14.8,1.617.761,2.42-1.5,2.874-1.386,2.129-1.807,1.959-2.009,1.395-9.131,4.313-2.467,2.627-3.324,8.09-1.495-43.555v-.049h0l.317-.164.4-.644.427-.479,8.215-6.009.867-1.718,1.552.366,1.62-.769,2.578-2.308-.5-.74-.213.047-.463.247.313-.661.435-.461.436-.013.34.69h.408l.64-.711,2.6-2.346.767-.5.735-.356,1.112-1.556.454-.356.772-.151.44-.359.368-.441.531-.388-.177-.071h-.149l-.086-.088.032-.327,1.525-.848-.163,1.868,1.575,1.259.2.061Z" transform="translate(-199.018 -15.355)" fill="none" stroke="#00b1ff" stroke-width="1.5"/>
      <path id="Path_70808" data-name="Path 70808" d="M1965.044,787.09l1.179,1.253.726.374,2.182.255.553.33.326.493.149.613.026.595-.917,6.89.251,1.18.612.963,1.423,1.653.787,1.678.7,2.429.441,2.678.009,2.437-.357,1.352-.389.758.452.825,35.546-1.5.207,2.981-3.542,49.179-20.527-6.233-1.057-.509-1.66-1.016-1.081-.85-2.208-2.323-.657-.843-.251-.462-.772-1.774-.4-.6-.372-.429-1.176-1.027-4.078-5.043.15-.737.052-.517-.017-.694-.15-.648-.268-.634-.528-.937-.38-.489-.475-.41-.5-.342-.833-.422-1.66-.515-1.435-.211-2.51.071-3.98-17.976-1.568-1.6-2.6-2.034-11.7,1.464-11.7,5.387-10.111,6.024-4.093,3.293-26.031,25.362-2.269,16.094-1.392,4.879-9.044,23.806-7.09,9.4-8.445,6.3-25.789,13.624-3.974,3.008-2.8,4.221-3.989,8.717h-74.092l24.112-51.56,1.534-2.349,2.637-2.914,4.147-1.677,44.224-11.585,11.257-8.519,36.229-36.669,43.394-26.668,2.251-4.671,25.885-23.416,1.012.488,1.758-1.264,1.5.381.415.242.084.584-.017.724.107.654.383.9.165.042.53.2.62.192.657.309.069.16.354.285.173.674.063,1.447.259.956.691.674.986.359,1.141.014.436-.183.772-.609.49-.13.449.145.758.632.666.325,1.381,1.141.654.382.868.5Z" transform="translate(-106.868 -61.984)" fill="none" stroke="#00b1ff" stroke-width="1.5"/>
      <path id="Path_70809" data-name="Path 70809" d="M2099.31,639.436l-.006,0-4.067,2.2-1.4,1.144-.2.383-.121.573-.052.559.147.537.242.345.781.9.242.589.173.634.5,3.943.043,2.041-.182,2.9.061,1.131.181,1.106.061,1.882-.19,1.075-.536,1.467.061.591.32.533.943.894.19.6-.337.162-.5.009-.631.333-.449.364-.928.508-1.142-1.094-.337-.206-.536-.158-.6-.056-.643.042-.639.308-1.194,1.116-.591.02-1.245-.562-2.986-.152-.45.579-.086.6v.667l.095,1.068-.043.374-.173.524-.242.577-.32,1.27-.493.56-.91.432-4.015.247-.493.151-.545.353-.625.306-.213.167-.054.106.089.237-.15.114-.424.2-.882-.1-.812.081-.962.393-.657.125-3.289-1.2-.147-.094-.406-.131-.406.079-.516,1.278-.571-.971-.951-.95-.481-.378-.153-.555.176-.965-.023-.661-.251-.638-.767-1.065-.158-.3-.407-.584-2.64-1.459-2.568-3.8-.441-.472-.611-.215-.328-.191-.617-.862-.421-.243-.424.035-.222.18-.176.184-.285.045-.015.03-.954-.03.006-.376-.338-1.771-.26-.565h-.38v.485h-.346l-.13-.2-.017-.079-.043-.06-.225-.147v-.4l.637-.671.493-1.03.314-1.248.112-1.326-.06-.68-.164-.519-.251-.41-.32-.356-.219-.172-.473-.288-.242-.248-.441-.251-.318.282-.181.44-.032.238-.5-.2-.366-.328-.23-.466-.078-.624-.233-.679-.51-.292-.51-.133-.234-.213.035-1.62-.1-1.27-.533-.78-.922-.162-.027-.005-1.542-1.179-.83-1.929.358-1.152,2.034,1.149,1.507,1.147,1.715.713,2.015.229,2.415-.3,7.848-2.113,16.585-5.927v.447l-.844.12-5.152,1.95-4.312,2.484-2.955,1.413-2.383,1.626-.312.146-.763.128-.449.173-2.115,1.484-.971.338-2.215.167-.481.282-.25.005-.849,1.293v.486l1.148.311.4.008.354-.319h.381l.844.5,1.566-.085,1.511-.468.681-.632.5-1.05,1.116.306,1.167.968.645.912h.382l.354-1.135.862-1.144,1.03-.9.83-.426.5-.205.617.287.727.482.826.364.526-.067.717-.207.781-.077.671.351-.172.067-.155,0-.082.077.027.309.753.207.948-.309.948-.6.74-.673-.136-.07-.136.011-.086-.059.018-.293.19-.138.027-.059.009-.077.114-.21,1.911.846.376.495.517-.441.386-.514.622-1.322-.327-.543.2-.431.894-.769.163-.4-.059-.335-.018-.3.327-.306.323-.078,2.029.155.526.2.931.615.15.248-.019.3.1.256.531.087.449-.127.341-.306.222-.437-1.012-.511.358-.245.336-.122.381.059-1.075-1.488-2.247-1.678-2.655-1.153-2.519-.085.531-.3,1.385-.522,4.743-.719,1.743.195,5.147,1.638,7.191,3.288Z" transform="translate(-229.729 -2.313)" fill="none" stroke="#00b1ff" stroke-width="1.5"/>
      <path id="Path_70810" data-name="Path 70810" d="M2142.625,1528.437l-3.3,0,1.781-5.342,1.291-3.858.069-1.506-.5-1.338-1.228-1.207-1.026-.524-1.072-.168-1.072.193-1.043.56-1.442,1.588-2.516,5.168-.011-.024-.081-.182-.409-.655-.554-.6-2.458-1.8-.571-.562-.493-.585-.294-.654-.112-.641.181-.826.415-.9.839-1.271.738-.763.752-.592,1.392-.685,1.378-.407,1.4-.207,2.83-.157,1.323-.222,1.377-.464,1.35-.623.9-.524,1.963-1.548,3.922-5.014.467-.946.355-.957.423-1.934.035-.4-.354-3.286-.925-3.555-.21-1.327v-.635l.228-.888.433-.961.977-1.56.779-.866.812-.669.747-.353.752-.257.7-.161.683-.081,1.274.045,4.792,1.283.608.055.623-.071,17.749-8.491,1.559-.452.736-.1.665.067.686.236,1.228.808,2.536,2.1.666.321.743.156.755,0,1.539-.281.657-.022.648.153.583.355.484.525.691,1.166.459.5.579.159.614-.233.522-.6,1.124-2.333.4-.6.493-.606.565-1.136.528-1.644.674-3.418.562-1.687.563-1.144.527-.679.191-.324.5-1.12,1.66-5.46,2.718-6.073,1.435-1.962,4.891-5.263.484-.842.337-.813.208-1.122-.043-.971-.38-1.1-.571-.313-.666-.089-7.523,1.117-5.571-.193-2.269-.435-.657-.248-.6-.339-.458-.672-.182-.927.294-1.505.26-.85.478-1.073.415-1.6.795-4.609.692-2.667.328-.625,1.343-1.976,1.046-1.229,1.231-1.187.648-.447.64-.351.657-.266,1.412-.341,6.854-.97.7-.26.622-.392.355-.669.026-.791-.476-1.142-.544-.615-.623-.449-1.291-.6-2.516-1.489-.608-.506-.51-.6-.276-.852-.113-1.034.164-1.754.389-1.878.372-.789.159-.227.285-.358.493-.43.588-.3.666-.221,1.323-.2,3.577.126,1.348-.208.675-.219.694-.319.631-.416.6-.543.458-.674.19-.446.516-.518.095-.611.6-2.2-.028-1.131-.729-2.543-.115-.777.115-1.954.121-.719.035-1.415.389-3.067.011-.712-.5-4.273.138-3.365.173-1.3,0-.85-.078-.148.3-2.45,2.072-4.968.542-2.336-.19-.832-.032-.35-.441-2.281-1.072-3.263-2.381-5.01-.381-1.043-.207-.87-.623-6.309-.807-2.3-.666-1.337-.959-1.429-1.17-1.373-1.954-1.515-4.536-2.625.971-.82.467-.264.545-.412.242-.569.181-.882.018-3.274.415-1.434,11.312,8.685,2.087,2.7,1.928,3.325.718,1.819.444,1.76.484,3.644.156,8.239.38,2.185.277.887,6.015,12.633.078.488-.078,1.149-.406,1.517-.207.544-.692,1.347-.833,1.331-4.56,6.04-.519,1.1-1.179,4.839-.493,4.166,1.577,10.433.51,1.4,1.314,2.451,1.481,4.172.493,1.061.9,1.207,1.063.941,1.153.777.623.533.605.726.666,1.305.225.905.046.82-.069.921.017,1.149.346,3.223-.081,1-.248.634-1.136,1.862-.147.992.026,1.569,1.228,5.669.349.939,1.574,2.46.649,1.4.207.951.052.847-.1.664-.423,1.521-1.98,5.154-.312.623-.375.539-1.7,1.367-.545.6-.392.711-.778,2.091-.3.61-.415.594-1.089,1.2-.328.868.121.741.381.669.579.5,3.833,2.352,3.315,1.238.64.352.565.479.467.6.726,1.347.494.6,1.081.978.47.615.337.634,2.363,7.9.121,1.547-.225.68-.478.309-.554-.03-.588-.186-.579-.277-3.617-2.7-4.493-4.639-1.306-.808-1.291-.441-1.418-.136-4.562.76-.545-.009-.6-.094-.6-.166-.623-.28-1.326-1.013-2.432-2.635-.64-.568-.64-.419-.6-.15-.553.092-.458.426-.289.577-.57,1.818-.381.563-1.1,1.071-.433.83-.043.813.363,2.628-.07,1.748-.2,1.077-.32.823-.755,1.253-1.444,1.889-7.226,6.564-1.776,1.963-2.06,1.849-.968.641-1.107.574-2.527.813-2.666.449-3.1-.075-.735-.118-1.421-.461-1.366-.649-.6-.387-.522-.416-2.3-2.68-2.554-2.075-.614-.384-.64-.281-.617-.08-.6.213-.545.44-.4.582-.614,1.314-3.62,10.238-.925,1.545-.986,1.276-.77.821-2.251,1.656-.623.36-.666.241-.677.129-1.9.053-.712.124-.744.277-.631.578-.459.624-.752,1.339-.954,1.23-.649.51-11.554,5.433-1.219.742-1.262.982-1.257,1.477-1.573,3.027-.075.269,0,.017Z" transform="translate(-264.968 -294.721)" fill="none" stroke="#00b1ff" stroke-width="1.5"/>
      <path id="Path_70811" data-name="Path 70811" d="M2089.143,1075.586l-.2,5.561.087,1.843.181.857.536,1.754.354.828.4.709.5.648.545.49,4.888,2.837,5.661,2.411,3.531,1.107.786.422.868.588,1.228,1.111.684.9.5.9.885,2.54.432.925.416.554.4.38,1.28.783,2.311,1.95,3.5,3.607.79.968,1.288,2.178,5.964,12.5-2.234.276-.64-.191-.822-.337-.64-.533-.547-.676-.458-.759-.882-1.987-.406-.708-.45-.545-.971-.924-.708-.3-.614.019-.346.213-.432.424-.556.766-.372.643-.372.512-.527.528-.622.5-5.194,2.819-7.009-14.195-.683-.974-2.605-2.87-1.047-.873-.9-.625-5.156-2.124-2.709-1.605-7.41-6.988-.873-1.074-.96-1.421-5.168-11.093-.6-1.982-.173-1.718.225-2.432,1.516.656,1.055-.02,1.781-.4.539-.05.363,0,3.263,1.291.588.108,5.955-.721Z" transform="translate(-242.355 -187.672)" fill="none" stroke="#00b1ff" stroke-width="1.5"/>
      <path id="Path_70812" data-name="Path 70812" d="M1843.6,1073.163l-.225,2.432.173,1.718.6,1.982,5.168,11.093.96,1.421.873,1.074,7.41,6.987,2.709,1.605,5.156,2.124.9.625,1.047.873,2.605,2.87.683.974,7.009,14.194,7.747,9.615,5.3,4.547,23.333,29.306,8.837,8.347.562.438.977.58,1.369.638.813.255,1.02.208,1.577.072,2.709-.444,4.932-1.421,12.86-6.031,1.507-.423,2.563-.3.951.042.8.148.605.266.591.419.545.518.476.615.363.658.242.65.207,1.258v1.278l-.13.838-.207.635-.545,1.243-2.346,4.041-.3.718-.208.732-.432,2.918-.372,1.374-.251.642-.337.625-.409.608-1.064,1.213-7.692,6.092-1.637,1.7-.812,1.206-.251.632-.147.65-.061,1.284.087.95,1.9,7.489,1.49,8.848.839,2.23.518.953.528.784,1.162,1.26,5.295,4.067,4.536,2.624,1.954,1.515,1.17,1.373.96,1.429.666,1.337.807,2.3.623,6.309.207.87.38,1.043,2.381,5.01,1.072,3.263.441,2.281.032.35.19.832-.542,2.336-2.072,4.968-.3,2.45.078.148,0,.85-.173,1.3-.138,3.365.5,4.273-.012.712-.388,3.067-.035,1.415-.121.719-.115,1.954.115.777.729,2.543.028,1.131-.6,2.2-.095.611-.516.518-.19.446-.459.674-.6.543-.631.416-.694.319-.675.219-1.349.208-3.577-.126-1.323.2-.665.221-.588.3-.493.43-.285.359-.159.227-.372.789-.389,1.878-.164,1.754.113,1.034.276.852.51.6.608.506,2.516,1.489,1.291.6.623.449.544.614.476,1.142-.026.79-.354.669-.622.392-.7.26-6.854.97-1.412.341-.657.266-.64.351-.649.447-1.231,1.187-1.046,1.229-1.343,1.976-.328.625-.692,2.667-.8,4.608-.415,1.6-.478,1.073-.259.85-.294,1.505.182.927.458.672.6.339.657.248,2.269.435,5.571.193,7.523-1.117.666.089.571.313.38,1.1.043.971-.208,1.122-.337.813-.484.842-4.891,5.264-1.435,1.962-2.718,6.073-1.66,5.46-.5,1.12-.191.324-.527.679-.562,1.144-.562,1.687-.674,3.419-.528,1.644-.565,1.136-.493.606-.4.6-1.124,2.333-.522.6-.614.233-.579-.159-.458-.5-.691-1.166-.484-.525-.583-.355-.648-.153-.657.022-1.539.281-.755,0-.744-.156-.666-.321-2.536-2.1-1.228-.808-.686-.236-.665-.067-.735.1-1.559.452-17.749,8.491-.623.071-.608-.055-4.793-1.283-1.274-.045-.683.081-.7.161-.752.256-.746.353-.812.669-.778.866-.977,1.56-.433.961-.228.888v.635l.21,1.327.925,3.555.354,3.286-.035.4-.423,1.934-.355.957-.467.946-3.922,5.014-1.963,1.549-.9.523-1.349.623-1.377.465-1.323.222-2.83.157-1.4.207-1.378.407-1.392.685-.752.592-.738.763-.839,1.271-.415.9-.181.826.112.641.294.654.493.585.571.562,2.458,1.8.554.6.409.655.081.182.011.024-.193.4-2.75,5.653-.738.444h-7.557l-5.43,0-5.432,0h-27.141l-5.425,0h-21.72l-5.424,0-5.424,0h-16.29l-5.433,0h-21.706l-5.425,0-5.43,0h-27.145l-5.433,0h-10.851l-5.43,0-5.43,0h-27.144l-5.425,0h-21.714l-5.424,0-5.43,0h-16.285l-5.424,0h-10.854l-5.436,0-5.43,0h-16.279l-5.427,0h-21.72l-5.424,0V1071.118h1.046l129.66-.088h74.092l113.477.016-.657,1.349-.268.768Z" transform="translate(-11.873 -186.122)" fill="none" stroke="#00b1ff" stroke-width="1.5"/>
      <path id="Path_70813" data-name="Path 70813" d="M2239.594,1284.372l-.415,1.434-.017,3.274-.181.882-.242.569-.545.412-.467.264-.971.82-5.295-4.067-1.162-1.26-.528-.784-.518-.953-.839-2.229-1.49-8.848-1.9-7.488-.087-.95.061-1.284.147-.651.251-.632.813-1.206,1.637-1.7,7.692-6.092,1.064-1.213.409-.608.337-.625.251-.642.372-1.374.432-2.918.208-.732.3-.718,2.346-4.041.545-1.243.207-.635.13-.839v-1.278l-.208-1.258-.242-.65-.363-.658-.476-.614-.545-.518-.591-.419-.605-.266-.8-.148-.951-.042-2.563.3-1.507.423-12.86,6.031-4.931,1.421-2.709.443-1.576-.072-1.021-.208-.813-.255-1.369-.638-.977-.58-.562-.438-8.837-8.347,2.191-2.049.605-.4.588-.3,3.194-.408.847-.27.694-.443,1.28-1.629.312-.273.6-.255.674.119.7.707,1.643,2.758,1.11,1.264,1.2.965,1.323.721.754.03.588-.057,1.5-1.62,1.723-.384,11.232-5.426,2.89-.547,1.629-.129,3.548.222,4.352,1.281,1.075.57,1.375.974,1.922,1.789,2.2,2.98.787,1.414.588,1.42.8,2.894.6,4.546.069,2.218-.1,1.454-.285,1.675-.519,1.645-2.848,5.929-1.046,1.442-1.23,1.4-5.4,4.877-3.669,4.1-.842,1.225-.588,1.225-.666,2.054-.1.891.1,3.278.96,4.628.622,1.734.712,1.315.493.638,1.773,1.662Z" transform="translate(-294.449 -250.041)" fill="none" stroke="#00b1ff" stroke-width="1.5"/>
      <path id="Path_70814" data-name="Path 70814" d="M2389.575,850.906l-.569.3-.473.36-.4.451-.4.6-.309.748-.181.66-.313.506-.713.276.2.057.159.005.086.094-.027.323-.477.24-.367.333-.137.37.218.365-.531.1-.245.172.04.248.354.315-.649.625-1.285,2.034-.272.27-.6.32-.277.242-.227.383-.177.378-.267.343-.468.291v.393l.486.882-.186.916-.436.887-.285.809V869.5l-.3.782-.645.59-.653.452-.3.374-.063.9-.209,1.021-.349.984-.518.8.136.74-.136,3.861.114.612.554.789.123.768-.168.747-.417.353-.509.189-1.248.812-.2.342-.164.845.036.389.281,1.3.064,3.789-1.489,1.083v.4l.164.575.163.865v.927l-.327.751.2.225.182.287.344.753-.508.342-.086.35.123.388.1.461-.123.668-.259.432-.258.319-.123.318-.3,1.125-1.308,1.853-.776,2.935-2.242,3.4-.712,1.814-.054.168,0,.16-.064.1-.263-.036.726,1.948-.672,1.239-1.271.955-1.1,1.1.164.134.05.028.136.31-.758.374-.413.834-.526,2.817-.2.7-.658,1.06-.109.041-.173.722-.789,1.565-.182.761.054,1.067.155.825.245.7.309.691v.394l-.427,1.064.458.947.736.87.49,1.02.522.5.159.347,0,.469-.145.268-.15.182-.077.2-.045.791-.509,2.221-.663,1.771.964,1.77-.927,4.453.417.473-1.452.218-.454.213-.182.357-.173.586-.245.54-.726.447-.341.917-.463.208-.422.054-.772.254-.549.085.114.254.009.062.054.023.236.131-.417.955-.572,1.91-.541.583h-.381l-.177-.334-.463-.159-.368-.288-.386.383-.376,1.4-.513.719.459.777-.7.678-1.094.477-.749.182-.517-.043-.15.028.222.99.173.374,2.016.021v.39h-.418v.431l.29.259.191.29.281.741-.544-.277-.218-.151.077.236v.115l.068.049.273.028v.469h-.418l-.273-.554-.971-1.313-1.062-1.118-.477-.393-.568-.29-.835-.283-5.374-.595-1.339-.873-3.731-4.551-.286-.208-.481.046-3.182-2.935-.712-.383-.731-.046-.64.5-.772-1.685-.372.39-.5-.612-1.938-1.655-.458-.224-.15-.093-.209-.28-.2-.54-.177-.26-.386-.306-.427-.18-.881-.2.032-1.582-2.673-1.659-.027-1.117-.785-.689-.953-1.3-.658-1.37.114-.921-.268-.2-.227-.126-.181-.193-.118-.386h-.35v.474h-.413l-.172-.311-.49-.569-.1-.2-.826-3.09-.3-.464-.4.276-.431-.852-1.312-1.964-.54-1.036-7.294-4.391-.359-.665-.241-.085-1.284-2.3-1.075-1-.663-.767.009-.356-3.567-2.651-.581-.614-.25-.475-.177-.519-.463-.791-.613-.721-.649-.333.35-.473v.473h.408l-.381-2.091-.939-.155-.473.85,1.035.923-.935-.318-.6-.814-.309-1.17-.231-2.552-.359-1.081-.989-1.914.554-1.265.726-2.926.585-1.452-.695-.847-.318-.5-.3-1.279-.4-.309-.49-.187-.432-.354-.358-1.176-.177-2.83-.227-.817v-.391l.485-.6.086-.55-.222-1.467-.114-.337-.218-.918-.1-.954.263-.441.409-.42-.4-.862-.645-.7-.341.047-.114-.688-.336-.483-.477-.184-.558.205-.581-.748-1.507-.82-.581-.569-.694-1.6-.1-.376-.172-.348-.812-.65-.191-.309-.168-.109-.935-1.437-.173-.119-.463-.213-.164-.1-.09-.187-.146-.517-.109-.171-2.514-2.618-.881-.288-1.243-.7-1.18-.863-.726-.77-.3-1.009-.259-1.319-.4-1.148-.73-.492-.517-.206-.368-.5-1.13-2.741-.1-.044.2-2.385-.214-1.089-1.5-.729L2270,853.055h.427l-.213-.459-.241-.232-.3-.1-.4-.083.136-.144.15-.128.1-.219-.037-.42h-.345l-.263.548-.132.5.082.422.313.316h-.753l.417-2.356.091-3-.653-2.624-1.762-1.248v-.4l.336-.77-.045-.906-.2-.948-.091-.919.137-.946.481-1.311.109-.612-.041-1.079-.136-.693-.218-.528-.332-.575-1.361-1.689-.191-.722-.068-.109.009-.007,11.316-7.95,15.362-.737,35.586,6.313,14.281,7.7,11.319,4.287,6.468,3.484,6.966,2.542,23.276,3.65Z" transform="translate(-322.801 -81.699)" fill="none" stroke="#00b1ff" stroke-width="1.5"/>
      <path id="Path_70815" data-name="Path 70815" d="M2387.458,785.474h0l-23.276-3.65-6.966-2.542-6.468-3.484-11.319-4.287-14.281-7.7-35.586-6.313-15.361.737-.415-.6-.484-.872-.493-1.352-.686-13.115-1.055-6-2.951-7.679L2263,720.4v-.01l-.113-.254-.2-.867-.181-1.328-.122-5.759-2.282-22.522-.141-5.64.008-.072h0l.1.035,2.451.076,2.342-.3,4.153-1.092,4.951-2.449.963-.748,2.3-1.167.626-.472h.381v.488l-1.78.687-3.108,2.356-1.812.514-3.05,1.431-4.793,1.24h2.705v.44l-.8.445,1.707,0,.645-.251.354-.631h.345l.045.376.182.061.245-.048.317.05,3.432-2.22,2.887-.906.572-.469h.345l.236.347.794.21-.186.32-.426.053v.445l.585-.207,1.321-.684v-.485h-1.525v-.4l.753-.318.944.255.862.615.518.779.136.365.118.642.1.328h-.771l1.852.678.862-.047.753-.631v-.485l-.531-.31-.268-.095v-.445l2.16-.562.536-.368-.277-.49.123-.472.3-.546.235-.716h-.381l-.358.443-1.158.893-.177.239-.186.2v.2l.363.252-.744.172-1.271-.021-1.317-.2-.9-.356,1.684-.169.958-1,.7-1.312.885-1.122.672-.329,1.38-.244.645-.318,1.071-1.024.645-.318.952.006v.445H2287.8v.406l.694.517,2,2.636.6,1.111-.231.358-.7.18-.808.576-.068-.162v-.172l-.069-.109-.281.042v.4l.935.652.5.84-.022,1-.613,1.107,2-.81,1.035-.239.74.122.377-.079.263,0,.5.076v-.4l-.763-.485h-.381v.485h-.341v-.485l2.959-1.161.813-.62h.408l-.408.485.408.445.414-.366.458-.039.395.278.227.573h.413l.05-.551-.018-.657-.072-.1.8-.063-.531-.284-.553.079-.527-.064-.644-.133,6.1-.488-.49-1.182.721-.239.881-.069v-1.182l.6.3.191.186h.382l.749-.212,2.224,1.169,1.044.336,4.071.425,1.089.466v-.448l1.266.384,1.852-.122,11.51-3.012,10.748-4.285,8.447-5.488.1-.063,1.357,2.516.323,1.075,1,3.117.573,1.78,2.2,6.866,1.759,5.486,2.138,5.663,2.842,7.543,3.436,9.089,1.217,5.154.121,2.678.334,1.1.888,1.214v0l.553.8-.011.88-.531,1.933-.1,1.137.121.745.386.609,3.043,2.676.617.925,1.85,5.328,3.292,9.517,2.162,6.211.156.36.1.379.034.386-.029.4.352,3.5,2.444,6.725,2.185,6.041,1.435,6.609-.1,4.434.392,1.534,1.273,2.655.481.913-.066.035Z" transform="translate(-320.683 -16.267)" fill="none" stroke="#00b1ff" stroke-width="1.5"/>
    </g>
    <g id="Pins" transform="translate(9272.944 276.194)">
      <g id="Group_12533" data-name="Group 12533" transform="translate(88.273 60.338)">
        <ellipse id="Ellipse_9" data-name="Ellipse 9" cx="20.671" cy="20.671" rx="20.671" ry="20.671" transform="translate(0 0)" fill="#f80"/>
        <text id="_10" data-name="10" transform="translate(9.561 27.669)" font-size="19" font-family="Lato-Bold, Lato" font-weight="700"><tspan x="0" y="0">10</tspan></text>
      </g>
      <g id="Group_12534" data-name="Group 12534" transform="translate(177.663 391.08)">
        <ellipse id="Ellipse_9-2" data-name="Ellipse 9" cx="15.643" cy="15.643" rx="15.643" ry="15.643" transform="translate(0 0)" fill="#fff"/>
        <text id="_5" data-name="5" transform="translate(11.823 19.822)" font-size="12" font-family="Lato-Bold, Lato" font-weight="700"><tspan x="0" y="0">5</tspan></text>
      </g>
      <g id="Group_12538" data-name="Group 12538" transform="translate(0 0)">
        <ellipse id="Ellipse_10" data-name="Ellipse 10" cx="13.408" cy="13.408" rx="13.408" ry="13.408" fill="#fff"/>
        <text id="_3" data-name="3" transform="translate(10.544 15.704)" font-size="9" font-family="Lato-Bold, Lato" font-weight="700"><tspan x="0" y="0">3</tspan></text>
      </g>
      <g id="Group_12535" data-name="Group 12535" transform="translate(160.901 43.578)">
        <ellipse id="Ellipse_9-3" data-name="Ellipse 9" cx="16.202" cy="16.202" rx="16.202" ry="16.202" transform="translate(0 0)" fill="#fff"/>
        <text id="_2" data-name="2" transform="translate(12.382 20.938)" font-size="12" font-family="Lato-Bold, Lato" font-weight="700"><tspan x="0" y="0">2</tspan></text>
      </g>
    </g>
    <g id="Control" transform="translate(9655.354 656.514)">
      <rect id="Rectangle_2975" data-name="Rectangle 2975" width="32.468" height="32.468" fill="#1283c6"/>
      <rect id="Rectangle_2976" data-name="Rectangle 2976" width="32.468" height="32.468" transform="translate(0 39.153)" fill="#1283c6"/>
      <text id="_-" data-name="-" transform="translate(12.414 59.018)" fill="#fff" font-size="17" font-family="Lato-Regular, Lato"><tspan x="0" y="0">-</tspan></text>
      <text id="_" data-name="+" transform="translate(10.504 22.775)" fill="#fff" font-size="18" font-family="Lato-Regular, Lato"><tspan x="0" y="0">+</tspan></text>
    </g>
  </g>
</svg>
