<svg id="_001-weather" data-name="001-weather" xmlns="http://www.w3.org/2000/svg" width="58.646" height="55" viewBox="0 0 58.646 55">
  <g id="Group_8870" data-name="Group 8870" transform="translate(0 2.539)">
    <g id="Group_8869" data-name="Group 8869" transform="translate(0 0)">
      <path id="Path_66065" data-name="Path 66065" d="M53.892,55.141a9.618,9.618,0,0,0-8.986-13.055,9.521,9.521,0,0,0-4.991,1.4q-.225-.225-.457-.444A18.374,18.374,0,0,0,8.534,56.462c0,.512.022,1.026.064,1.539l-.18,0a8.419,8.419,0,0,0,0,16.838H25.4a1.145,1.145,0,0,0,0-2.291H8.419a6.128,6.128,0,1,1,6.128-6.128,1.145,1.145,0,0,0,2.291,0,8.439,8.439,0,0,0-5.9-8.032A16.084,16.084,0,1,1,42.951,55.3a1.145,1.145,0,0,0,1.594.972,8.477,8.477,0,1,1,3.335,16.27H35.852a1.145,1.145,0,0,0,0,2.291H47.879a10.764,10.764,0,0,0,6.012-19.7Zm-2.045-1.082a10.8,10.8,0,0,0-6.775-.388,18.268,18.268,0,0,0-3.615-8.435,7.258,7.258,0,0,1,3.448-.86,7.339,7.339,0,0,1,7.331,7.331A7.254,7.254,0,0,1,51.847,54.059Z" transform="translate(0 -38.087)" fill="#fff"/>
    </g>
  </g>
  <g id="Group_8872" data-name="Group 8872" transform="translate(29.59 36.998)">
    <g id="Group_8871" data-name="Group 8871">
      <path id="Path_66066" data-name="Path 66066" d="M260.286,339.256a1.148,1.148,0,1,0,.334.81A1.154,1.154,0,0,0,260.286,339.256Z" transform="translate(-258.33 -338.92)" fill="#fff"/>
    </g>
  </g>
  <g id="Group_8874" data-name="Group 8874" transform="translate(52.773 2.478)">
    <g id="Group_8873" data-name="Group 8873">
      <path id="Path_66067" data-name="Path 66067" d="M466.2,37.888a1.146,1.146,0,0,0-1.62,0L461.06,41.41a1.146,1.146,0,0,0,1.62,1.62l3.523-3.523A1.146,1.146,0,0,0,466.2,37.888Z" transform="translate(-460.724 -37.552)" fill="#fff"/>
    </g>
  </g>
  <g id="Group_8876" data-name="Group 8876" transform="translate(43.76)">
    <g id="Group_8875" data-name="Group 8875" transform="translate(0 0)">
      <path id="Path_66068" data-name="Path 66068" d="M383.184,15.917a1.145,1.145,0,0,0-1.145,1.145v2.478a1.145,1.145,0,1,0,2.291,0V17.062A1.145,1.145,0,0,0,383.184,15.917Z" transform="translate(-382.039 -15.917)" fill="#fff"/>
    </g>
  </g>
  <g id="Group_8878" data-name="Group 8878" transform="translate(55.799 15.014)">
    <g id="Group_8877" data-name="Group 8877" transform="translate(0 0)">
      <path id="Path_66069" data-name="Path 66069" d="M488.848,146.995h-.556a1.145,1.145,0,1,0,0,2.291h.556a1.145,1.145,0,1,0,0-2.291Z" transform="translate(-487.146 -146.995)" fill="#fff"/>
    </g>
  </g>
  <g id="Group_8880" data-name="Group 8880" transform="translate(4.147 40.333)">
    <g id="Group_8879" data-name="Group 8879">
      <path id="Path_66070" data-name="Path 66070" d="M41.666,368.373a1.145,1.145,0,0,0-1.62,0l-3.5,3.5a1.145,1.145,0,1,0,1.62,1.62l3.5-3.5A1.145,1.145,0,0,0,41.666,368.373Z" transform="translate(-36.207 -368.037)" fill="#fff"/>
    </g>
  </g>
  <g id="Group_8882" data-name="Group 8882" transform="translate(19.022 40.333)">
    <g id="Group_8881" data-name="Group 8881">
      <path id="Path_66071" data-name="Path 66071" d="M171.5,368.373a1.145,1.145,0,0,0-1.62,0l-3.481,3.481a1.145,1.145,0,1,0,1.62,1.62l3.481-3.481A1.145,1.145,0,0,0,171.5,368.373Z" transform="translate(-166.066 -368.037)" fill="#fff"/>
    </g>
  </g>
  <g id="Group_8884" data-name="Group 8884" transform="translate(33.912 40.333)">
    <g id="Group_8883" data-name="Group 8883">
      <path id="Path_66072" data-name="Path 66072" d="M301.464,368.373a1.145,1.145,0,0,0-1.62,0l-3.443,3.443a1.145,1.145,0,0,0,1.62,1.62l3.443-3.443A1.145,1.145,0,0,0,301.464,368.373Z" transform="translate(-296.065 -368.037)" fill="#fff"/>
    </g>
  </g>
  <g id="Group_8886" data-name="Group 8886" transform="translate(6.823 47.549)">
    <g id="Group_8885" data-name="Group 8885">
      <path id="Path_66073" data-name="Path 66073" d="M66.686,431.375a1.145,1.145,0,0,0-1.62,0l-5.16,5.16a1.145,1.145,0,1,0,1.62,1.62l5.16-5.16A1.145,1.145,0,0,0,66.686,431.375Z" transform="translate(-59.571 -431.039)" fill="#fff"/>
    </g>
  </g>
  <g id="Group_8888" data-name="Group 8888" transform="translate(21.676 47.549)">
    <g id="Group_8887" data-name="Group 8887">
      <path id="Path_66074" data-name="Path 66074" d="M196.353,431.374a1.146,1.146,0,0,0-1.62,0l-5.16,5.16a1.145,1.145,0,1,0,1.62,1.62l5.16-5.16A1.146,1.146,0,0,0,196.353,431.374Z" transform="translate(-189.238 -431.038)" fill="#fff"/>
    </g>
  </g>
  <g id="Group_8890" data-name="Group 8890" transform="translate(36.528 47.549)">
    <g id="Group_8889" data-name="Group 8889">
      <path id="Path_66075" data-name="Path 66075" d="M326.02,431.374a1.146,1.146,0,0,0-1.62,0l-5.16,5.16a1.145,1.145,0,1,0,1.62,1.62l5.16-5.16A1.145,1.145,0,0,0,326.02,431.374Z" transform="translate(-318.905 -431.039)" fill="#fff"/>
    </g>
  </g>
  <g id="Group_8892" data-name="Group 8892" transform="translate(48.804 40.333)">
    <g id="Group_8891" data-name="Group 8891">
      <path id="Path_66076" data-name="Path 66076" d="M431.431,368.371a1.146,1.146,0,0,0-1.62,0l-3.4,3.4a1.145,1.145,0,1,0,1.62,1.62l3.4-3.4A1.145,1.145,0,0,0,431.431,368.371Z" transform="translate(-426.071 -368.036)" fill="#fff"/>
    </g>
  </g>
  <g id="Group_8894" data-name="Group 8894" transform="translate(25.763 7.742)">
    <g id="Group_8893" data-name="Group 8893" transform="translate(0 0)">
      <path id="Path_66077" data-name="Path 66077" d="M226.1,83.511h-.034a1.145,1.145,0,1,0,0,2.291h.027a1.145,1.145,0,0,0,.007-2.291Z" transform="translate(-224.923 -83.511)" fill="#fff"/>
    </g>
  </g>
  <g id="Group_8896" data-name="Group 8896" transform="translate(30.39 8.7)">
    <g id="Group_8895" data-name="Group 8895">
      <path id="Path_66078" data-name="Path 66078" d="M274.568,102.762a12.725,12.725,0,0,0-7.651-10.8,1.145,1.145,0,1,0-.913,2.1,10.442,10.442,0,0,1,6.279,8.859,1.146,1.146,0,0,0,1.141,1.064c.027,0,.055,0,.082,0A1.146,1.146,0,0,0,274.568,102.762Z" transform="translate(-265.314 -91.869)" fill="#fff"/>
    </g>
  </g>
</svg>
