<svg id="_002-brightness" data-name="002-brightness" xmlns="http://www.w3.org/2000/svg" width="27.085" height="27.085" viewBox="0 0 27.085 27.085">
  <path id="Path_56479" data-name="Path 56479" d="M122.726,115.283a7.444,7.444,0,1,0,7.444,7.444A7.452,7.452,0,0,0,122.726,115.283Zm-5.857,7.444a5.866,5.866,0,0,1,5.064-5.8V128.53A5.866,5.866,0,0,1,116.869,122.727Zm6.651,5.8V116.924a5.857,5.857,0,0,1,0,11.606Z" transform="translate(-109.184 -109.184)" fill="#fff"/>
  <path id="Path_56480" data-name="Path 56480" d="M4.321,241.794A.794.794,0,0,0,3.527,241H.794a.794.794,0,1,0,0,1.587H3.527A.794.794,0,0,0,4.321,241.794Z" transform="translate(0 -228.251)" fill="#fff"/>
  <path id="Path_56481" data-name="Path 56481" d="M72.753,73.876a.793.793,0,0,0,1.122-1.122l-1.933-1.933a.793.793,0,0,0-1.122,1.122Z" transform="translate(-66.853 -66.854)" fill="#fff"/>
  <path id="Path_56482" data-name="Path 56482" d="M241.794,4.321a.794.794,0,0,0,.793-.794V.794a.794.794,0,1,0-1.587,0V3.527A.794.794,0,0,0,241.794,4.321Z" transform="translate(-228.251)" fill="#fff"/>
  <path id="Path_56483" data-name="Path 56483" d="M375.664,74.108a.791.791,0,0,0,.561-.232l1.933-1.933a.793.793,0,0,0-1.122-1.122L375.1,72.754a.794.794,0,0,0,.561,1.355Z" transform="translate(-355.04 -66.854)" fill="#fff"/>
  <path id="Path_56484" data-name="Path 56484" d="M433.849,241h-2.734a.794.794,0,1,0,0,1.587h2.734a.794.794,0,1,0,0-1.587Z" transform="translate(-407.558 -228.251)" fill="#fff"/>
  <path id="Path_56485" data-name="Path 56485" d="M376.226,375.1a.794.794,0,0,0-1.122,1.122l1.933,1.933a.793.793,0,1,0,1.122-1.122Z" transform="translate(-355.041 -355.041)" fill="#fff"/>
  <path id="Path_56486" data-name="Path 56486" d="M241.794,430.322a.794.794,0,0,0-.794.794v2.734a.794.794,0,1,0,1.587,0v-2.734A.794.794,0,0,0,241.794,430.322Z" transform="translate(-228.251 -407.558)" fill="#fff"/>
  <path id="Path_56487" data-name="Path 56487" d="M72.753,375.1l-1.933,1.933a.793.793,0,1,0,1.122,1.122l1.933-1.933a.793.793,0,1,0-1.122-1.122Z" transform="translate(-66.853 -355.041)" fill="#fff"/>
</svg>
