<svg xmlns="http://www.w3.org/2000/svg" width="42.999" height="30" viewBox="0 0 42.999 30">
  <g id="car_1_" data-name="car (1)" transform="translate(0 -77.391)">
    <path id="Path_69491" data-name="Path 69491" d="M42.892,93.937a.673.673,0,0,0-.145-.506,4.1,4.1,0,0,0-3.856-2.713H32.52l-3.294-6.4A4.084,4.084,0,0,0,25.582,82.1H21.74v-4.07a.638.638,0,0,0-.638-.638H9.039a.638.638,0,0,0-.638.638V82.1H7.158a4.1,4.1,0,0,0-4.09,3.858H.638A.638.638,0,0,0,0,86.6v8.045a.638.638,0,0,0,.638.638H3.7a.638.638,0,0,0,.638-.638V86.2a2.824,2.824,0,0,1,2.821-2.821H15.07v1.629a1.736,1.736,0,0,0-.473-.067H7.413A1.746,1.746,0,0,0,5.67,86.683v2.9a1.746,1.746,0,0,0,1.744,1.744H14.6a1.736,1.736,0,0,0,.473-.067V95.7H9.383a.638.638,0,0,0-.624.5L7.64,101.366H7.158a2.824,2.824,0,0,1-2.821-2.821v-.886a.638.638,0,0,0-1.277,0v.886a4.1,4.1,0,0,0,4.1,4.1h3.28c0,.053,0,.106,0,.159a4.586,4.586,0,0,0,1.413,3.312H9.242a.638.638,0,0,0,0,1.277H42.318a.638.638,0,0,0,0-1.277H38.513a4.586,4.586,0,0,0,1.413-3.312c0-.1,0-.193-.01-.288a4.071,4.071,0,0,0,3.072-3.968s.059-3.925-.1-4.609ZM3.061,94H1.277V87.235H3.061Zm12-4.425a.468.468,0,0,1-.467.467H7.413a.468.468,0,0,1-.467-.467v-2.9a.468.468,0,0,1,.467-.467H14.6a.468.468,0,0,1,.467.467v2.9Zm5.4-7.479H13.278V78.668h7.186ZM9.677,78.668H12V82.1H9.677Zm-.731,22.7L9.9,96.974H20.243l.951,4.392H19.4a4.6,4.6,0,0,0-8.738,0Zm2.764,1.436a3.328,3.328,0,0,1,.067-.666v-.006a3.323,3.323,0,1,1,3.513,3.984h-.517a3.327,3.327,0,0,1-3.065-3.312Zm6.51,3.312a4.586,4.586,0,0,0,1.413-3.312c0-.053,0-.106,0-.159h11.1c0,.053,0,.106,0,.159a4.586,4.586,0,0,0,1.413,3.312Zm17.362,0h-.517a3.323,3.323,0,0,1-3-3.976l0-.009a3.323,3.323,0,1,1,3.512,3.986Zm6.127-7.569a2.8,2.8,0,0,1-2.052,2.716,4.6,4.6,0,0,0-8.7.1H29.342l.951-4.392h.838a.638.638,0,1,0,0-1.277H29.778a.638.638,0,0,0-.624.5l-1.118,5.165H22.5L21.382,96.2a.638.638,0,0,0-.624-.5H16.347V83.377h9.236a2.812,2.812,0,0,1,2.509,1.53l3.472,6.742a.638.638,0,0,0,.568.346H38.89A2.818,2.818,0,0,1,41.2,93.206H39.287a.638.638,0,1,0,0,1.277h2.4c.013.109.02,1.215.02,1.215H34.146a.638.638,0,1,0,0,1.277h7.565Z" transform="translate(0)" fill="#fff"/>
    <path id="Path_69492" data-name="Path 69492" d="M220.9,167.1a1.837,1.837,0,0,0-1.639-1.022h-6.238A1.827,1.827,0,0,0,211.2,167.9v6.614a1.827,1.827,0,0,0,1.825,1.825h4.122a.641.641,0,0,0,.588-.39,5.534,5.534,0,0,1,4.874-3.281.638.638,0,0,0,.573-.919Zm-4.151,7.966h-3.725a.549.549,0,0,1-.548-.548V167.9a.549.549,0,0,1,.548-.548h6.238a.551.551,0,0,1,.492.307l1.866,3.805A6.824,6.824,0,0,0,216.746,175.064Z" transform="translate(-193.459 -81.238)" fill="#00b1ff"/>
    <circle id="Ellipse_8" data-name="Ellipse 8" cx="0.719" cy="0.719" r="0.719" transform="translate(34.585 102.172) rotate(-13.3)" fill="#00b1ff"/>
    <circle id="Ellipse_9" data-name="Ellipse 9" cx="0.719" cy="0.719" r="0.719" transform="translate(14.013 102.721) rotate(-45)" fill="#00b1ff"/>
    <path id="Path_69493" data-name="Path 69493" d="M26.6,419.4H22.815a.638.638,0,0,0,0,1.277H26.6a.638.638,0,1,0,0-1.277Z" transform="translate(-20.314 -313.291)" fill="#00b1ff"/>
  </g>
</svg>
