<svg xmlns="http://www.w3.org/2000/svg" width="31.143" height="24.579" viewBox="0 0 31.143 24.579">
  <g id="_001-chat-bubbles-with-ellipsis" data-name="001-chat-bubbles-with-ellipsis" transform="translate(0 -3.24)">
    <path id="Path_610" data-name="Path 610" d="M28.843,9.67H27.99v9.376a2.538,2.538,0,0,1-2.554,2.78H8.743v.446a3.007,3.007,0,0,0,2.975,2.593H24.481l4.883,2.871-.708-2.871h.187c1.506,0,2.186-1.3,2.186-2.593V11.9A2.009,2.009,0,0,0,28.843,9.67Z" transform="translate(0.114 0.084)" fill="#fff"/>
    <path id="Path_611" data-name="Path 611" d="M23.058,3.24H3.669C1.963,3.24,0,4.755,0,6.216V17.967c0,1.345,1.663,2.317,3.259,2.467L2.221,24.376l6.654-3.914H23.058c1.706,0,3.28-1.034,3.28-2.494V6.216A3.348,3.348,0,0,0,23.058,3.24ZM6.627,13.16a1.752,1.752,0,1,1,1.752-1.752A1.751,1.751,0,0,1,6.627,13.16Zm6.542,0a1.752,1.752,0,1,1,1.752-1.752A1.751,1.751,0,0,1,13.169,13.16Zm6.543,0a1.752,1.752,0,1,1,1.752-1.752A1.752,1.752,0,0,1,19.712,13.16Z" transform="translate(0 0)" fill="#fff"/>
  </g>
</svg>
