<svg xmlns="http://www.w3.org/2000/svg" width="41.98" height="36.563" viewBox="0 0 41.98 36.563">
  <g id="_005-rating" data-name="005-rating" transform="translate(-8 -39.999)">
    <path id="Path_69704" data-name="Path 69704" d="M171.292,49.169l-.592,4.275a.677.677,0,0,0,.966.7l3.883-1.884,3.883,1.884a.677.677,0,0,0,.966-.7l-.592-4.275,2.992-3.111a.677.677,0,0,0-.369-1.136l-4.249-.758-2.034-3.807a.677.677,0,0,0-1.194,0l-2.034,3.807-4.249.758a.677.677,0,0,0-.369,1.136Zm2.188-3.73a.677.677,0,0,0,.478-.347l1.591-2.979,1.592,2.979a.677.677,0,0,0,.478.347l3.325.593L178.6,48.467a.677.677,0,0,0-.183.562l.463,3.346L175.846,50.9a.677.677,0,0,0-.591,0l-3.038,1.474.463-3.346a.677.677,0,0,0-.183-.562l-2.341-2.434Z" transform="translate(-146.56)" fill="#1283c6"/>
    <path id="Path_69705" data-name="Path 69705" d="M11.3,97.169l-.592,4.275a.677.677,0,0,0,.966.7l3.883-1.884,3.883,1.884a.677.677,0,0,0,.966-.7l-.592-4.275L22.8,94.058a.677.677,0,0,0-.369-1.136l-4.249-.758-2.034-3.807a.677.677,0,0,0-1.194,0l-2.034,3.807-4.249.758A.677.677,0,0,0,8.3,94.058Zm2.188-3.73a.677.677,0,0,0,.478-.347l1.591-2.979,1.592,2.979a.677.677,0,0,0,.478.347l3.325.593-2.341,2.434a.677.677,0,0,0-.183.562l.463,3.346L15.849,98.9a.677.677,0,0,0-.591,0l-3.039,1.475.463-3.346a.677.677,0,0,0-.183-.562l-2.341-2.434Z" transform="translate(-0.105 -43.937)" fill="#1283c6"/>
    <path id="Path_69706" data-name="Path 69706" d="M328.141,93.38a.677.677,0,0,0,.156.679l2.992,3.111-.592,4.275a.677.677,0,0,0,.966.7l3.884-1.884,3.883,1.884a.677.677,0,0,0,.966-.7l-.592-4.275,2.992-3.111a.677.677,0,0,0-.369-1.136l-4.249-.758-2.034-3.807a.677.677,0,0,0-1.194,0l-2.034,3.807-4.249.758A.677.677,0,0,0,328.141,93.38Zm5.336.06a.677.677,0,0,0,.478-.347l1.592-2.979,1.592,2.979a.677.677,0,0,0,.478.347l3.325.593L338.6,96.467a.677.677,0,0,0-.183.562l.463,3.346L335.843,98.9a.677.677,0,0,0-.591,0l-3.038,1.474.463-3.346a.677.677,0,0,0-.183-.562l-2.341-2.434Z" transform="translate(-293.015 -43.937)" fill="#1283c6"/>
    <path id="Path_69707" data-name="Path 69707" d="M47.61,264H10.37A2.373,2.373,0,0,0,8,266.37v7.448a2.373,2.373,0,0,0,2.37,2.37H25.863l2.521,5.042a.677.677,0,0,0,1.211,0l2.521-5.042H47.61a2.373,2.373,0,0,0,2.37-2.37V266.37A2.373,2.373,0,0,0,47.61,264Zm1.016,9.818a1.017,1.017,0,0,1-1.016,1.016H31.7a.677.677,0,0,0-.606.374l-2.1,4.206-2.1-4.206a.677.677,0,0,0-.606-.374H10.37a1.017,1.017,0,0,1-1.016-1.016V266.37a1.017,1.017,0,0,1,1.016-1.016H47.61a1.017,1.017,0,0,1,1.016,1.016Z" transform="translate(0 -205.042)" fill="#fff"/>
  </g>
</svg>
