<svg xmlns="http://www.w3.org/2000/svg" width="26.528" height="26.528" viewBox="0 0 26.528 26.528">
  <g id="_001-search-interface-symbol" data-name="001-search-interface-symbol" transform="translate(-0.006)">
    <g id="_x34__4_" transform="translate(0.006)">
      <g id="Group_8547" data-name="Group 8547" transform="translate(0)">
        <path id="Path_56489" data-name="Path 56489" d="M26.282,25.085l-6.849-6.74a10.833,10.833,0,0,0,2.9-7.362A11.074,11.074,0,0,0,11.167,0,11.073,11.073,0,0,0,.006,10.984,11.073,11.073,0,0,0,11.167,21.967a11.225,11.225,0,0,0,7.025-2.453l6.876,6.766a.868.868,0,0,0,1.214,0A.836.836,0,0,0,26.282,25.085ZM11.167,20.277a9.37,9.37,0,0,1-9.444-9.294A9.37,9.37,0,0,1,11.167,1.69a9.37,9.37,0,0,1,9.444,9.294A9.37,9.37,0,0,1,11.167,20.277Z" transform="translate(-0.006)" fill="#fff"/>
      </g>
    </g>
  </g>
</svg>
