<svg xmlns="http://www.w3.org/2000/svg" width="37.067" height="23.357" viewBox="0 0 37.067 23.357">
  <path id="_001-video-camera" data-name="001-video-camera" d="M36.683,2.083a.786.786,0,0,0-.777-.014L27.4,6.713V3.927A3.931,3.931,0,0,0,23.474,0H3.927A3.931,3.931,0,0,0,0,3.927v15.5a3.931,3.931,0,0,0,3.927,3.927H23.474A3.931,3.931,0,0,0,27.4,19.431V16.695l8.505,4.644a.785.785,0,0,0,1.162-.689V2.758a.785.785,0,0,0-.385-.675ZM25.83,19.431a2.358,2.358,0,0,1-2.356,2.356H3.927a2.359,2.359,0,0,1-2.356-2.356V3.926A2.359,2.359,0,0,1,3.927,1.571H23.474A2.359,2.359,0,0,1,25.83,3.926Zm9.668-.1-8.1-4.421V8.5l8.1-4.42Zm0,0" transform="translate(-0.001 0)" fill="#fff"/>
</svg>
