<svg xmlns="http://www.w3.org/2000/svg" width="30.989" height="34.492" viewBox="0 0 30.989 34.492">
  <g id="_002-obelisk" data-name="002-obelisk" transform="translate(-26)">
    <g id="Group_12576" data-name="Group 12576" transform="translate(26)">
      <g id="Group_12575" data-name="Group 12575" transform="translate(0)">
        <path id="Path_66158" data-name="Path 66158" d="M26.69,492h-.016a.674.674,0,0,0,0,1.347h.016a.674.674,0,0,0,0-1.347Z" transform="translate(-26 -458.855)" fill="#00b1ff"/>
        <path id="Path_66159" data-name="Path 66159" d="M466.455,492h-.016a.674.674,0,0,0,0,1.347h.016a.674.674,0,0,0,0-1.347Z" transform="translate(-436.139 -458.855)" fill="#00b1ff"/>
        <path id="Path_66160" data-name="Path 66160" d="M81.379,33.145H79.962V31.124a.674.674,0,0,0-.674-.674H77.267V28.429a.674.674,0,0,0-.674-.674H74.524L72.819,4.922a.673.673,0,0,0-.158-.385L69.024.238,69.011.225,68.985.2,68.959.173,68.944.159,68.936.153,68.9.128,68.881.112l-.033-.02L68.823.078,68.792.062,68.763.05l-.03-.011L68.7.028,68.671.02,68.637.012l-.031,0-.033,0L68.54,0h-.067l-.027,0-.039.005-.025,0-.038.009-.025.006-.035.012-.027.01-.031.014L68.2.078,68.17.092l-.033.02-.022.015-.033.025-.008.006-.014.013L68.033.2l-.025.026L68,.238l-3.638,4.3a.674.674,0,0,0-.158.385L62.495,27.755h-2.07a.674.674,0,0,0-.674.674V30.45H57.73a.674.674,0,0,0-.674.674v2.021H55.64a.674.674,0,0,0,0,1.347H81.379a.674.674,0,0,0,0-1.347ZM65.527,5.24l2.982-3.524L71.492,5.24l1.681,22.515h-3.99V8.57a.674.674,0,1,0-1.347,0V27.755h-3.99ZM61.1,29.1H75.92V30.45H61.1Zm17.516,4.042H58.4V31.8h20.21v1.347Z" transform="translate(-53.015)" fill="#fff"/>
        <path id="Path_66161" data-name="Path 66161" d="M246.676,89.61a.674.674,0,0,0,.674-.674v-.016a.674.674,0,1,0-1.347,0v.016A.674.674,0,0,0,246.676,89.61Z" transform="translate(-231.181 -82.302)" fill="#00b1ff"/>
        <line id="Line_859" data-name="Line 859" y2="20" transform="translate(15.5 8.699)" fill="none" stroke="#00b1ff" stroke-linecap="round" stroke-width="1.5"/>
      </g>
    </g>
  </g>
</svg>
