<svg xmlns="http://www.w3.org/2000/svg" width="41.98" height="28.583" viewBox="0 0 41.98 28.583">
  <g id="_002-360-degrees" data-name="002-360-degrees" transform="translate(0 -76.592)">
    <g id="Group_12548" data-name="Group 12548" transform="translate(0 76.592)">
      <g id="Group_12547" data-name="Group 12547">
        <path id="Path_69698" data-name="Path 69698" d="M260.056,210.37a.875.875,0,0,0-.481,1.682c3.992,1.142,6.472,2.8,6.472,4.322,0,1.115-1.356,2.339-3.722,3.359a35.586,35.586,0,0,1-10.4,2.311l-3.583-.049h-.012a.875.875,0,0,0-.012,1.749l3.628.049h.012q.039,0,.078,0a37.392,37.392,0,0,0,10.979-2.451c3.949-1.7,4.778-3.639,4.778-4.965C267.8,213.93,265.047,211.8,260.056,210.37Z" transform="translate(-225.816 -198.639)" fill="#fff"/>
        <path id="Path_69699" data-name="Path 69699" d="M87.754,143.364a.875.875,0,0,0,0,1.749h3.6v3.615h-3.6a.875.875,0,0,0,0,1.749h4.471a.875.875,0,0,0,.875-.875V138.875a.875.875,0,0,0-.875-.875H87.754a.875.875,0,0,0,0,1.749h3.6v3.615Z" transform="translate(-79.281 -132.629)" fill="#00b1ff"/>
        <path id="Path_69700" data-name="Path 69700" d="M179.754,150.477h5.364a.875.875,0,0,0,.875-.875v-5.364a.875.875,0,0,0-.875-.875h-4.49v-3.615h3.6a.875.875,0,0,0,0-1.749h-4.471a.875.875,0,0,0-.875.875V149.6A.875.875,0,0,0,179.754,150.477Zm.875-5.364h3.615v3.615h-3.615Z" transform="translate(-163.235 -132.629)" fill="#00b1ff"/>
        <path id="Path_69701" data-name="Path 69701" d="M282,150.477h5.364a.875.875,0,0,0,.875-.875V138.875a.875.875,0,0,0-.875-.875H282a.875.875,0,0,0-.875.875V149.6A.875.875,0,0,0,282,150.477Zm.875-10.728h3.615v8.979H282.87Z" transform="translate(-256.535 -132.629)" fill="#00b1ff"/>
        <path id="Path_69702" data-name="Path 69702" d="M15.992,221.71a.875.875,0,0,0-1.335,1.13l1.956,2.312A37.944,37.944,0,0,1,6,223c-2.7-1.066-4.249-2.369-4.249-3.575,0-1.4,2.076-2.911,5.553-4.038a.875.875,0,0,0-.54-1.664,15.841,15.841,0,0,0-4.768,2.32A4.347,4.347,0,0,0,0,219.421c0,2.021,1.852,3.819,5.356,5.2a39.362,39.362,0,0,0,10.865,2.253l-1.744,1.933a.875.875,0,1,0,1.3,1.172l3.182-3.527a.874.874,0,0,0,.225-.586V225.8a.874.874,0,0,0-.207-.565Z" transform="translate(0 -201.687)" fill="#fff"/>
        <path id="Path_69703" data-name="Path 69703" d="M372.289,81.918h3.575a.875.875,0,0,0,.875-.875V77.467a.875.875,0,0,0-.875-.875h-3.575a.875.875,0,0,0-.875.875v3.577A.875.875,0,0,0,372.289,81.918Zm.875-3.577h1.826v1.827h-1.826Z" transform="translate(-338.931 -76.592)" fill="#fff"/>
      </g>
    </g>
  </g>
</svg>
