<svg xmlns="http://www.w3.org/2000/svg" width="75" height="75" viewBox="0 0 75 75">
  <g id="Group_13266" data-name="Group 13266" transform="translate(-1448)">
    <g id="Ellipse_20" data-name="Ellipse 20" transform="translate(1448)" fill="none" stroke="#fff" stroke-width="1" stroke-dasharray="2">
      <circle cx="37.5" cy="37.5" r="37.5" stroke="none"/>
      <circle cx="37.5" cy="37.5" r="37" fill="none"/>
    </g>
    <text id="Drag" transform="translate(1486 62)" fill="#fff" font-size="16" font-family="Lato-Light, Lato" font-weight="300"><tspan x="-16.684" y="0">Drag</tspan></text>
    <path id="_001-mouse" data-name="001-mouse" d="M109,3.448C107.052,1.16,104.082,0,100.176,0S93.3,1.16,91.349,3.448a9.922,9.922,0,0,0-2.254,6.4v16.24a9.922,9.922,0,0,0,2.254,6.4c1.95,2.288,4.92,3.448,8.827,3.448s6.876-1.16,8.827-3.448a9.922,9.922,0,0,0,2.254-6.4V9.845A9.922,9.922,0,0,0,109,3.448Zm-8.827,9.07a1.47,1.47,0,0,1-1.468-1.468V7.9a1.468,1.468,0,1,1,2.936,0v3.146A1.47,1.47,0,0,1,100.176,12.517ZM110.1,26.085c0,1.45-.478,8.686-9.922,8.686s-9.922-7.236-9.922-8.686V9.845c0-1.42.46-8.385,9.342-8.676V5.341A2.631,2.631,0,0,0,97.549,7.9v3.146A2.631,2.631,0,0,0,99.6,13.611v4.762a.58.58,0,0,0,1.159,0V13.611a2.631,2.631,0,0,0,2.048-2.562V7.9a2.631,2.631,0,0,0-2.048-2.562V1.17c8.882.291,9.342,7.255,9.342,8.676Z" transform="translate(1385.229 8.535)" fill="#fff"/>
  </g>
</svg>
