<svg xmlns="http://www.w3.org/2000/svg" width="38" height="35.611" viewBox="0 0 38 35.611">
  <g id="Group_12577" data-name="Group 12577" transform="translate(-29.183 -13)">
    <path id="family" d="M34.557,32.65a.633.633,0,0,0-.473,1.175,4.208,4.208,0,0,1,2.649,3.921v1.474a.633.633,0,1,0,1.267,0V37.747A5.469,5.469,0,0,0,34.557,32.65Zm-3.349.824a.634.634,0,0,1-.606-.451l-.529-1.757a5.516,5.516,0,0,1-3.609.107L25.99,32.8A2.577,2.577,0,0,0,28.2,34.174a.633.633,0,0,1-.015,1.267,3.846,3.846,0,0,1-3.457-2.353.633.633,0,0,1-.018-.446l.593-1.791a5.553,5.553,0,0,1-2.684-4.762V23.645a.633.633,0,0,1,.641-.633,24.434,24.434,0,0,0,8.081-1.261A1.713,1.713,0,0,1,33.6,23.373v2.761a5.508,5.508,0,0,1-2.386,4.531l.6,1.993a.634.634,0,0,1-.607.816Zm1.126-7.341V23.373a.44.44,0,0,0-.185-.361c-.3-.213-.333-.013-2.144.454a25.745,25.745,0,0,1-6.121.812v1.811a4.271,4.271,0,0,0,3.84,4.253,4.225,4.225,0,0,0,4.609-4.208ZM21.957,44.274l.575,1.8a.633.633,0,1,1-1.207.385L20.794,44.8a5.846,5.846,0,0,1-3.58,0l-.466,1.43a2.519,2.519,0,0,0,2.188,1.4.633.633,0,0,1-.016,1.266,3.78,3.78,0,0,1-3.252-2h-1.26a2.536,2.536,0,0,0-2.533,2.533v.633a.633.633,0,1,1-1.267,0v-.633a3.8,3.8,0,0,1,3.8-3.8h1.2l.441-1.353A5.856,5.856,0,0,1,20.39,33.531V23.011a7.887,7.887,0,0,1,15.774,0v6.5a.633.633,0,1,1-1.267,0v-6.5a6.62,6.62,0,0,0-13.24,0V34A5.856,5.856,0,0,1,21.957,44.274Zm1.634-5.054A4.592,4.592,0,1,0,19,43.812,4.6,4.6,0,0,0,23.591,39.221Zm1.718,6.822a.633.633,0,0,0-.573,1.129,2.524,2.524,0,0,1,1.388,2.261v.633a.633.633,0,0,0,1.267,0v-.633a3.785,3.785,0,0,0-2.082-3.39Zm12.057-4H33.091v-.92a.633.633,0,0,0-1.267,0v8.946a.633.633,0,0,0,1.267,0V43.307h3.642v6.759a.633.633,0,1,0,1.267,0V42.674A.633.633,0,0,0,37.366,42.041Z" transform="translate(29.184 -2.089)" fill="#fff"/>
    <path id="family-2" data-name="family" d="M1.29,45.475v4.592a.633.633,0,0,1-1.267,0V45.475a.633.633,0,0,1,1.267,0Zm9.172-10.637a.633.633,0,0,1-.633.618A3.837,3.837,0,0,1,6.592,33.54H5.508A4.223,4.223,0,0,0,1.29,37.759v4.282H4.908v-.92a.633.633,0,1,1,1.267,0v8.946a.633.633,0,0,1-1.267,0V43.307H.633a.633.633,0,0,1-.61-.8V37.758a5.492,5.492,0,0,1,5.485-5.485h.977l.463-1.4a5.5,5.5,0,0,1-2.68-4.715V19.113a4.029,4.029,0,0,1,4.024-4.024h8.672a.633.633,0,0,1,.633.633v1.831a5.548,5.548,0,0,1-5.542,5.542H5.535V26.16a4.219,4.219,0,0,0,4.6,4.2,4.265,4.265,0,0,0,3.835-4.247V24.887a.633.633,0,0,1,1.267,0v1.228a5.555,5.555,0,0,1-2.384,4.566l.6,1.995a.633.633,0,1,1-1.213.365l-.529-1.757a5.516,5.516,0,0,1-3.6.112l-.471,1.421a2.573,2.573,0,0,0,2.2,1.372.634.634,0,0,1,.618.648ZM5.535,21.828h6.521a4.28,4.28,0,0,0,4.275-4.275v-1.2H8.293a2.761,2.761,0,0,0-2.758,2.758Z" transform="translate(29.184 -2.089)" fill="#00b1ff"/>
  </g>
</svg>
