<svg xmlns="http://www.w3.org/2000/svg" width="38" height="38.002" viewBox="0 0 38 38.002">
  <g id="sunset" transform="translate(-0.178 0)">
    <path id="Path_69497" data-name="Path 69497" d="M329.4,277.489a6.333,6.333,0,1,0,6.333-6.333A6.333,6.333,0,0,0,329.4,277.489Zm6.333-5.067a5.067,5.067,0,1,1-5.067,5.067A5.066,5.066,0,0,1,335.731,272.422Zm0,0" transform="translate(-307.686 -253.42)" fill="#00b1ff"/>
    <path id="Path_69498" data-name="Path 69498" d="M370.9,561.637h7.238V562.9H370.9Zm0,0" transform="translate(-346.472 -524.902)" fill="#00b1ff"/>
    <path id="Path_69499" data-name="Path 69499" d="M329.4,522.9h12.667v1.267H329.4Zm0,0" transform="translate(-307.686 -488.7)" fill="#00b1ff"/>
    <path id="Path_69500" data-name="Path 69500" d="M116.379,522.9h1.267v1.267h-1.267Zm0,0" transform="translate(-108.6 -488.7)" fill="#00b1ff"/>
    <path id="Path_69501" data-name="Path 69501" d="M58.285,542.27h1.267v1.267H58.285Zm0,0" transform="translate(-54.306 -506.802)" fill="#00b1ff"/>
    <path id="Path_69502" data-name="Path 69502" d="M7.842,30.638a47.966,47.966,0,0,0,6.093-18.746l5.89,5.855a.632.632,0,0,0,.443.184.6.6,0,0,0,.1-.008.632.632,0,0,0,.464-.342,6.183,6.183,0,0,0-1.16-7.146l-.518-.518h4.455a.634.634,0,0,0,.6-.834,6.183,6.183,0,0,0-5.874-4.233h-.823l3.163-3.181A.633.633,0,0,0,20.513.656a6.185,6.185,0,0,0-7.15,1.16l-.6.6a6.194,6.194,0,0,0-.549.633,6.085,6.085,0,0,0-.544-.633l-.6-.6A6.182,6.182,0,0,0,3.915.656.633.633,0,0,0,3.75,1.669L6.916,4.851H6.085A6.183,6.183,0,0,0,.211,9.083a.634.634,0,0,0,.6.834h4.45l-.518.518a6.183,6.183,0,0,0-1.16,7.146.633.633,0,0,0,.464.342.6.6,0,0,0,.1.008.632.632,0,0,0,.446-.184l5.485-5.452A34.327,34.327,0,0,1,3.461,29.032a23.631,23.631,0,0,0-2.585-.527l-.4-.04L.353,29.726l.369.036c.633.091,1.263.219,1.889.364-.127.159-.253.32-.385.477l.971.812A35.656,35.656,0,0,0,11.483,10.9l.729-.724.546.543A46.305,46.305,0,0,1,4.727,33.2l1.037.726c.5-.711.973-1.448,1.433-2.2a22.463,22.463,0,0,1,7.663,6l.98-.8a23.656,23.656,0,0,0-4.206-3.994H38.178V31.668H9.758c-.621-.375-1.262-.714-1.916-1.03ZM20.036,16.169,13.344,9.516a4.885,4.885,0,0,1,4.835,1.21l.6.605a4.917,4.917,0,0,1,1.252,4.838Zm2.609-7.519H17.4a6.177,6.177,0,0,0-3.923-.468,4.911,4.911,0,0,1,4-2.065h.855a4.917,4.917,0,0,1,4.308,2.533ZM13.652,3.316l.605-.6A4.921,4.921,0,0,1,19.1,1.459L15.344,5.236a6.177,6.177,0,0,0-2.99,2.347,4.794,4.794,0,0,1,1.3-4.266Zm-3.489-.6.6.6a4.807,4.807,0,0,1,.728.959,6.026,6.026,0,0,0-.484,2.105A6.178,6.178,0,0,0,9.081,5.236L5.326,1.459a4.919,4.919,0,0,1,4.839,1.252ZM6.083,6.117h.855a4.913,4.913,0,0,1,4.007,2.064,6.179,6.179,0,0,0-3.921.469H1.779A4.918,4.918,0,0,1,6.085,6.117ZM4.388,16.169A4.917,4.917,0,0,1,5.64,11.331l.6-.605A4.841,4.841,0,0,1,9.679,9.312a5.009,5.009,0,0,1,1.4.2Zm0,0" transform="translate(0 0)" fill="#fff"/>
  </g>
</svg>
