<svg xmlns="http://www.w3.org/2000/svg" width="14.985" height="22.502" viewBox="0 0 14.985 22.502">
  <g id="_002-vase" data-name="002-vase" transform="translate(-69.724 0.25)">
    <g id="Group_8557" data-name="Group 8557" transform="translate(69.974)">
      <g id="Group_8556" data-name="Group 8556" transform="translate(0)">
        <path id="Path_56503" data-name="Path 56503" d="M84.459,13.229a7.231,7.231,0,0,0-3.668-6.3,3.559,3.559,0,0,0,.065-.668,3.623,3.623,0,0,0-.5-1.84l.519-2.06A1.447,1.447,0,0,0,82.1.932V.275A.275.275,0,0,0,81.823,0H72.609a.275.275,0,0,0-.275.275V.932a1.444,1.444,0,0,0,1.138,1.407.275.275,0,0,0,.066.016l.023.005.519,2.06a3.623,3.623,0,0,0-.5,1.84,3.579,3.579,0,0,0,.065.668,7.241,7.241,0,0,0-.472,12.3l-.575,2.43a.275.275,0,0,0,.268.339h8.709a.275.275,0,0,0,.268-.339l-.575-2.43A7.212,7.212,0,0,0,84.459,13.229ZM73.657,1.815a.894.894,0,0,1-.773-.883V.55h8.663V.932a.894.894,0,0,1-.854.891.255.255,0,0,0-.041-.008Zm.881,2.927,5.359.006a3.068,3.068,0,0,1,.408,1.515,3.013,3.013,0,0,1-.044.477h-6.09a3.014,3.014,0,0,1-.044-.477A3.068,3.068,0,0,1,74.538,4.741Zm-.409-2.376H80.3L79.842,4.2,74.59,4.191Zm-.046,4.95a.247.247,0,0,0,.033-.026h6.2a.269.269,0,0,0,.033.026,6.7,6.7,0,0,1,2.269,1.967h-10.8A6.7,6.7,0,0,1,74.084,7.315Zm-3.559,5.914a6.681,6.681,0,0,1,.927-3.4H82.982a6.691,6.691,0,0,1,.033,6.738h-11.6A6.669,6.669,0,0,1,70.524,13.229Zm2.685,8.223.476-2.011h7.061l.476,2.011ZM80.8,18.877a.165.165,0,0,0-.015.013H73.644c-.005,0-.009-.01-.015-.013A6.727,6.727,0,0,1,71.77,17.12H82.663A6.729,6.729,0,0,1,80.8,18.877Z" transform="translate(-69.974)" fill="#fff" stroke="#fff" stroke-width="0.5"/>
      </g>
    </g>
  </g>
</svg>
