<svg id="Group_12567" data-name="Group 12567" xmlns="http://www.w3.org/2000/svg" width="64.065" height="43.98" viewBox="0 0 64.065 43.98">
  <g id="Group_12566" data-name="Group 12566">
    <path id="Path_69713" data-name="Path 69713" d="M95.455,123.242h21.1a5.6,5.6,0,0,0,0-11.208h-5.115a1.147,1.147,0,1,0,0,2.294h5.115a3.31,3.31,0,0,1,0,6.621h-21.1a1.147,1.147,0,1,0,0,2.294Z" transform="translate(-94.044 -112.034)" fill="#fff"/>
    <path id="Path_69715" data-name="Path 69715" d="M28.815,323.634H1.147a1.147,1.147,0,0,0,0,2.294H28.815a3.31,3.31,0,0,1,0,6.62H23.7a1.147,1.147,0,0,0,0,2.294h5.115a5.6,5.6,0,0,0,0-11.208Z" transform="translate(0 -291.313)" fill="#fff"/>
    <path id="Path_69716" data-name="Path 69716" d="M14.008,142.194l39.753.068a9.247,9.247,0,0,0,0-18.494,7.968,7.968,0,0,0-7.959,7.959v.31a1.147,1.147,0,1,0,2.294,0v-.31a5.672,5.672,0,0,1,5.665-5.665,6.953,6.953,0,1,1,0,13.906L14.008,139.9a1.147,1.147,0,0,0,0,2.294Z" transform="translate(-12.861 -121.976)" fill="#fff"/>
    <path id="Path_69717" data-name="Path 69717" d="M317.1,278.885H294.024a1.147,1.147,0,0,0,0,2.294H317.1a6.953,6.953,0,0,1,0,13.906,6.046,6.046,0,0,1-6.039-6.039v-.18a1.147,1.147,0,0,0-2.294,0v.18a8.343,8.343,0,0,0,8.333,8.333,9.247,9.247,0,0,0,0-18.494Z" transform="translate(-262.282 -253.399)" fill="#fff"/>
    <path id="Path_69718" data-name="Path 69718" d="M36.48,278.885H14.191a1.147,1.147,0,0,0,0,2.294H36.48a1.147,1.147,0,0,0,0-2.294Z" transform="translate(-12.843 -253.399)" fill="#fff"/>
  </g>
</svg>
